%TF.GenerationSoftware,KiCad,Pcbnew,8.0.8*%
%TF.CreationDate,2025-02-05T15:59:40-06:00*%
%TF.ProjectId,DMXtoMotionPCB_V3,444d5874-6f4d-46f7-9469-6f6e5043425f,rev?*%
%TF.SameCoordinates,Original*%
%TF.FileFunction,Copper,L2,Bot*%
%TF.FilePolarity,Positive*%
%FSLAX46Y46*%
G04 Gerber Fmt 4.6, Leading zero omitted, Abs format (unit mm)*
G04 Created by KiCad (PCBNEW 8.0.8) date 2025-02-05 15:59:40*
%MOMM*%
%LPD*%
G01*
G04 APERTURE LIST*
G04 Aperture macros list*
%AMRoundRect*
0 Rectangle with rounded corners*
0 $1 Rounding radius*
0 $2 $3 $4 $5 $6 $7 $8 $9 X,Y pos of 4 corners*
0 Add a 4 corners polygon primitive as box body*
4,1,4,$2,$3,$4,$5,$6,$7,$8,$9,$2,$3,0*
0 Add four circle primitives for the rounded corners*
1,1,$1+$1,$2,$3*
1,1,$1+$1,$4,$5*
1,1,$1+$1,$6,$7*
1,1,$1+$1,$8,$9*
0 Add four rect primitives between the rounded corners*
20,1,$1+$1,$2,$3,$4,$5,0*
20,1,$1+$1,$4,$5,$6,$7,0*
20,1,$1+$1,$6,$7,$8,$9,0*
20,1,$1+$1,$8,$9,$2,$3,0*%
%AMRotRect*
0 Rectangle, with rotation*
0 The origin of the aperture is its center*
0 $1 length*
0 $2 width*
0 $3 Rotation angle, in degrees counterclockwise*
0 Add horizontal line*
21,1,$1,$2,0,0,$3*%
G04 Aperture macros list end*
%TA.AperFunction,ComponentPad*%
%ADD10R,1.700000X1.700000*%
%TD*%
%TA.AperFunction,ComponentPad*%
%ADD11C,1.700000*%
%TD*%
%TA.AperFunction,ComponentPad*%
%ADD12R,1.500000X1.500000*%
%TD*%
%TA.AperFunction,ComponentPad*%
%ADD13C,1.500000*%
%TD*%
%TA.AperFunction,ComponentPad*%
%ADD14R,4.000000X3.500000*%
%TD*%
%TA.AperFunction,ComponentPad*%
%ADD15RoundRect,0.750000X-1.000000X0.750000X-1.000000X-0.750000X1.000000X-0.750000X1.000000X0.750000X0*%
%TD*%
%TA.AperFunction,ComponentPad*%
%ADD16RoundRect,0.875000X-0.875000X0.875000X-0.875000X-0.875000X0.875000X-0.875000X0.875000X0.875000X0*%
%TD*%
%TA.AperFunction,ComponentPad*%
%ADD17R,1.920000X1.920000*%
%TD*%
%TA.AperFunction,ComponentPad*%
%ADD18C,1.920000*%
%TD*%
%TA.AperFunction,ComponentPad*%
%ADD19R,2.000000X1.200000*%
%TD*%
%TA.AperFunction,ComponentPad*%
%ADD20O,2.000000X1.200000*%
%TD*%
%TA.AperFunction,ComponentPad*%
%ADD21R,1.800000X1.800000*%
%TD*%
%TA.AperFunction,ComponentPad*%
%ADD22C,1.800000*%
%TD*%
%TA.AperFunction,ComponentPad*%
%ADD23RotRect,1.700000X1.700000X0.001684*%
%TD*%
%TA.AperFunction,ComponentPad*%
%ADD24R,1.600000X1.600000*%
%TD*%
%TA.AperFunction,ComponentPad*%
%ADD25C,1.600000*%
%TD*%
%TA.AperFunction,Conductor*%
%ADD26C,0.200000*%
%TD*%
%TA.AperFunction,Conductor*%
%ADD27C,0.800000*%
%TD*%
G04 APERTURE END LIST*
D10*
%TO.P,J6,1*%
%TO.N,Net_46*%
X167987500Y-83369500D03*
D11*
%TO.P,J6,2*%
%TO.N,GND*%
X170527500Y-83369500D03*
%TD*%
D10*
%TO.P,J4,1*%
%TO.N,Net_40*%
X177617000Y-97751000D03*
D11*
%TO.P,J4,2*%
%TO.N,Net_41*%
X180157000Y-97751000D03*
%TD*%
D12*
%TO.P,VO2,1*%
%TO.N,N/C*%
X115481100Y-120561100D03*
D13*
%TO.P,VO2,2,VF+*%
%TO.N,3.3V_ESP*%
X112941100Y-120561100D03*
%TO.P,VO2,3,VF-*%
%TO.N,Net_9*%
X110401100Y-120561100D03*
%TO.P,VO2,4*%
%TO.N,N/C*%
X107861100Y-120561100D03*
%TO.P,VO2,5,GND*%
%TO.N,ISO-GND*%
X107861100Y-128181100D03*
%TO.P,VO2,6,VO*%
%TO.N,Net_15*%
X110401100Y-128181100D03*
%TO.P,VO2,7,VE*%
%TO.N,unconnected-(VO2-VE-Pad7)*%
X112941100Y-128181100D03*
%TO.P,VO2,8,VCC*%
%TO.N,ISO-5V*%
X115481100Y-128181100D03*
%TD*%
D10*
%TO.P,J5,1*%
%TO.N,3.3V_ESP*%
X164760000Y-150830000D03*
D11*
%TO.P,J5,2*%
%TO.N,Net_32*%
X162220000Y-150830000D03*
%TO.P,J5,3*%
%TO.N,Net_33*%
X159680000Y-150830000D03*
%TO.P,J5,4*%
%TO.N,But1*%
X157140000Y-150830000D03*
%TO.P,J5,5*%
%TO.N,But2*%
X154600000Y-150830000D03*
%TO.P,J5,6*%
%TO.N,GND*%
X152060000Y-150830000D03*
%TD*%
D14*
%TO.P,J1,1,1*%
%TO.N,12V*%
X173680000Y-64220000D03*
D15*
%TO.P,J1,2,2*%
%TO.N,GND*%
X173680000Y-58220000D03*
D16*
%TO.P,J1,3,3*%
%TO.N,unconnected-(J1-Pad3)*%
X168980000Y-61220000D03*
%TD*%
D12*
%TO.P,U2,1,RO*%
%TO.N,Net_13*%
X109131100Y-102146100D03*
D13*
%TO.P,U2,2,~{RE}*%
%TO.N,Net_14*%
X109131100Y-104686100D03*
%TO.P,U2,3,DE*%
X109131100Y-107226100D03*
%TO.P,U2,4,DI*%
%TO.N,Net_15*%
X109131100Y-109766100D03*
%TO.P,U2,5,GND*%
%TO.N,ISO-GND*%
X116751100Y-109766100D03*
%TO.P,U2,6,A*%
%TO.N,Net_17*%
X116751100Y-107226100D03*
%TO.P,U2,7,B*%
%TO.N,Net_16*%
X116751100Y-104686100D03*
%TO.P,U2,8,VCC*%
%TO.N,ISO-5V*%
X116751100Y-102146100D03*
%TD*%
D10*
%TO.P,J3,1*%
%TO.N,ISO-GND*%
X110150000Y-88010000D03*
D11*
%TO.P,J3,2*%
%TO.N,Net_16*%
X112690000Y-88010000D03*
%TO.P,J3,3*%
%TO.N,Net_17*%
X115230000Y-88010000D03*
%TD*%
D12*
%TO.P,U5,1,OUT*%
%TO.N,Net_46*%
X154533600Y-74523600D03*
D13*
%TO.P,U5,2,IN-*%
%TO.N,Net_47*%
X154533600Y-77063600D03*
%TO.P,U5,3,IN+*%
%TO.N,Net_24*%
X154533600Y-79603600D03*
%TO.P,U5,4,V-*%
%TO.N,GND*%
X154533600Y-82143600D03*
%TO.P,U5,5,IN+*%
%TO.N,Net_8*%
X162153600Y-82143600D03*
%TO.P,U5,6,IN-*%
%TO.N,Net_21*%
X162153600Y-79603600D03*
%TO.P,U5,7,OUT*%
%TO.N,Net_18*%
X162153600Y-77063600D03*
%TO.P,U5,8,V+*%
%TO.N,12V*%
X162153600Y-74523600D03*
%TD*%
D12*
%TO.P,VO4,1,Anode@1*%
%TO.N,Net_6*%
X175380000Y-123410000D03*
D13*
%TO.P,VO4,2,Cathode@1*%
%TO.N,Net_0*%
X175380000Y-125950000D03*
%TO.P,VO4,3,Anode@2*%
%TO.N,Net_7*%
X175380000Y-128490000D03*
%TO.P,VO4,4,Cathode@2*%
%TO.N,Net_35*%
X175380000Y-131030000D03*
%TO.P,VO4,5,Anode@3*%
%TO.N,Net_1*%
X175380000Y-133570000D03*
%TO.P,VO4,6,Cathode@3*%
%TO.N,Net_36*%
X175380000Y-136110000D03*
%TO.P,VO4,7,Anode@4*%
%TO.N,Net_2*%
X175380000Y-138650000D03*
%TO.P,VO4,8,Cathode@4*%
%TO.N,Net_37*%
X175380000Y-141190000D03*
%TO.P,VO4,9,Emitter@4*%
%TO.N,Net_45*%
X183000000Y-141190000D03*
%TO.P,VO4,10,Collector@4*%
%TO.N,Net_44*%
X183000000Y-138650000D03*
%TO.P,VO4,11,Emitter@3*%
%TO.N,Net_43*%
X183000000Y-136110000D03*
%TO.P,VO4,12,Collector@3*%
%TO.N,Net_42*%
X183000000Y-133570000D03*
%TO.P,VO4,13,Emitter@2*%
%TO.N,Net_41*%
X183000000Y-131030000D03*
%TO.P,VO4,14,Collector@2*%
%TO.N,Net_40*%
X183000000Y-128490000D03*
%TO.P,VO4,15,Emitter@1*%
%TO.N,Net_38*%
X183000000Y-125950000D03*
%TO.P,VO4,16,Collector@1*%
%TO.N,Net_39*%
X183000000Y-123410000D03*
%TD*%
D17*
%TO.P,S4,1*%
%TO.N,Net_22*%
X141460000Y-106930000D03*
D18*
%TO.P,S4,2*%
%TO.N,GND*%
X141460000Y-104390000D03*
%TO.P,S4,3*%
%TO.N,N/C*%
X141460000Y-101850000D03*
%TD*%
D12*
%TO.P,U1,1*%
%TO.N,5V*%
X142202600Y-63093600D03*
D13*
%TO.P,U1,2*%
%TO.N,GND*%
X139662600Y-63093600D03*
%TO.P,U1,5*%
%TO.N,ISO-GND*%
X134582600Y-63093600D03*
%TO.P,U1,7*%
%TO.N,ISO-5V*%
X129502600Y-63093600D03*
%TD*%
D19*
%TO.P,U6,1,3.3V*%
%TO.N,3.3V_ESP*%
X171270000Y-142960000D03*
D20*
%TO.P,U6,2,EN*%
%TO.N,unconnected-(U6-EN-Pad2)*%
X171270000Y-140420000D03*
%TO.P,U6,3,VP*%
%TO.N,unconnected-(U6-VP-Pad3)*%
X171270000Y-137880000D03*
%TO.P,U6,4,VN*%
%TO.N,unconnected-(U6-VN-Pad4)*%
X171270000Y-135340000D03*
%TO.P,U6,5,34*%
%TO.N,unconnected-(U6-34-Pad5)*%
X171270000Y-132800000D03*
%TO.P,U6,6,35*%
%TO.N,unconnected-(U6-35-Pad6)*%
X171270000Y-130260000D03*
%TO.P,U6,7,32*%
%TO.N,unconnected-(U6-32-Pad7)*%
X171270000Y-127720000D03*
%TO.P,U6,8,33*%
%TO.N,unconnected-(U6-33-Pad8)*%
X171270000Y-125180000D03*
%TO.P,U6,9,25*%
%TO.N,Net_8*%
X171270000Y-122640000D03*
%TO.P,U6,10,26*%
%TO.N,Net_24*%
X171270000Y-120100000D03*
%TO.P,U6,11,27*%
%TO.N,Net_2*%
X171270000Y-117560000D03*
%TO.P,U6,12,14*%
%TO.N,Net_1*%
X171270000Y-115020000D03*
%TO.P,U6,13,12*%
%TO.N,Net_7*%
X171270000Y-112480000D03*
%TO.P,U6,14,GND*%
%TO.N,GND*%
X171270000Y-109940000D03*
%TO.P,U6,15,13*%
%TO.N,Net_6*%
X171270000Y-107400000D03*
%TO.P,U6,16,D2*%
%TO.N,unconnected-(U6-D2-Pad16)*%
X171270000Y-104860000D03*
%TO.P,U6,17,D3*%
%TO.N,unconnected-(U6-D3-Pad17)*%
X171270000Y-102320000D03*
%TO.P,U6,18,CMD*%
%TO.N,unconnected-(U6-CMD-Pad18)*%
X171270000Y-99780000D03*
%TO.P,U6,19,5V*%
%TO.N,5V*%
X171270000Y-97240000D03*
%TO.P,U6,20,SCK/CLK*%
%TO.N,unconnected-(U6-SCK{slash}CLK-Pad20)*%
X145873680Y-97242720D03*
%TO.P,U6,21,SDO/SD0*%
%TO.N,unconnected-(U6-SDO{slash}SD0-Pad21)*%
X145873680Y-99782720D03*
%TO.P,U6,22,SDI/SD1*%
%TO.N,unconnected-(U6-SDI{slash}SD1-Pad22)*%
X145870000Y-102320000D03*
%TO.P,U6,23,IO15*%
%TO.N,Net_22*%
X145870000Y-104860000D03*
%TO.P,U6,24,IO2*%
%TO.N,unconnected-(U6-IO2-Pad24)*%
X145870000Y-107400000D03*
%TO.P,U6,25,IO0*%
%TO.N,unconnected-(U6-IO0-Pad25)*%
X145870000Y-109940000D03*
%TO.P,U6,26,IO4*%
%TO.N,unconnected-(U6-IO4-Pad26)*%
X145870000Y-112480000D03*
%TO.P,U6,27,IO16/RX2*%
%TO.N,RX*%
X145870000Y-115020000D03*
%TO.P,U6,28,IO17/TX2*%
%TO.N,TX*%
X145870000Y-117560000D03*
%TO.P,U6,29,IO5*%
%TO.N,unconnected-(U6-IO5-Pad29)*%
X145870000Y-120100000D03*
%TO.P,U6,30,IO18*%
%TO.N,But1*%
X145870000Y-122640000D03*
%TO.P,U6,31,IO19*%
%TO.N,But2*%
X145870000Y-125180000D03*
%TO.P,U6,32,GND*%
%TO.N,GND*%
X145870000Y-127720000D03*
%TO.P,U6,33,IO21*%
%TO.N,Net_32*%
X145870000Y-130260000D03*
%TO.P,U6,34,RXD0/IO3*%
%TO.N,unconnected-(U6-RXD0{slash}IO3-Pad34)*%
X145870000Y-132800000D03*
%TO.P,U6,35,TXD0/IO1*%
%TO.N,unconnected-(U6-TXD0{slash}IO1-Pad35)*%
X145870000Y-135340000D03*
%TO.P,U6,36,IO22*%
%TO.N,Net_33*%
X145870000Y-137880000D03*
%TO.P,U6,37,IO23*%
%TO.N,Net_10*%
X145870000Y-140420000D03*
%TO.P,U6,38,GND*%
%TO.N,GND*%
X145870000Y-142960000D03*
%TD*%
D21*
%TO.P,U4,1,IN*%
%TO.N,12V*%
X158026100Y-63306100D03*
D22*
%TO.P,U4,2,OUT*%
%TO.N,5V*%
X163106100Y-63306100D03*
%TO.P,U4,3,GND*%
%TO.N,GND*%
X160566100Y-63306100D03*
%TD*%
D23*
%TO.P,J8,1*%
%TO.N,Net_39*%
X177617000Y-104102037D03*
D11*
%TO.P,J8,2*%
%TO.N,Net_38*%
X180157000Y-104101963D03*
%TD*%
D23*
%TO.P,J7,1*%
%TO.N,Net_18*%
X167987500Y-77019537D03*
D11*
%TO.P,J7,2*%
%TO.N,GND*%
X170527500Y-77019463D03*
%TD*%
D10*
%TO.P,J10,1*%
%TO.N,Net_42*%
X177617000Y-91400000D03*
D11*
%TO.P,J10,2*%
%TO.N,Net_43*%
X180157000Y-91400000D03*
%TD*%
D10*
%TO.P,J9,1*%
%TO.N,Net_44*%
X177617000Y-85049500D03*
D11*
%TO.P,J9,2*%
%TO.N,Net_45*%
X180157000Y-85049500D03*
%TD*%
D12*
%TO.P,VO1,1*%
%TO.N,N/C*%
X128440000Y-102340000D03*
D13*
%TO.P,VO1,2,VF+*%
%TO.N,ISO-5V*%
X128440000Y-104880000D03*
%TO.P,VO1,3,VF-*%
%TO.N,Net_12*%
X128440000Y-107420000D03*
%TO.P,VO1,4*%
%TO.N,N/C*%
X128440000Y-109960000D03*
%TO.P,VO1,5,GND*%
%TO.N,GND*%
X136060000Y-109960000D03*
%TO.P,VO1,6,VO*%
%TO.N,RX*%
X136060000Y-107420000D03*
%TO.P,VO1,7,VE*%
%TO.N,unconnected-(VO1-VE-Pad7)*%
X136060000Y-104880000D03*
%TO.P,VO1,8,VCC*%
%TO.N,3.3V_ESP*%
X136060000Y-102340000D03*
%TD*%
D24*
%TO.P,D1,1,K*%
%TO.N,Net_4*%
X117068600Y-58013600D03*
D25*
%TO.P,D1,2,A*%
%TO.N,ISO-5V*%
X117068600Y-60553600D03*
%TD*%
D17*
%TO.P,S3,1*%
%TO.N,N/C*%
X128060000Y-85800000D03*
D18*
%TO.P,S3,2*%
%TO.N,Net_17*%
X130600000Y-85800000D03*
%TO.P,S3,3*%
%TO.N,Net_34*%
X133140000Y-85800000D03*
%TD*%
D12*
%TO.P,VO3,1*%
%TO.N,N/C*%
X131991100Y-120878600D03*
D13*
%TO.P,VO3,2,VF+*%
%TO.N,3.3V_ESP*%
X129451100Y-120878600D03*
%TO.P,VO3,3,VF-*%
%TO.N,Net_11*%
X126911100Y-120878600D03*
%TO.P,VO3,4*%
%TO.N,N/C*%
X124371100Y-120878600D03*
%TO.P,VO3,5,GND*%
%TO.N,ISO-GND*%
X124371100Y-128498600D03*
%TO.P,VO3,6,VO*%
%TO.N,Net_14*%
X126911100Y-128498600D03*
%TO.P,VO3,7,VE*%
%TO.N,unconnected-(VO3-VE-Pad7)*%
X129451100Y-128498600D03*
%TO.P,VO3,8,VCC*%
%TO.N,ISO-5V*%
X131991100Y-128498600D03*
%TD*%
D10*
%TO.P,J2,1*%
%TO.N,ISO-GND*%
X110150000Y-73450000D03*
D11*
%TO.P,J2,2*%
%TO.N,Net_16*%
X112690000Y-73450000D03*
%TO.P,J2,3*%
%TO.N,Net_17*%
X115230000Y-73450000D03*
%TD*%
D26*
%TO.N,Net_14*%
X121680000Y-120610000D02*
X126911100Y-125841100D01*
X121680000Y-117540000D02*
X121680000Y-120610000D01*
X126911100Y-125841100D02*
X126911100Y-128498600D01*
X111366100Y-107226100D02*
X121680000Y-117540000D01*
X109131100Y-107226100D02*
X111366100Y-107226100D01*
D27*
%TO.N,3.3V_ESP*%
X162720000Y-152870000D02*
X164760000Y-150830000D01*
X124670000Y-130580000D02*
X146960000Y-152870000D01*
X121950000Y-130580000D02*
X124670000Y-130580000D01*
X112941100Y-120561100D02*
X112941100Y-121571100D01*
X112941100Y-121571100D02*
X121950000Y-130580000D01*
X146960000Y-152870000D02*
X162720000Y-152870000D01*
%TO.N,5V*%
X164006100Y-64206100D02*
X164006100Y-89976100D01*
X164006100Y-89976100D02*
X171270000Y-97240000D01*
X163106100Y-63306100D02*
X164006100Y-64206100D01*
%TO.N,ISO-5V*%
X116751100Y-102146100D02*
X122606100Y-102146100D01*
X125340000Y-104880000D02*
X128440000Y-104880000D01*
X122606100Y-102146100D02*
X125340000Y-104880000D01*
D26*
%TO.N,Net_16*%
X112690000Y-100625000D02*
X116751100Y-104686100D01*
X112690000Y-88010000D02*
X112690000Y-100625000D01*
%TO.N,Net_17*%
X115230000Y-73450000D02*
X115230000Y-83040000D01*
X115230000Y-83040000D02*
X115230000Y-88010000D01*
%TO.N,Net_22*%
X143800000Y-106930000D02*
X145870000Y-104860000D01*
X141460000Y-106930000D02*
X143800000Y-106930000D01*
%TO.N,Net_32*%
X145870000Y-130260000D02*
X148990000Y-130260000D01*
X148990000Y-130260000D02*
X162220000Y-143490000D01*
X162220000Y-143490000D02*
X162220000Y-150830000D01*
%TO.N,Net_33*%
X159680000Y-149230000D02*
X159680000Y-150830000D01*
X148330000Y-137880000D02*
X145870000Y-137880000D01*
X148330000Y-137880000D02*
X159680000Y-149230000D01*
%TO.N,Net_38*%
X180157000Y-104101963D02*
X180157000Y-102567000D01*
X176060000Y-119010000D02*
X183000000Y-125950000D01*
X176810000Y-101800000D02*
X176060000Y-102550000D01*
X176060000Y-102550000D02*
X176060000Y-119010000D01*
X179390000Y-101800000D02*
X176810000Y-101800000D01*
X180157000Y-102567000D02*
X179390000Y-101800000D01*
%TO.N,Net_39*%
X177617000Y-118027000D02*
X177617000Y-104102037D01*
X183000000Y-123410000D02*
X177617000Y-118027000D01*
%TO.N,Net_40*%
X175380000Y-120870000D02*
X175380000Y-99988000D01*
X175380000Y-99988000D02*
X177617000Y-97751000D01*
X183000000Y-128490000D02*
X175380000Y-120870000D01*
%TO.N,Net_44*%
X184050000Y-137600000D02*
X183000000Y-138650000D01*
X177617000Y-85049500D02*
X184050000Y-91482500D01*
X184050000Y-91482500D02*
X184050000Y-137600000D01*
%TO.N,Net_45*%
X184450000Y-89342500D02*
X180157000Y-85049500D01*
X183000000Y-141190000D02*
X184450000Y-139740000D01*
X184450000Y-139740000D02*
X184450000Y-89342500D01*
%TO.N,RX*%
X141480000Y-115020000D02*
X145870000Y-115020000D01*
X138750000Y-112290000D02*
X138750000Y-110110000D01*
X138750000Y-112290000D02*
X141480000Y-115020000D01*
X138750000Y-110110000D02*
X136060000Y-107420000D01*
%TO.N,Net_6*%
X171270000Y-107400000D02*
X174720000Y-110850000D01*
X174720000Y-110850000D02*
X174720000Y-122750000D01*
X174720000Y-122750000D02*
X175380000Y-123410000D01*
%TO.N,Net_8*%
X162153600Y-113523600D02*
X171270000Y-122640000D01*
X162153600Y-82143600D02*
X162153600Y-113523600D01*
%TO.N,Net_14*%
X109131100Y-104686100D02*
X109131100Y-107226100D01*
%TO.N,unconnected-(U6-IO2-Pad24)*%
X145840000Y-106930000D02*
X145860000Y-106910000D01*
D27*
%TO.N,ISO-5V*%
X133141400Y-128498600D02*
X131991100Y-128498600D01*
X128440000Y-104880000D02*
X129890000Y-104880000D01*
X133850000Y-127790000D02*
X133141400Y-128498600D01*
X133850000Y-108840000D02*
X133850000Y-127790000D01*
X129890000Y-104880000D02*
X133850000Y-108840000D01*
%TD*%
%TA.AperFunction,Conductor*%
%TO.N,GND*%
G36*
X179095677Y-55719685D02*
G01*
X179116319Y-55736319D01*
X187353681Y-63973681D01*
X187387166Y-64035004D01*
X187390000Y-64061362D01*
X187390000Y-147786239D01*
X187370315Y-147853278D01*
X187342729Y-147883648D01*
X184388203Y-150210932D01*
X182028721Y-152069500D01*
X182023758Y-152073409D01*
X181958914Y-152099429D01*
X181947029Y-152100000D01*
X166047840Y-152100000D01*
X165980801Y-152080315D01*
X165935046Y-152027511D01*
X165925102Y-151958353D01*
X165937355Y-151919705D01*
X165938048Y-151918343D01*
X165938050Y-151918342D01*
X165995646Y-151805304D01*
X165995646Y-151805302D01*
X165995647Y-151805301D01*
X166010499Y-151711524D01*
X166010500Y-151711519D01*
X166010499Y-149948482D01*
X165995646Y-149854696D01*
X165938050Y-149741658D01*
X165938046Y-149741654D01*
X165938045Y-149741652D01*
X165848347Y-149651954D01*
X165848344Y-149651952D01*
X165848342Y-149651950D01*
X165771517Y-149612805D01*
X165735301Y-149594352D01*
X165641524Y-149579500D01*
X163878482Y-149579500D01*
X163797519Y-149592323D01*
X163784696Y-149594354D01*
X163671658Y-149651950D01*
X163671657Y-149651951D01*
X163671652Y-149651954D01*
X163581954Y-149741652D01*
X163581951Y-149741657D01*
X163581950Y-149741658D01*
X163562751Y-149779337D01*
X163524352Y-149854698D01*
X163509500Y-149948475D01*
X163509500Y-150098138D01*
X163489815Y-150165177D01*
X163437011Y-150210932D01*
X163367853Y-150220876D01*
X163304297Y-150191851D01*
X163283925Y-150169261D01*
X163181599Y-150023124D01*
X163106950Y-149948475D01*
X163026877Y-149868402D01*
X162847639Y-149742898D01*
X162792093Y-149716996D01*
X162739655Y-149670824D01*
X162720500Y-149604615D01*
X162720500Y-143424110D01*
X162720500Y-143424108D01*
X162686392Y-143296814D01*
X162620500Y-143182686D01*
X162527314Y-143089500D01*
X161766289Y-142328475D01*
X169869500Y-142328475D01*
X169869500Y-143591517D01*
X169880292Y-143659657D01*
X169884354Y-143685304D01*
X169941950Y-143798342D01*
X169941952Y-143798344D01*
X169941954Y-143798347D01*
X170031652Y-143888045D01*
X170031654Y-143888046D01*
X170031658Y-143888050D01*
X170144694Y-143945645D01*
X170144698Y-143945647D01*
X170238475Y-143960499D01*
X170238481Y-143960500D01*
X172301518Y-143960499D01*
X172395304Y-143945646D01*
X172508342Y-143888050D01*
X172598050Y-143798342D01*
X172655646Y-143685304D01*
X172655646Y-143685302D01*
X172655647Y-143685301D01*
X172670499Y-143591524D01*
X172670500Y-143591519D01*
X172670499Y-142328482D01*
X172655646Y-142234696D01*
X172598050Y-142121658D01*
X172598046Y-142121654D01*
X172598045Y-142121652D01*
X172508347Y-142031954D01*
X172508344Y-142031952D01*
X172508342Y-142031950D01*
X172431517Y-141992805D01*
X172395301Y-141974352D01*
X172301524Y-141959500D01*
X170238482Y-141959500D01*
X170157519Y-141972323D01*
X170144696Y-141974354D01*
X170031658Y-142031950D01*
X170031657Y-142031951D01*
X170031652Y-142031954D01*
X169941954Y-142121652D01*
X169941951Y-142121657D01*
X169884352Y-142234698D01*
X169869500Y-142328475D01*
X161766289Y-142328475D01*
X159956357Y-140518543D01*
X169869499Y-140518543D01*
X169907947Y-140711829D01*
X169907950Y-140711839D01*
X169983364Y-140893907D01*
X169983371Y-140893920D01*
X170092860Y-141057781D01*
X170092863Y-141057785D01*
X170232214Y-141197136D01*
X170232218Y-141197139D01*
X170396079Y-141306628D01*
X170396092Y-141306635D01*
X170578160Y-141382049D01*
X170578165Y-141382051D01*
X170578169Y-141382051D01*
X170578170Y-141382052D01*
X170771456Y-141420500D01*
X170771459Y-141420500D01*
X171768543Y-141420500D01*
X171898582Y-141394632D01*
X171961835Y-141382051D01*
X172143914Y-141306632D01*
X172307782Y-141197139D01*
X172447139Y-141057782D01*
X172556632Y-140893914D01*
X172632051Y-140711835D01*
X172670500Y-140518541D01*
X172670500Y-140321459D01*
X172670500Y-140321456D01*
X172632052Y-140128170D01*
X172632051Y-140128169D01*
X172632051Y-140128165D01*
X172632049Y-140128160D01*
X172556635Y-139946092D01*
X172556628Y-139946079D01*
X172447139Y-139782218D01*
X172447136Y-139782214D01*
X172307785Y-139642863D01*
X172307781Y-139642860D01*
X172143920Y-139533371D01*
X172143907Y-139533364D01*
X171961839Y-139457950D01*
X171961829Y-139457947D01*
X171768543Y-139419500D01*
X171768541Y-139419500D01*
X170771459Y-139419500D01*
X170771457Y-139419500D01*
X170578170Y-139457947D01*
X170578160Y-139457950D01*
X170396092Y-139533364D01*
X170396079Y-139533371D01*
X170232218Y-139642860D01*
X170232214Y-139642863D01*
X170092863Y-139782214D01*
X170092860Y-139782218D01*
X169983371Y-139946079D01*
X169983364Y-139946092D01*
X169907950Y-140128160D01*
X169907947Y-140128170D01*
X169869500Y-140321456D01*
X169869500Y-140321459D01*
X169869500Y-140518541D01*
X169869500Y-140518543D01*
X169869499Y-140518543D01*
X159956357Y-140518543D01*
X157416357Y-137978543D01*
X169869499Y-137978543D01*
X169907947Y-138171829D01*
X169907950Y-138171839D01*
X169983364Y-138353907D01*
X169983371Y-138353920D01*
X170092860Y-138517781D01*
X170092863Y-138517785D01*
X170232214Y-138657136D01*
X170232218Y-138657139D01*
X170396079Y-138766628D01*
X170396092Y-138766635D01*
X170578160Y-138842049D01*
X170578165Y-138842051D01*
X170578169Y-138842051D01*
X170578170Y-138842052D01*
X170771456Y-138880500D01*
X170771459Y-138880500D01*
X171768543Y-138880500D01*
X171898582Y-138854632D01*
X171961835Y-138842051D01*
X172143914Y-138766632D01*
X172307782Y-138657139D01*
X172447139Y-138517782D01*
X172556632Y-138353914D01*
X172632051Y-138171835D01*
X172670500Y-137978541D01*
X172670500Y-137781459D01*
X172670500Y-137781456D01*
X172632052Y-137588170D01*
X172632051Y-137588169D01*
X172632051Y-137588165D01*
X172632049Y-137588160D01*
X172556635Y-137406092D01*
X172556628Y-137406079D01*
X172447139Y-137242218D01*
X172447136Y-137242214D01*
X172307785Y-137102863D01*
X172307781Y-137102860D01*
X172143920Y-136993371D01*
X172143907Y-136993364D01*
X171961839Y-136917950D01*
X171961829Y-136917947D01*
X171768543Y-136879500D01*
X171768541Y-136879500D01*
X170771459Y-136879500D01*
X170771457Y-136879500D01*
X170578170Y-136917947D01*
X170578160Y-136917950D01*
X170396092Y-136993364D01*
X170396079Y-136993371D01*
X170232218Y-137102860D01*
X170232214Y-137102863D01*
X170092863Y-137242214D01*
X170092860Y-137242218D01*
X169983371Y-137406079D01*
X169983364Y-137406092D01*
X169907950Y-137588160D01*
X169907947Y-137588170D01*
X169869500Y-137781456D01*
X169869500Y-137781459D01*
X169869500Y-137978541D01*
X169869500Y-137978543D01*
X169869499Y-137978543D01*
X157416357Y-137978543D01*
X154876357Y-135438543D01*
X169869499Y-135438543D01*
X169907947Y-135631829D01*
X169907950Y-135631839D01*
X169983364Y-135813907D01*
X169983371Y-135813920D01*
X170092860Y-135977781D01*
X170092863Y-135977785D01*
X170232214Y-136117136D01*
X170232218Y-136117139D01*
X170396079Y-136226628D01*
X170396092Y-136226635D01*
X170578160Y-136302049D01*
X170578165Y-136302051D01*
X170578169Y-136302051D01*
X170578170Y-136302052D01*
X170771456Y-136340500D01*
X170771459Y-136340500D01*
X171768543Y-136340500D01*
X171898582Y-136314632D01*
X171961835Y-136302051D01*
X172143914Y-136226632D01*
X172307782Y-136117139D01*
X172447139Y-135977782D01*
X172556632Y-135813914D01*
X172632051Y-135631835D01*
X172670500Y-135438541D01*
X172670500Y-135241459D01*
X172670500Y-135241456D01*
X172632052Y-135048170D01*
X172632051Y-135048169D01*
X172632051Y-135048165D01*
X172611554Y-134998680D01*
X172556635Y-134866092D01*
X172556628Y-134866079D01*
X172447139Y-134702218D01*
X172447136Y-134702214D01*
X172307785Y-134562863D01*
X172307781Y-134562860D01*
X172143920Y-134453371D01*
X172143907Y-134453364D01*
X171961839Y-134377950D01*
X171961829Y-134377947D01*
X171768543Y-134339500D01*
X171768541Y-134339500D01*
X170771459Y-134339500D01*
X170771457Y-134339500D01*
X170578170Y-134377947D01*
X170578160Y-134377950D01*
X170396092Y-134453364D01*
X170396079Y-134453371D01*
X170232218Y-134562860D01*
X170232214Y-134562863D01*
X170092863Y-134702214D01*
X170092860Y-134702218D01*
X169983371Y-134866079D01*
X169983364Y-134866092D01*
X169907950Y-135048160D01*
X169907947Y-135048170D01*
X169869500Y-135241456D01*
X169869500Y-135241459D01*
X169869500Y-135438541D01*
X169869500Y-135438543D01*
X169869499Y-135438543D01*
X154876357Y-135438543D01*
X152336357Y-132898543D01*
X169869499Y-132898543D01*
X169907947Y-133091829D01*
X169907950Y-133091839D01*
X169983364Y-133273907D01*
X169983371Y-133273920D01*
X170092860Y-133437781D01*
X170092863Y-133437785D01*
X170232214Y-133577136D01*
X170232218Y-133577139D01*
X170396079Y-133686628D01*
X170396092Y-133686635D01*
X170578160Y-133762049D01*
X170578165Y-133762051D01*
X170578169Y-133762051D01*
X170578170Y-133762052D01*
X170771456Y-133800500D01*
X170771459Y-133800500D01*
X171768543Y-133800500D01*
X171898582Y-133774632D01*
X171961835Y-133762051D01*
X172143914Y-133686632D01*
X172307782Y-133577139D01*
X172447139Y-133437782D01*
X172556632Y-133273914D01*
X172632051Y-133091835D01*
X172670500Y-132898541D01*
X172670500Y-132701459D01*
X172670500Y-132701456D01*
X172632052Y-132508170D01*
X172632051Y-132508169D01*
X172632051Y-132508165D01*
X172611554Y-132458680D01*
X172556635Y-132326092D01*
X172556628Y-132326079D01*
X172447139Y-132162218D01*
X172447136Y-132162214D01*
X172307785Y-132022863D01*
X172307781Y-132022860D01*
X172143920Y-131913371D01*
X172143907Y-131913364D01*
X171961839Y-131837950D01*
X171961829Y-131837947D01*
X171768543Y-131799500D01*
X171768541Y-131799500D01*
X170771459Y-131799500D01*
X170771457Y-131799500D01*
X170578170Y-131837947D01*
X170578160Y-131837950D01*
X170396092Y-131913364D01*
X170396079Y-131913371D01*
X170232218Y-132022860D01*
X170232214Y-132022863D01*
X170092863Y-132162214D01*
X170092860Y-132162218D01*
X169983371Y-132326079D01*
X169983364Y-132326092D01*
X169907950Y-132508160D01*
X169907947Y-132508170D01*
X169869500Y-132701456D01*
X169869500Y-132701459D01*
X169869500Y-132898541D01*
X169869500Y-132898543D01*
X169869499Y-132898543D01*
X152336357Y-132898543D01*
X149796357Y-130358543D01*
X169869499Y-130358543D01*
X169907947Y-130551829D01*
X169907950Y-130551839D01*
X169983364Y-130733907D01*
X169983371Y-130733920D01*
X170092860Y-130897781D01*
X170092863Y-130897785D01*
X170232214Y-131037136D01*
X170232218Y-131037139D01*
X170396079Y-131146628D01*
X170396092Y-131146635D01*
X170578160Y-131222049D01*
X170578165Y-131222051D01*
X170578169Y-131222051D01*
X170578170Y-131222052D01*
X170771456Y-131260500D01*
X170771459Y-131260500D01*
X171768543Y-131260500D01*
X171898582Y-131234632D01*
X171961835Y-131222051D01*
X172143914Y-131146632D01*
X172307782Y-131037139D01*
X172447139Y-130897782D01*
X172556632Y-130733914D01*
X172632051Y-130551835D01*
X172670500Y-130358541D01*
X172670500Y-130161459D01*
X172670500Y-130161456D01*
X172632052Y-129968170D01*
X172632051Y-129968169D01*
X172632051Y-129968165D01*
X172611554Y-129918680D01*
X172556635Y-129786092D01*
X172556628Y-129786079D01*
X172447139Y-129622218D01*
X172447136Y-129622214D01*
X172307785Y-129482863D01*
X172307781Y-129482860D01*
X172143920Y-129373371D01*
X172143907Y-129373364D01*
X171961839Y-129297950D01*
X171961829Y-129297947D01*
X171768543Y-129259500D01*
X171768541Y-129259500D01*
X170771459Y-129259500D01*
X170771457Y-129259500D01*
X170578170Y-129297947D01*
X170578160Y-129297950D01*
X170396092Y-129373364D01*
X170396079Y-129373371D01*
X170232218Y-129482860D01*
X170232214Y-129482863D01*
X170092863Y-129622214D01*
X170092860Y-129622218D01*
X169983371Y-129786079D01*
X169983364Y-129786092D01*
X169907950Y-129968160D01*
X169907947Y-129968170D01*
X169869500Y-130161456D01*
X169869500Y-130161459D01*
X169869500Y-130358541D01*
X169869500Y-130358543D01*
X169869499Y-130358543D01*
X149796357Y-130358543D01*
X149297314Y-129859500D01*
X149240250Y-129826554D01*
X149183187Y-129793608D01*
X149119539Y-129776554D01*
X149055892Y-129759500D01*
X149055891Y-129759500D01*
X147205147Y-129759500D01*
X147138108Y-129739815D01*
X147102045Y-129704391D01*
X147047139Y-129622218D01*
X147047137Y-129622215D01*
X146907785Y-129482863D01*
X146907781Y-129482860D01*
X146743920Y-129373371D01*
X146743907Y-129373364D01*
X146561839Y-129297950D01*
X146561829Y-129297947D01*
X146368543Y-129259500D01*
X146368541Y-129259500D01*
X145371459Y-129259500D01*
X145371457Y-129259500D01*
X145178170Y-129297947D01*
X145178160Y-129297950D01*
X144996092Y-129373364D01*
X144996079Y-129373371D01*
X144832218Y-129482860D01*
X144832214Y-129482863D01*
X144692863Y-129622214D01*
X144692860Y-129622218D01*
X144583371Y-129786079D01*
X144583364Y-129786092D01*
X144507950Y-129968160D01*
X144507947Y-129968170D01*
X144469500Y-130161456D01*
X144469500Y-130161459D01*
X144469500Y-130358541D01*
X144469500Y-130358543D01*
X144469499Y-130358543D01*
X144507947Y-130551829D01*
X144507950Y-130551839D01*
X144583364Y-130733907D01*
X144583371Y-130733920D01*
X144692860Y-130897781D01*
X144692863Y-130897785D01*
X144832214Y-131037136D01*
X144832218Y-131037139D01*
X144996079Y-131146628D01*
X144996092Y-131146635D01*
X145178160Y-131222049D01*
X145178165Y-131222051D01*
X145178169Y-131222051D01*
X145178170Y-131222052D01*
X145371456Y-131260500D01*
X145371459Y-131260500D01*
X146368543Y-131260500D01*
X146498582Y-131234632D01*
X146561835Y-131222051D01*
X146743914Y-131146632D01*
X146907782Y-131037139D01*
X147047139Y-130897782D01*
X147102045Y-130815608D01*
X147155657Y-130770804D01*
X147205147Y-130760500D01*
X148731324Y-130760500D01*
X148798363Y-130780185D01*
X148819005Y-130796819D01*
X161683181Y-143660995D01*
X161716666Y-143722318D01*
X161719500Y-143748676D01*
X161719500Y-149604615D01*
X161699815Y-149671654D01*
X161647906Y-149716997D01*
X161592359Y-149742899D01*
X161413121Y-149868402D01*
X161258402Y-150023121D01*
X161132900Y-150202357D01*
X161132898Y-150202361D01*
X161062382Y-150353583D01*
X161016209Y-150406022D01*
X160949016Y-150425174D01*
X160882135Y-150404958D01*
X160837618Y-150353583D01*
X160771098Y-150210932D01*
X160767102Y-150202362D01*
X160767100Y-150202359D01*
X160767099Y-150202357D01*
X160641599Y-150023124D01*
X160566950Y-149948475D01*
X160486877Y-149868402D01*
X160307639Y-149742898D01*
X160252093Y-149716996D01*
X160199655Y-149670824D01*
X160180500Y-149604615D01*
X160180500Y-149164110D01*
X160180500Y-149164108D01*
X160146392Y-149036814D01*
X160080500Y-148922686D01*
X159987314Y-148829500D01*
X148637314Y-137479500D01*
X148580250Y-137446554D01*
X148523187Y-137413608D01*
X148445103Y-137392686D01*
X148395892Y-137379500D01*
X148395891Y-137379500D01*
X147205147Y-137379500D01*
X147138108Y-137359815D01*
X147102045Y-137324391D01*
X147047139Y-137242218D01*
X147047137Y-137242215D01*
X146907785Y-137102863D01*
X146907781Y-137102860D01*
X146743920Y-136993371D01*
X146743907Y-136993364D01*
X146561839Y-136917950D01*
X146561829Y-136917947D01*
X146368543Y-136879500D01*
X146368541Y-136879500D01*
X145371459Y-136879500D01*
X145371457Y-136879500D01*
X145178170Y-136917947D01*
X145178160Y-136917950D01*
X144996092Y-136993364D01*
X144996079Y-136993371D01*
X144832218Y-137102860D01*
X144832214Y-137102863D01*
X144692863Y-137242214D01*
X144692860Y-137242218D01*
X144583371Y-137406079D01*
X144583364Y-137406092D01*
X144507950Y-137588160D01*
X144507947Y-137588170D01*
X144469500Y-137781456D01*
X144469500Y-137781459D01*
X144469500Y-137978541D01*
X144469500Y-137978543D01*
X144469499Y-137978543D01*
X144507947Y-138171829D01*
X144507950Y-138171839D01*
X144583364Y-138353907D01*
X144583371Y-138353920D01*
X144692860Y-138517781D01*
X144692863Y-138517785D01*
X144832214Y-138657136D01*
X144832218Y-138657139D01*
X144996079Y-138766628D01*
X144996092Y-138766635D01*
X145178160Y-138842049D01*
X145178165Y-138842051D01*
X145178169Y-138842051D01*
X145178170Y-138842052D01*
X145371456Y-138880500D01*
X145371459Y-138880500D01*
X146368543Y-138880500D01*
X146498582Y-138854632D01*
X146561835Y-138842051D01*
X146743914Y-138766632D01*
X146907782Y-138657139D01*
X147047139Y-138517782D01*
X147102045Y-138435608D01*
X147155657Y-138390804D01*
X147205147Y-138380500D01*
X148071324Y-138380500D01*
X148138363Y-138400185D01*
X148159005Y-138416819D01*
X159143181Y-149400995D01*
X159176666Y-149462318D01*
X159179500Y-149488676D01*
X159179500Y-149604615D01*
X159159815Y-149671654D01*
X159107906Y-149716997D01*
X159052359Y-149742899D01*
X158873121Y-149868402D01*
X158718402Y-150023121D01*
X158592900Y-150202357D01*
X158592898Y-150202361D01*
X158522382Y-150353583D01*
X158476209Y-150406022D01*
X158409016Y-150425174D01*
X158342135Y-150404958D01*
X158297618Y-150353583D01*
X158231098Y-150210932D01*
X158227102Y-150202362D01*
X158227100Y-150202359D01*
X158227099Y-150202357D01*
X158101599Y-150023124D01*
X158026950Y-149948475D01*
X157946877Y-149868402D01*
X157767642Y-149742900D01*
X157767638Y-149742897D01*
X157668484Y-149696661D01*
X157569330Y-149650425D01*
X157569326Y-149650424D01*
X157569322Y-149650422D01*
X157357977Y-149593793D01*
X157140002Y-149574723D01*
X157139998Y-149574723D01*
X156994682Y-149587436D01*
X156922023Y-149593793D01*
X156922020Y-149593793D01*
X156710677Y-149650422D01*
X156710670Y-149650424D01*
X156710670Y-149650425D01*
X156707391Y-149651954D01*
X156512361Y-149742898D01*
X156512357Y-149742900D01*
X156333121Y-149868402D01*
X156178402Y-150023121D01*
X156052900Y-150202357D01*
X156052898Y-150202361D01*
X155982382Y-150353583D01*
X155936209Y-150406022D01*
X155869016Y-150425174D01*
X155802135Y-150404958D01*
X155757618Y-150353583D01*
X155691098Y-150210932D01*
X155687102Y-150202362D01*
X155687100Y-150202359D01*
X155687099Y-150202357D01*
X155561599Y-150023124D01*
X155486950Y-149948475D01*
X155406877Y-149868402D01*
X155227642Y-149742900D01*
X155227638Y-149742897D01*
X155128484Y-149696661D01*
X155029330Y-149650425D01*
X155029326Y-149650424D01*
X155029322Y-149650422D01*
X154817977Y-149593793D01*
X154600002Y-149574723D01*
X154599998Y-149574723D01*
X154454682Y-149587436D01*
X154382023Y-149593793D01*
X154382020Y-149593793D01*
X154170677Y-149650422D01*
X154170670Y-149650424D01*
X154170670Y-149650425D01*
X154167391Y-149651954D01*
X153972361Y-149742898D01*
X153972357Y-149742900D01*
X153793121Y-149868402D01*
X153638402Y-150023121D01*
X153512900Y-150202357D01*
X153512898Y-150202361D01*
X153420426Y-150400668D01*
X153420422Y-150400677D01*
X153363793Y-150612020D01*
X153363793Y-150612024D01*
X153344723Y-150829997D01*
X153344723Y-150830002D01*
X153363793Y-151047975D01*
X153363793Y-151047979D01*
X153420422Y-151259322D01*
X153420424Y-151259326D01*
X153420425Y-151259330D01*
X153442382Y-151306416D01*
X153512897Y-151457638D01*
X153512898Y-151457639D01*
X153638402Y-151636877D01*
X153793123Y-151791598D01*
X153867856Y-151843927D01*
X153911480Y-151898502D01*
X153918672Y-151968001D01*
X153887150Y-152030355D01*
X153826920Y-152065769D01*
X153796731Y-152069500D01*
X150290862Y-152069500D01*
X150223823Y-152049815D01*
X150203181Y-152033181D01*
X140879999Y-142709999D01*
X144395884Y-142709999D01*
X144395885Y-142710000D01*
X145554314Y-142710000D01*
X145549920Y-142714394D01*
X145497259Y-142805606D01*
X145470000Y-142907339D01*
X145470000Y-143012661D01*
X145497259Y-143114394D01*
X145549920Y-143205606D01*
X145554314Y-143210000D01*
X144395885Y-143210000D01*
X144397085Y-143217584D01*
X144450591Y-143382255D01*
X144529195Y-143536524D01*
X144630967Y-143676602D01*
X144753397Y-143799032D01*
X144893475Y-143900804D01*
X145047742Y-143979408D01*
X145212415Y-144032914D01*
X145383429Y-144060000D01*
X145620000Y-144060000D01*
X145620000Y-143275686D01*
X145624394Y-143280080D01*
X145715606Y-143332741D01*
X145817339Y-143360000D01*
X145922661Y-143360000D01*
X146024394Y-143332741D01*
X146115606Y-143280080D01*
X146120000Y-143275686D01*
X146120000Y-144060000D01*
X146356571Y-144060000D01*
X146527584Y-144032914D01*
X146692257Y-143979408D01*
X146846524Y-143900804D01*
X146986602Y-143799032D01*
X147109032Y-143676602D01*
X147210804Y-143536524D01*
X147289408Y-143382255D01*
X147342914Y-143217584D01*
X147344115Y-143210000D01*
X146185686Y-143210000D01*
X146190080Y-143205606D01*
X146242741Y-143114394D01*
X146270000Y-143012661D01*
X146270000Y-142907339D01*
X146242741Y-142805606D01*
X146190080Y-142714394D01*
X146185686Y-142710000D01*
X147344115Y-142710000D01*
X147344115Y-142709999D01*
X147342914Y-142702415D01*
X147289408Y-142537744D01*
X147210804Y-142383475D01*
X147109032Y-142243397D01*
X146986602Y-142120967D01*
X146846524Y-142019195D01*
X146692257Y-141940591D01*
X146527584Y-141887085D01*
X146356571Y-141860000D01*
X146120000Y-141860000D01*
X146120000Y-142644314D01*
X146115606Y-142639920D01*
X146024394Y-142587259D01*
X145922661Y-142560000D01*
X145817339Y-142560000D01*
X145715606Y-142587259D01*
X145624394Y-142639920D01*
X145620000Y-142644314D01*
X145620000Y-141860000D01*
X145383429Y-141860000D01*
X145212415Y-141887085D01*
X145047742Y-141940591D01*
X144893475Y-142019195D01*
X144753397Y-142120967D01*
X144630967Y-142243397D01*
X144529195Y-142383475D01*
X144450591Y-142537744D01*
X144397085Y-142702415D01*
X144395884Y-142709999D01*
X140879999Y-142709999D01*
X138688543Y-140518543D01*
X144469499Y-140518543D01*
X144507947Y-140711829D01*
X144507950Y-140711839D01*
X144583364Y-140893907D01*
X144583371Y-140893920D01*
X144692860Y-141057781D01*
X144692863Y-141057785D01*
X144832214Y-141197136D01*
X144832218Y-141197139D01*
X144996079Y-141306628D01*
X144996092Y-141306635D01*
X145178160Y-141382049D01*
X145178165Y-141382051D01*
X145178169Y-141382051D01*
X145178170Y-141382052D01*
X145371456Y-141420500D01*
X145371459Y-141420500D01*
X146368543Y-141420500D01*
X146498582Y-141394632D01*
X146561835Y-141382051D01*
X146743914Y-141306632D01*
X146907782Y-141197139D01*
X147047139Y-141057782D01*
X147156632Y-140893914D01*
X147232051Y-140711835D01*
X147270500Y-140518541D01*
X147270500Y-140321459D01*
X147270500Y-140321456D01*
X147232052Y-140128170D01*
X147232051Y-140128169D01*
X147232051Y-140128165D01*
X147232049Y-140128160D01*
X147156635Y-139946092D01*
X147156628Y-139946079D01*
X147047139Y-139782218D01*
X147047136Y-139782214D01*
X146907785Y-139642863D01*
X146907781Y-139642860D01*
X146743920Y-139533371D01*
X146743907Y-139533364D01*
X146561839Y-139457950D01*
X146561829Y-139457947D01*
X146368543Y-139419500D01*
X146368541Y-139419500D01*
X145371459Y-139419500D01*
X145371457Y-139419500D01*
X145178170Y-139457947D01*
X145178160Y-139457950D01*
X144996092Y-139533364D01*
X144996079Y-139533371D01*
X144832218Y-139642860D01*
X144832214Y-139642863D01*
X144692863Y-139782214D01*
X144692860Y-139782218D01*
X144583371Y-139946079D01*
X144583364Y-139946092D01*
X144507950Y-140128160D01*
X144507947Y-140128170D01*
X144469500Y-140321456D01*
X144469500Y-140321459D01*
X144469500Y-140518541D01*
X144469500Y-140518543D01*
X144469499Y-140518543D01*
X138688543Y-140518543D01*
X134276319Y-136106319D01*
X134242834Y-136044996D01*
X134240000Y-136018638D01*
X134240000Y-135438543D01*
X144469499Y-135438543D01*
X144507947Y-135631829D01*
X144507950Y-135631839D01*
X144583364Y-135813907D01*
X144583371Y-135813920D01*
X144692860Y-135977781D01*
X144692863Y-135977785D01*
X144832214Y-136117136D01*
X144832218Y-136117139D01*
X144996079Y-136226628D01*
X144996092Y-136226635D01*
X145178160Y-136302049D01*
X145178165Y-136302051D01*
X145178169Y-136302051D01*
X145178170Y-136302052D01*
X145371456Y-136340500D01*
X145371459Y-136340500D01*
X146368543Y-136340500D01*
X146498582Y-136314632D01*
X146561835Y-136302051D01*
X146743914Y-136226632D01*
X146907782Y-136117139D01*
X147047139Y-135977782D01*
X147156632Y-135813914D01*
X147232051Y-135631835D01*
X147270500Y-135438541D01*
X147270500Y-135241459D01*
X147270500Y-135241456D01*
X147232052Y-135048170D01*
X147232051Y-135048169D01*
X147232051Y-135048165D01*
X147211554Y-134998680D01*
X147156635Y-134866092D01*
X147156628Y-134866079D01*
X147047139Y-134702218D01*
X147047136Y-134702214D01*
X146907785Y-134562863D01*
X146907781Y-134562860D01*
X146743920Y-134453371D01*
X146743907Y-134453364D01*
X146561839Y-134377950D01*
X146561829Y-134377947D01*
X146368543Y-134339500D01*
X146368541Y-134339500D01*
X145371459Y-134339500D01*
X145371457Y-134339500D01*
X145178170Y-134377947D01*
X145178160Y-134377950D01*
X144996092Y-134453364D01*
X144996079Y-134453371D01*
X144832218Y-134562860D01*
X144832214Y-134562863D01*
X144692863Y-134702214D01*
X144692860Y-134702218D01*
X144583371Y-134866079D01*
X144583364Y-134866092D01*
X144507950Y-135048160D01*
X144507947Y-135048170D01*
X144469500Y-135241456D01*
X144469500Y-135241459D01*
X144469500Y-135438541D01*
X144469500Y-135438543D01*
X144469499Y-135438543D01*
X134240000Y-135438543D01*
X134240000Y-132898543D01*
X144469499Y-132898543D01*
X144507947Y-133091829D01*
X144507950Y-133091839D01*
X144583364Y-133273907D01*
X144583371Y-133273920D01*
X144692860Y-133437781D01*
X144692863Y-133437785D01*
X144832214Y-133577136D01*
X144832218Y-133577139D01*
X144996079Y-133686628D01*
X144996092Y-133686635D01*
X145178160Y-133762049D01*
X145178165Y-133762051D01*
X145178169Y-133762051D01*
X145178170Y-133762052D01*
X145371456Y-133800500D01*
X145371459Y-133800500D01*
X146368543Y-133800500D01*
X146498582Y-133774632D01*
X146561835Y-133762051D01*
X146743914Y-133686632D01*
X146907782Y-133577139D01*
X147047139Y-133437782D01*
X147156632Y-133273914D01*
X147232051Y-133091835D01*
X147270500Y-132898541D01*
X147270500Y-132701459D01*
X147270500Y-132701456D01*
X147232052Y-132508170D01*
X147232051Y-132508169D01*
X147232051Y-132508165D01*
X147211554Y-132458680D01*
X147156635Y-132326092D01*
X147156628Y-132326079D01*
X147047139Y-132162218D01*
X147047136Y-132162214D01*
X146907785Y-132022863D01*
X146907781Y-132022860D01*
X146743920Y-131913371D01*
X146743907Y-131913364D01*
X146561839Y-131837950D01*
X146561829Y-131837947D01*
X146368543Y-131799500D01*
X146368541Y-131799500D01*
X145371459Y-131799500D01*
X145371457Y-131799500D01*
X145178170Y-131837947D01*
X145178160Y-131837950D01*
X144996092Y-131913364D01*
X144996079Y-131913371D01*
X144832218Y-132022860D01*
X144832214Y-132022863D01*
X144692863Y-132162214D01*
X144692860Y-132162218D01*
X144583371Y-132326079D01*
X144583364Y-132326092D01*
X144507950Y-132508160D01*
X144507947Y-132508170D01*
X144469500Y-132701456D01*
X144469500Y-132701459D01*
X144469500Y-132898541D01*
X144469500Y-132898543D01*
X144469499Y-132898543D01*
X134240000Y-132898543D01*
X134240000Y-128583440D01*
X134259685Y-128516401D01*
X134276319Y-128495759D01*
X134471786Y-128300292D01*
X134471789Y-128300289D01*
X134559394Y-128169179D01*
X134619738Y-128023497D01*
X134650500Y-127868842D01*
X134650500Y-127711157D01*
X134650500Y-127469999D01*
X144395884Y-127469999D01*
X144395885Y-127470000D01*
X145554314Y-127470000D01*
X145549920Y-127474394D01*
X145497259Y-127565606D01*
X145470000Y-127667339D01*
X145470000Y-127772661D01*
X145497259Y-127874394D01*
X145549920Y-127965606D01*
X145554314Y-127970000D01*
X144395885Y-127970000D01*
X144397085Y-127977584D01*
X144450591Y-128142255D01*
X144529195Y-128296524D01*
X144630967Y-128436602D01*
X144753397Y-128559032D01*
X144893475Y-128660804D01*
X145047742Y-128739408D01*
X145212415Y-128792914D01*
X145383429Y-128820000D01*
X145620000Y-128820000D01*
X145620000Y-128035686D01*
X145624394Y-128040080D01*
X145715606Y-128092741D01*
X145817339Y-128120000D01*
X145922661Y-128120000D01*
X146024394Y-128092741D01*
X146115606Y-128040080D01*
X146120000Y-128035686D01*
X146120000Y-128820000D01*
X146356571Y-128820000D01*
X146527584Y-128792914D01*
X146692257Y-128739408D01*
X146846524Y-128660804D01*
X146986602Y-128559032D01*
X147109032Y-128436602D01*
X147210804Y-128296524D01*
X147289408Y-128142255D01*
X147342914Y-127977584D01*
X147344115Y-127970000D01*
X146185686Y-127970000D01*
X146190080Y-127965606D01*
X146242741Y-127874394D01*
X146257706Y-127818543D01*
X169869499Y-127818543D01*
X169907947Y-128011829D01*
X169907950Y-128011839D01*
X169983364Y-128193907D01*
X169983371Y-128193920D01*
X170092860Y-128357781D01*
X170092863Y-128357785D01*
X170232214Y-128497136D01*
X170232218Y-128497139D01*
X170396079Y-128606628D01*
X170396092Y-128606635D01*
X170578160Y-128682049D01*
X170578165Y-128682051D01*
X170578169Y-128682051D01*
X170578170Y-128682052D01*
X170771456Y-128720500D01*
X170771459Y-128720500D01*
X171768543Y-128720500D01*
X171898582Y-128694632D01*
X171961835Y-128682051D01*
X172143914Y-128606632D01*
X172307782Y-128497139D01*
X172447139Y-128357782D01*
X172556632Y-128193914D01*
X172566878Y-128169179D01*
X172606877Y-128072611D01*
X172632051Y-128011835D01*
X172660494Y-127868843D01*
X172670500Y-127818543D01*
X172670500Y-127621456D01*
X172632052Y-127428170D01*
X172632051Y-127428169D01*
X172632051Y-127428165D01*
X172621905Y-127403669D01*
X172556635Y-127246092D01*
X172556628Y-127246079D01*
X172447139Y-127082218D01*
X172447136Y-127082214D01*
X172307785Y-126942863D01*
X172307781Y-126942860D01*
X172143920Y-126833371D01*
X172143907Y-126833364D01*
X171961839Y-126757950D01*
X171961829Y-126757947D01*
X171768543Y-126719500D01*
X171768541Y-126719500D01*
X170771459Y-126719500D01*
X170771457Y-126719500D01*
X170578170Y-126757947D01*
X170578160Y-126757950D01*
X170396092Y-126833364D01*
X170396079Y-126833371D01*
X170232218Y-126942860D01*
X170232214Y-126942863D01*
X170092863Y-127082214D01*
X170092860Y-127082218D01*
X169983371Y-127246079D01*
X169983364Y-127246092D01*
X169907950Y-127428160D01*
X169907947Y-127428170D01*
X169869500Y-127621456D01*
X169869500Y-127621459D01*
X169869500Y-127818541D01*
X169869500Y-127818543D01*
X169869499Y-127818543D01*
X146257706Y-127818543D01*
X146270000Y-127772661D01*
X146270000Y-127667339D01*
X146242741Y-127565606D01*
X146190080Y-127474394D01*
X146185686Y-127470000D01*
X147344115Y-127470000D01*
X147344115Y-127469999D01*
X147342914Y-127462415D01*
X147289408Y-127297744D01*
X147210804Y-127143475D01*
X147109032Y-127003397D01*
X146986602Y-126880967D01*
X146846524Y-126779195D01*
X146692257Y-126700591D01*
X146527584Y-126647085D01*
X146356571Y-126620000D01*
X146120000Y-126620000D01*
X146120000Y-127404314D01*
X146115606Y-127399920D01*
X146024394Y-127347259D01*
X145922661Y-127320000D01*
X145817339Y-127320000D01*
X145715606Y-127347259D01*
X145624394Y-127399920D01*
X145620000Y-127404314D01*
X145620000Y-126620000D01*
X145383429Y-126620000D01*
X145212415Y-126647085D01*
X145047742Y-126700591D01*
X144893475Y-126779195D01*
X144753397Y-126880967D01*
X144630967Y-127003397D01*
X144529195Y-127143475D01*
X144450591Y-127297744D01*
X144397085Y-127462415D01*
X144395884Y-127469999D01*
X134650500Y-127469999D01*
X134650500Y-125278543D01*
X144469499Y-125278543D01*
X144507947Y-125471829D01*
X144507950Y-125471839D01*
X144583364Y-125653907D01*
X144583371Y-125653920D01*
X144692860Y-125817781D01*
X144692863Y-125817785D01*
X144832214Y-125957136D01*
X144832218Y-125957139D01*
X144996079Y-126066628D01*
X144996092Y-126066635D01*
X145178160Y-126142049D01*
X145178165Y-126142051D01*
X145178169Y-126142051D01*
X145178170Y-126142052D01*
X145371456Y-126180500D01*
X145371459Y-126180500D01*
X146368543Y-126180500D01*
X146498582Y-126154632D01*
X146561835Y-126142051D01*
X146743914Y-126066632D01*
X146907782Y-125957139D01*
X147047139Y-125817782D01*
X147156632Y-125653914D01*
X147232051Y-125471835D01*
X147270500Y-125278543D01*
X169869499Y-125278543D01*
X169907947Y-125471829D01*
X169907950Y-125471839D01*
X169983364Y-125653907D01*
X169983371Y-125653920D01*
X170092860Y-125817781D01*
X170092863Y-125817785D01*
X170232214Y-125957136D01*
X170232218Y-125957139D01*
X170396079Y-126066628D01*
X170396092Y-126066635D01*
X170578160Y-126142049D01*
X170578165Y-126142051D01*
X170578169Y-126142051D01*
X170578170Y-126142052D01*
X170771456Y-126180500D01*
X170771459Y-126180500D01*
X171768543Y-126180500D01*
X171898582Y-126154632D01*
X171961835Y-126142051D01*
X172143914Y-126066632D01*
X172307782Y-125957139D01*
X172447139Y-125817782D01*
X172556632Y-125653914D01*
X172632051Y-125471835D01*
X172670500Y-125278541D01*
X172670500Y-125081459D01*
X172670500Y-125081456D01*
X172632052Y-124888170D01*
X172632051Y-124888169D01*
X172632051Y-124888165D01*
X172621905Y-124863669D01*
X172556635Y-124706092D01*
X172556628Y-124706079D01*
X172447139Y-124542218D01*
X172447136Y-124542214D01*
X172307785Y-124402863D01*
X172307781Y-124402860D01*
X172143920Y-124293371D01*
X172143907Y-124293364D01*
X171961839Y-124217950D01*
X171961829Y-124217947D01*
X171768543Y-124179500D01*
X171768541Y-124179500D01*
X170771459Y-124179500D01*
X170771457Y-124179500D01*
X170578170Y-124217947D01*
X170578160Y-124217950D01*
X170396092Y-124293364D01*
X170396079Y-124293371D01*
X170232218Y-124402860D01*
X170232214Y-124402863D01*
X170092863Y-124542214D01*
X170092860Y-124542218D01*
X169983371Y-124706079D01*
X169983364Y-124706092D01*
X169907950Y-124888160D01*
X169907947Y-124888170D01*
X169869500Y-125081456D01*
X169869500Y-125081459D01*
X169869500Y-125278541D01*
X169869500Y-125278543D01*
X169869499Y-125278543D01*
X147270500Y-125278543D01*
X147270500Y-125278541D01*
X147270500Y-125081459D01*
X147270500Y-125081456D01*
X147232052Y-124888170D01*
X147232051Y-124888169D01*
X147232051Y-124888165D01*
X147221905Y-124863669D01*
X147156635Y-124706092D01*
X147156628Y-124706079D01*
X147047139Y-124542218D01*
X147047136Y-124542214D01*
X146907785Y-124402863D01*
X146907781Y-124402860D01*
X146743920Y-124293371D01*
X146743907Y-124293364D01*
X146561839Y-124217950D01*
X146561829Y-124217947D01*
X146368543Y-124179500D01*
X146368541Y-124179500D01*
X145371459Y-124179500D01*
X145371457Y-124179500D01*
X145178170Y-124217947D01*
X145178160Y-124217950D01*
X144996092Y-124293364D01*
X144996079Y-124293371D01*
X144832218Y-124402860D01*
X144832214Y-124402863D01*
X144692863Y-124542214D01*
X144692860Y-124542218D01*
X144583371Y-124706079D01*
X144583364Y-124706092D01*
X144507950Y-124888160D01*
X144507947Y-124888170D01*
X144469500Y-125081456D01*
X144469500Y-125081459D01*
X144469500Y-125278541D01*
X144469500Y-125278543D01*
X144469499Y-125278543D01*
X134650500Y-125278543D01*
X134650500Y-122738543D01*
X144469499Y-122738543D01*
X144507947Y-122931829D01*
X144507950Y-122931839D01*
X144583364Y-123113907D01*
X144583371Y-123113920D01*
X144692860Y-123277781D01*
X144692863Y-123277785D01*
X144832214Y-123417136D01*
X144832218Y-123417139D01*
X144996079Y-123526628D01*
X144996092Y-123526635D01*
X145178160Y-123602049D01*
X145178165Y-123602051D01*
X145178169Y-123602051D01*
X145178170Y-123602052D01*
X145371456Y-123640500D01*
X145371459Y-123640500D01*
X146368543Y-123640500D01*
X146498582Y-123614632D01*
X146561835Y-123602051D01*
X146743914Y-123526632D01*
X146907782Y-123417139D01*
X147047139Y-123277782D01*
X147156632Y-123113914D01*
X147232051Y-122931835D01*
X147270500Y-122738541D01*
X147270500Y-122541459D01*
X147270500Y-122541456D01*
X147232052Y-122348170D01*
X147232051Y-122348169D01*
X147232051Y-122348165D01*
X147221905Y-122323669D01*
X147156635Y-122166092D01*
X147156628Y-122166079D01*
X147047139Y-122002218D01*
X147047136Y-122002214D01*
X146907785Y-121862863D01*
X146907781Y-121862860D01*
X146743920Y-121753371D01*
X146743907Y-121753364D01*
X146561839Y-121677950D01*
X146561829Y-121677947D01*
X146368543Y-121639500D01*
X146368541Y-121639500D01*
X145371459Y-121639500D01*
X145371457Y-121639500D01*
X145178170Y-121677947D01*
X145178160Y-121677950D01*
X144996092Y-121753364D01*
X144996079Y-121753371D01*
X144832218Y-121862860D01*
X144832214Y-121862863D01*
X144692863Y-122002214D01*
X144692860Y-122002218D01*
X144583371Y-122166079D01*
X144583364Y-122166092D01*
X144507950Y-122348160D01*
X144507947Y-122348170D01*
X144469500Y-122541456D01*
X144469500Y-122541459D01*
X144469500Y-122738541D01*
X144469500Y-122738543D01*
X144469499Y-122738543D01*
X134650500Y-122738543D01*
X134650500Y-120198543D01*
X144469499Y-120198543D01*
X144507947Y-120391829D01*
X144507950Y-120391839D01*
X144583364Y-120573907D01*
X144583371Y-120573920D01*
X144692860Y-120737781D01*
X144692863Y-120737785D01*
X144832214Y-120877136D01*
X144832218Y-120877139D01*
X144996079Y-120986628D01*
X144996092Y-120986635D01*
X145178160Y-121062049D01*
X145178165Y-121062051D01*
X145178169Y-121062051D01*
X145178170Y-121062052D01*
X145371456Y-121100500D01*
X145371459Y-121100500D01*
X146368543Y-121100500D01*
X146498582Y-121074632D01*
X146561835Y-121062051D01*
X146743914Y-120986632D01*
X146907782Y-120877139D01*
X147047139Y-120737782D01*
X147156632Y-120573914D01*
X147232051Y-120391835D01*
X147253684Y-120283082D01*
X147270500Y-120198543D01*
X147270500Y-120001456D01*
X147232052Y-119808170D01*
X147232051Y-119808169D01*
X147232051Y-119808165D01*
X147216507Y-119770637D01*
X147156635Y-119626092D01*
X147156628Y-119626079D01*
X147047139Y-119462218D01*
X147047136Y-119462214D01*
X146907785Y-119322863D01*
X146907781Y-119322860D01*
X146743920Y-119213371D01*
X146743907Y-119213364D01*
X146561839Y-119137950D01*
X146561829Y-119137947D01*
X146368543Y-119099500D01*
X146368541Y-119099500D01*
X145371459Y-119099500D01*
X145371457Y-119099500D01*
X145178170Y-119137947D01*
X145178160Y-119137950D01*
X144996092Y-119213364D01*
X144996079Y-119213371D01*
X144832218Y-119322860D01*
X144832214Y-119322863D01*
X144692863Y-119462214D01*
X144692860Y-119462218D01*
X144583371Y-119626079D01*
X144583364Y-119626092D01*
X144507950Y-119808160D01*
X144507947Y-119808170D01*
X144469500Y-120001456D01*
X144469500Y-120001459D01*
X144469500Y-120198541D01*
X144469500Y-120198543D01*
X144469499Y-120198543D01*
X134650500Y-120198543D01*
X134650500Y-117658543D01*
X144469499Y-117658543D01*
X144507947Y-117851829D01*
X144507950Y-117851839D01*
X144583364Y-118033907D01*
X144583371Y-118033920D01*
X144692860Y-118197781D01*
X144692863Y-118197785D01*
X144832214Y-118337136D01*
X144832218Y-118337139D01*
X144996079Y-118446628D01*
X144996092Y-118446635D01*
X145178160Y-118522049D01*
X145178165Y-118522051D01*
X145178169Y-118522051D01*
X145178170Y-118522052D01*
X145371456Y-118560500D01*
X145371459Y-118560500D01*
X146368543Y-118560500D01*
X146498582Y-118534632D01*
X146561835Y-118522051D01*
X146743914Y-118446632D01*
X146907782Y-118337139D01*
X147047139Y-118197782D01*
X147156632Y-118033914D01*
X147232051Y-117851835D01*
X147270500Y-117658541D01*
X147270500Y-117461459D01*
X147270500Y-117461456D01*
X147232052Y-117268170D01*
X147232051Y-117268169D01*
X147232051Y-117268165D01*
X147232049Y-117268160D01*
X147156635Y-117086092D01*
X147156628Y-117086079D01*
X147047139Y-116922218D01*
X147047136Y-116922214D01*
X146907785Y-116782863D01*
X146907781Y-116782860D01*
X146743920Y-116673371D01*
X146743907Y-116673364D01*
X146561839Y-116597950D01*
X146561829Y-116597947D01*
X146368543Y-116559500D01*
X146368541Y-116559500D01*
X145371459Y-116559500D01*
X145371457Y-116559500D01*
X145178170Y-116597947D01*
X145178160Y-116597950D01*
X144996092Y-116673364D01*
X144996079Y-116673371D01*
X144832218Y-116782860D01*
X144832214Y-116782863D01*
X144692863Y-116922214D01*
X144692860Y-116922218D01*
X144583371Y-117086079D01*
X144583364Y-117086092D01*
X144507950Y-117268160D01*
X144507947Y-117268170D01*
X144469500Y-117461456D01*
X144469500Y-117461459D01*
X144469500Y-117658541D01*
X144469500Y-117658543D01*
X144469499Y-117658543D01*
X134650500Y-117658543D01*
X134650500Y-108761158D01*
X134619738Y-108606503D01*
X134559394Y-108460821D01*
X134559392Y-108460818D01*
X134559390Y-108460814D01*
X134471789Y-108329711D01*
X134471786Y-108329707D01*
X134276319Y-108134240D01*
X134242834Y-108072917D01*
X134240000Y-108046559D01*
X134240000Y-102340000D01*
X134904571Y-102340000D01*
X134924244Y-102552310D01*
X134969088Y-102709919D01*
X134982596Y-102757392D01*
X134982596Y-102757394D01*
X135077632Y-102948253D01*
X135192363Y-103100180D01*
X135206128Y-103118407D01*
X135363698Y-103262052D01*
X135544981Y-103374298D01*
X135743802Y-103451321D01*
X135940613Y-103488111D01*
X136002893Y-103519779D01*
X136038166Y-103580092D01*
X136035232Y-103649900D01*
X135995023Y-103707040D01*
X135940613Y-103731888D01*
X135743802Y-103768679D01*
X135743799Y-103768679D01*
X135743799Y-103768680D01*
X135544982Y-103845701D01*
X135544980Y-103845702D01*
X135363699Y-103957947D01*
X135206127Y-104101593D01*
X135077632Y-104271746D01*
X134982596Y-104462605D01*
X134982596Y-104462607D01*
X134924244Y-104667689D01*
X134908847Y-104833859D01*
X134904571Y-104880000D01*
X134924244Y-105092310D01*
X134978085Y-105281540D01*
X134982596Y-105297392D01*
X134982596Y-105297394D01*
X135077632Y-105488253D01*
X135190067Y-105637139D01*
X135206128Y-105658407D01*
X135363698Y-105802052D01*
X135544981Y-105914298D01*
X135743802Y-105991321D01*
X135940613Y-106028111D01*
X136002893Y-106059779D01*
X136038166Y-106120092D01*
X136035232Y-106189900D01*
X135995023Y-106247040D01*
X135940613Y-106271888D01*
X135743802Y-106308679D01*
X135743799Y-106308679D01*
X135743799Y-106308680D01*
X135544982Y-106385701D01*
X135544980Y-106385702D01*
X135363699Y-106497947D01*
X135206127Y-106641593D01*
X135077632Y-106811746D01*
X134982596Y-107002605D01*
X134982596Y-107002607D01*
X134924244Y-107207689D01*
X134904571Y-107419999D01*
X134904571Y-107420000D01*
X134924244Y-107632310D01*
X134982596Y-107837392D01*
X134982596Y-107837394D01*
X135077632Y-108028253D01*
X135190067Y-108177139D01*
X135206128Y-108198407D01*
X135363698Y-108342052D01*
X135544981Y-108454298D01*
X135743802Y-108531321D01*
X135953390Y-108570500D01*
X135953392Y-108570500D01*
X136166608Y-108570500D01*
X136166610Y-108570500D01*
X136376198Y-108531321D01*
X136376200Y-108531320D01*
X136381834Y-108530267D01*
X136382156Y-108531991D01*
X136443946Y-108532510D01*
X136495695Y-108563509D01*
X138213181Y-110280995D01*
X138246666Y-110342318D01*
X138249500Y-110368676D01*
X138249500Y-112355891D01*
X138283608Y-112483187D01*
X138316554Y-112540250D01*
X138349500Y-112597314D01*
X141172686Y-115420500D01*
X141286814Y-115486392D01*
X141414108Y-115520500D01*
X141545892Y-115520500D01*
X144534853Y-115520500D01*
X144601892Y-115540185D01*
X144637954Y-115575608D01*
X144673849Y-115629329D01*
X144692862Y-115657784D01*
X144832214Y-115797136D01*
X144832218Y-115797139D01*
X144996079Y-115906628D01*
X144996092Y-115906635D01*
X145178160Y-115982049D01*
X145178165Y-115982051D01*
X145178169Y-115982051D01*
X145178170Y-115982052D01*
X145371456Y-116020500D01*
X145371459Y-116020500D01*
X146368543Y-116020500D01*
X146498582Y-115994632D01*
X146561835Y-115982051D01*
X146743914Y-115906632D01*
X146907782Y-115797139D01*
X147047139Y-115657782D01*
X147156632Y-115493914D01*
X147232051Y-115311835D01*
X147270500Y-115118541D01*
X147270500Y-114921459D01*
X147270500Y-114921456D01*
X147232052Y-114728170D01*
X147232051Y-114728169D01*
X147232051Y-114728165D01*
X147232049Y-114728160D01*
X147156635Y-114546092D01*
X147156628Y-114546079D01*
X147047139Y-114382218D01*
X147047136Y-114382214D01*
X146907785Y-114242863D01*
X146907781Y-114242860D01*
X146743920Y-114133371D01*
X146743907Y-114133364D01*
X146561839Y-114057950D01*
X146561829Y-114057947D01*
X146368543Y-114019500D01*
X146368541Y-114019500D01*
X145371459Y-114019500D01*
X145371457Y-114019500D01*
X145178170Y-114057947D01*
X145178160Y-114057950D01*
X144996092Y-114133364D01*
X144996079Y-114133371D01*
X144832218Y-114242860D01*
X144832214Y-114242863D01*
X144692862Y-114382215D01*
X144659221Y-114432562D01*
X144637954Y-114464391D01*
X144584343Y-114509196D01*
X144534853Y-114519500D01*
X141738676Y-114519500D01*
X141671637Y-114499815D01*
X141650995Y-114483181D01*
X139746357Y-112578543D01*
X144469499Y-112578543D01*
X144507947Y-112771829D01*
X144507950Y-112771839D01*
X144583364Y-112953907D01*
X144583371Y-112953920D01*
X144692860Y-113117781D01*
X144692863Y-113117785D01*
X144832214Y-113257136D01*
X144832218Y-113257139D01*
X144996079Y-113366628D01*
X144996092Y-113366635D01*
X145178160Y-113442049D01*
X145178165Y-113442051D01*
X145178169Y-113442051D01*
X145178170Y-113442052D01*
X145371456Y-113480500D01*
X145371459Y-113480500D01*
X146368543Y-113480500D01*
X146498582Y-113454632D01*
X146561835Y-113442051D01*
X146743914Y-113366632D01*
X146907782Y-113257139D01*
X147047139Y-113117782D01*
X147156632Y-112953914D01*
X147232051Y-112771835D01*
X147244632Y-112708582D01*
X147270500Y-112578543D01*
X147270500Y-112381456D01*
X147232052Y-112188170D01*
X147232051Y-112188169D01*
X147232051Y-112188165D01*
X147167086Y-112031324D01*
X147156635Y-112006092D01*
X147156628Y-112006079D01*
X147047139Y-111842218D01*
X147047136Y-111842214D01*
X146907785Y-111702863D01*
X146907781Y-111702860D01*
X146743920Y-111593371D01*
X146743907Y-111593364D01*
X146561839Y-111517950D01*
X146561829Y-111517947D01*
X146368543Y-111479500D01*
X146368541Y-111479500D01*
X145371459Y-111479500D01*
X145371457Y-111479500D01*
X145178170Y-111517947D01*
X145178160Y-111517950D01*
X144996092Y-111593364D01*
X144996079Y-111593371D01*
X144832218Y-111702860D01*
X144832214Y-111702863D01*
X144692863Y-111842214D01*
X144692860Y-111842218D01*
X144583371Y-112006079D01*
X144583364Y-112006092D01*
X144507950Y-112188160D01*
X144507947Y-112188170D01*
X144469500Y-112381456D01*
X144469500Y-112381459D01*
X144469500Y-112578541D01*
X144469500Y-112578543D01*
X144469499Y-112578543D01*
X139746357Y-112578543D01*
X139286819Y-112119005D01*
X139253334Y-112057682D01*
X139250500Y-112031324D01*
X139250500Y-110044109D01*
X139249008Y-110038543D01*
X139249008Y-110038541D01*
X139216392Y-109916814D01*
X139184259Y-109861158D01*
X139172884Y-109841456D01*
X144469500Y-109841456D01*
X144469500Y-110038543D01*
X144507947Y-110231829D01*
X144507950Y-110231839D01*
X144583364Y-110413907D01*
X144583371Y-110413920D01*
X144692860Y-110577781D01*
X144692863Y-110577785D01*
X144832214Y-110717136D01*
X144832218Y-110717139D01*
X144996079Y-110826628D01*
X144996092Y-110826635D01*
X145178160Y-110902049D01*
X145178165Y-110902051D01*
X145178169Y-110902051D01*
X145178170Y-110902052D01*
X145371456Y-110940500D01*
X145371459Y-110940500D01*
X146368543Y-110940500D01*
X146498582Y-110914632D01*
X146561835Y-110902051D01*
X146743914Y-110826632D01*
X146907782Y-110717139D01*
X147047139Y-110577782D01*
X147156632Y-110413914D01*
X147232051Y-110231835D01*
X147264369Y-110069363D01*
X147270500Y-110038543D01*
X147270500Y-109841456D01*
X147232052Y-109648170D01*
X147232051Y-109648169D01*
X147232051Y-109648165D01*
X147187248Y-109540000D01*
X147156635Y-109466092D01*
X147156628Y-109466079D01*
X147047139Y-109302218D01*
X147047136Y-109302214D01*
X146907785Y-109162863D01*
X146907781Y-109162860D01*
X146743920Y-109053371D01*
X146743907Y-109053364D01*
X146561839Y-108977950D01*
X146561829Y-108977947D01*
X146368543Y-108939500D01*
X146368541Y-108939500D01*
X145371459Y-108939500D01*
X145371457Y-108939500D01*
X145178170Y-108977947D01*
X145178160Y-108977950D01*
X144996092Y-109053364D01*
X144996079Y-109053371D01*
X144832218Y-109162860D01*
X144832214Y-109162863D01*
X144692863Y-109302214D01*
X144692860Y-109302218D01*
X144583371Y-109466079D01*
X144583364Y-109466092D01*
X144507950Y-109648160D01*
X144507947Y-109648170D01*
X144469500Y-109841456D01*
X139172884Y-109841456D01*
X139150500Y-109802686D01*
X139057314Y-109709500D01*
X137199519Y-107851705D01*
X137166034Y-107790382D01*
X137167933Y-107730091D01*
X137195756Y-107632310D01*
X137215429Y-107420000D01*
X137195756Y-107207690D01*
X137137405Y-107002611D01*
X137137403Y-107002606D01*
X137137403Y-107002605D01*
X137042367Y-106811746D01*
X136913872Y-106641593D01*
X136893323Y-106622860D01*
X136756302Y-106497948D01*
X136575019Y-106385702D01*
X136575017Y-106385701D01*
X136475608Y-106347190D01*
X136376198Y-106308679D01*
X136179385Y-106271888D01*
X136117106Y-106240221D01*
X136081833Y-106179908D01*
X136084767Y-106110100D01*
X136124976Y-106052960D01*
X136179384Y-106028111D01*
X136376198Y-105991321D01*
X136512610Y-105938475D01*
X140099500Y-105938475D01*
X140099500Y-107921517D01*
X140103276Y-107945356D01*
X140114354Y-108015304D01*
X140171950Y-108128342D01*
X140171952Y-108128344D01*
X140171954Y-108128347D01*
X140261652Y-108218045D01*
X140261654Y-108218046D01*
X140261658Y-108218050D01*
X140374694Y-108275645D01*
X140374698Y-108275647D01*
X140468475Y-108290499D01*
X140468481Y-108290500D01*
X142451518Y-108290499D01*
X142545304Y-108275646D01*
X142658342Y-108218050D01*
X142748050Y-108128342D01*
X142805646Y-108015304D01*
X142805646Y-108015302D01*
X142805647Y-108015301D01*
X142820500Y-107921524D01*
X142820500Y-107554500D01*
X142840185Y-107487461D01*
X142892989Y-107441706D01*
X142944500Y-107430500D01*
X143865890Y-107430500D01*
X143865892Y-107430500D01*
X143993186Y-107396392D01*
X144107314Y-107330500D01*
X144263177Y-107174636D01*
X144324497Y-107141154D01*
X144394188Y-107146138D01*
X144450122Y-107188009D01*
X144474539Y-107253474D01*
X144472473Y-107286508D01*
X144469500Y-107301456D01*
X144469500Y-107301459D01*
X144469500Y-107498541D01*
X144469500Y-107498543D01*
X144469499Y-107498543D01*
X144507947Y-107691829D01*
X144507950Y-107691839D01*
X144583364Y-107873907D01*
X144583371Y-107873920D01*
X144692860Y-108037781D01*
X144692863Y-108037785D01*
X144832214Y-108177136D01*
X144832218Y-108177139D01*
X144996079Y-108286628D01*
X144996092Y-108286635D01*
X145178160Y-108362049D01*
X145178165Y-108362051D01*
X145178169Y-108362051D01*
X145178170Y-108362052D01*
X145371456Y-108400500D01*
X145371459Y-108400500D01*
X146368543Y-108400500D01*
X146498582Y-108374632D01*
X146561835Y-108362051D01*
X146743914Y-108286632D01*
X146907782Y-108177139D01*
X147047139Y-108037782D01*
X147156632Y-107873914D01*
X147232051Y-107691835D01*
X147270500Y-107498541D01*
X147270500Y-107301459D01*
X147270500Y-107301456D01*
X147232052Y-107108170D01*
X147232051Y-107108169D01*
X147232051Y-107108165D01*
X147232049Y-107108160D01*
X147156635Y-106926092D01*
X147156628Y-106926079D01*
X147047139Y-106762218D01*
X147047136Y-106762214D01*
X146907785Y-106622863D01*
X146907781Y-106622860D01*
X146743920Y-106513371D01*
X146743907Y-106513364D01*
X146561839Y-106437950D01*
X146561829Y-106437947D01*
X146368543Y-106399500D01*
X146368541Y-106399500D01*
X145371459Y-106399500D01*
X145371457Y-106399500D01*
X145356508Y-106402473D01*
X145286916Y-106396243D01*
X145231740Y-106353379D01*
X145208498Y-106287488D01*
X145224568Y-106219492D01*
X145244635Y-106193178D01*
X145540995Y-105896819D01*
X145602318Y-105863334D01*
X145628676Y-105860500D01*
X146368543Y-105860500D01*
X146498582Y-105834632D01*
X146561835Y-105822051D01*
X146743914Y-105746632D01*
X146907782Y-105637139D01*
X147047139Y-105497782D01*
X147156632Y-105333914D01*
X147232051Y-105151835D01*
X147265532Y-104983519D01*
X147270500Y-104958543D01*
X147270500Y-104761456D01*
X147232052Y-104568170D01*
X147232051Y-104568169D01*
X147232051Y-104568165D01*
X147216775Y-104531285D01*
X147156635Y-104386092D01*
X147156628Y-104386079D01*
X147047139Y-104222218D01*
X147047136Y-104222214D01*
X146907785Y-104082863D01*
X146907781Y-104082860D01*
X146743920Y-103973371D01*
X146743907Y-103973364D01*
X146561839Y-103897950D01*
X146561829Y-103897947D01*
X146368543Y-103859500D01*
X146368541Y-103859500D01*
X145371459Y-103859500D01*
X145371457Y-103859500D01*
X145178170Y-103897947D01*
X145178160Y-103897950D01*
X144996092Y-103973364D01*
X144996079Y-103973371D01*
X144832218Y-104082860D01*
X144832214Y-104082863D01*
X144692863Y-104222214D01*
X144692860Y-104222218D01*
X144583371Y-104386079D01*
X144583364Y-104386092D01*
X144507950Y-104568160D01*
X144507947Y-104568170D01*
X144469500Y-104761456D01*
X144469500Y-104761459D01*
X144469500Y-104958541D01*
X144469500Y-104958543D01*
X144469499Y-104958543D01*
X144507947Y-105151829D01*
X144507950Y-105151839D01*
X144582386Y-105331545D01*
X144589855Y-105401014D01*
X144558579Y-105463493D01*
X144555506Y-105466678D01*
X143629005Y-106393181D01*
X143567682Y-106426666D01*
X143541324Y-106429500D01*
X142944499Y-106429500D01*
X142877460Y-106409815D01*
X142831705Y-106357011D01*
X142820499Y-106305500D01*
X142820499Y-105938482D01*
X142816669Y-105914298D01*
X142805646Y-105844696D01*
X142748050Y-105731658D01*
X142748046Y-105731654D01*
X142748045Y-105731652D01*
X142658347Y-105641954D01*
X142658344Y-105641952D01*
X142658342Y-105641950D01*
X142581517Y-105602805D01*
X142545301Y-105584352D01*
X142451524Y-105569500D01*
X140468482Y-105569500D01*
X140387519Y-105582323D01*
X140374696Y-105584354D01*
X140261658Y-105641950D01*
X140261657Y-105641951D01*
X140261652Y-105641954D01*
X140171954Y-105731652D01*
X140171951Y-105731657D01*
X140171950Y-105731658D01*
X140164319Y-105746635D01*
X140114352Y-105844698D01*
X140099500Y-105938475D01*
X136512610Y-105938475D01*
X136575019Y-105914298D01*
X136756302Y-105802052D01*
X136913872Y-105658407D01*
X137042366Y-105488255D01*
X137081592Y-105409478D01*
X137137403Y-105297394D01*
X137137403Y-105297393D01*
X137137405Y-105297389D01*
X137195756Y-105092310D01*
X137215429Y-104880000D01*
X137195756Y-104667690D01*
X137137405Y-104462611D01*
X137137403Y-104462606D01*
X137137403Y-104462605D01*
X137042367Y-104271746D01*
X136913872Y-104101593D01*
X136889637Y-104079500D01*
X136756302Y-103957948D01*
X136575019Y-103845702D01*
X136575017Y-103845701D01*
X136475608Y-103807190D01*
X136376198Y-103768679D01*
X136179385Y-103731888D01*
X136117106Y-103700221D01*
X136081833Y-103639908D01*
X136084767Y-103570100D01*
X136124976Y-103512960D01*
X136179384Y-103488111D01*
X136376198Y-103451321D01*
X136575019Y-103374298D01*
X136756302Y-103262052D01*
X136913872Y-103118407D01*
X137042366Y-102948255D01*
X137054466Y-102923954D01*
X137137403Y-102757394D01*
X137137403Y-102757393D01*
X137137405Y-102757389D01*
X137195756Y-102552310D01*
X137215429Y-102340000D01*
X137195756Y-102127690D01*
X137137405Y-101922611D01*
X137137403Y-101922606D01*
X137137403Y-101922605D01*
X137101247Y-101849994D01*
X140094837Y-101849994D01*
X140094837Y-101850005D01*
X140113455Y-102074694D01*
X140168805Y-102293268D01*
X140259375Y-102499747D01*
X140350930Y-102639881D01*
X140382695Y-102688500D01*
X140428258Y-102737995D01*
X140535397Y-102854380D01*
X140535406Y-102854388D01*
X140713318Y-102992863D01*
X140713324Y-102992867D01*
X140713327Y-102992869D01*
X140911620Y-103100180D01*
X140911623Y-103100181D01*
X141124868Y-103173388D01*
X141124870Y-103173388D01*
X141124872Y-103173389D01*
X141347266Y-103210500D01*
X141347267Y-103210500D01*
X141572733Y-103210500D01*
X141572734Y-103210500D01*
X141795128Y-103173389D01*
X142008380Y-103100180D01*
X142206673Y-102992869D01*
X142211696Y-102988960D01*
X142316002Y-102907775D01*
X142384600Y-102854383D01*
X142537305Y-102688500D01*
X142660625Y-102499746D01*
X142696244Y-102418543D01*
X144469499Y-102418543D01*
X144507947Y-102611829D01*
X144507950Y-102611839D01*
X144583364Y-102793907D01*
X144583371Y-102793920D01*
X144692860Y-102957781D01*
X144692863Y-102957785D01*
X144832214Y-103097136D01*
X144832218Y-103097139D01*
X144996079Y-103206628D01*
X144996092Y-103206635D01*
X145178160Y-103282049D01*
X145178165Y-103282051D01*
X145178169Y-103282051D01*
X145178170Y-103282052D01*
X145371456Y-103320500D01*
X145371459Y-103320500D01*
X146368543Y-103320500D01*
X146498582Y-103294632D01*
X146561835Y-103282051D01*
X146702655Y-103223721D01*
X146743907Y-103206635D01*
X146743907Y-103206634D01*
X146743914Y-103206632D01*
X146907782Y-103097139D01*
X147047139Y-102957782D01*
X147156632Y-102793914D01*
X147232051Y-102611835D01*
X147270500Y-102418541D01*
X147270500Y-102221459D01*
X147270500Y-102221456D01*
X147232052Y-102028170D01*
X147232051Y-102028169D01*
X147232051Y-102028165D01*
X147229367Y-102021686D01*
X147156635Y-101846092D01*
X147156628Y-101846079D01*
X147047139Y-101682218D01*
X147047136Y-101682214D01*
X146907785Y-101542863D01*
X146907781Y-101542860D01*
X146743920Y-101433371D01*
X146743907Y-101433364D01*
X146561839Y-101357950D01*
X146561829Y-101357947D01*
X146368543Y-101319500D01*
X146368541Y-101319500D01*
X145371459Y-101319500D01*
X145371457Y-101319500D01*
X145178170Y-101357947D01*
X145178160Y-101357950D01*
X144996092Y-101433364D01*
X144996079Y-101433371D01*
X144832218Y-101542860D01*
X144832214Y-101542863D01*
X144692863Y-101682214D01*
X144692860Y-101682218D01*
X144583371Y-101846079D01*
X144583364Y-101846092D01*
X144507950Y-102028160D01*
X144507947Y-102028170D01*
X144469500Y-102221456D01*
X144469500Y-102221459D01*
X144469500Y-102418541D01*
X144469500Y-102418543D01*
X144469499Y-102418543D01*
X142696244Y-102418543D01*
X142751195Y-102293268D01*
X142806544Y-102074698D01*
X142825163Y-101850000D01*
X142824839Y-101846092D01*
X142806544Y-101625305D01*
X142806544Y-101625302D01*
X142751195Y-101406732D01*
X142660625Y-101200254D01*
X142537305Y-101011500D01*
X142384600Y-100845617D01*
X142384597Y-100845615D01*
X142384593Y-100845611D01*
X142206681Y-100707136D01*
X142206675Y-100707132D01*
X142008381Y-100599820D01*
X142008376Y-100599818D01*
X141795131Y-100526611D01*
X141628332Y-100498777D01*
X141572734Y-100489500D01*
X141347266Y-100489500D01*
X141302787Y-100496922D01*
X141124868Y-100526611D01*
X140911623Y-100599818D01*
X140911618Y-100599820D01*
X140713324Y-100707132D01*
X140713318Y-100707136D01*
X140535406Y-100845611D01*
X140535397Y-100845619D01*
X140382697Y-101011497D01*
X140382693Y-101011502D01*
X140259375Y-101200252D01*
X140168805Y-101406731D01*
X140113455Y-101625305D01*
X140094837Y-101849994D01*
X137101247Y-101849994D01*
X137042367Y-101731746D01*
X136913872Y-101561593D01*
X136893323Y-101542860D01*
X136756302Y-101417948D01*
X136575019Y-101305702D01*
X136575017Y-101305701D01*
X136475608Y-101267190D01*
X136376198Y-101228679D01*
X136166610Y-101189500D01*
X135953390Y-101189500D01*
X135743802Y-101228679D01*
X135743799Y-101228679D01*
X135743799Y-101228680D01*
X135544982Y-101305701D01*
X135544980Y-101305702D01*
X135363699Y-101417947D01*
X135206127Y-101561593D01*
X135077632Y-101731746D01*
X134982596Y-101922605D01*
X134982596Y-101922607D01*
X134924244Y-102127689D01*
X134907969Y-102303334D01*
X134904571Y-102340000D01*
X134240000Y-102340000D01*
X134240000Y-99881263D01*
X144473179Y-99881263D01*
X144511627Y-100074549D01*
X144511630Y-100074559D01*
X144587044Y-100256627D01*
X144587051Y-100256640D01*
X144696540Y-100420501D01*
X144696543Y-100420505D01*
X144835894Y-100559856D01*
X144835898Y-100559859D01*
X144999759Y-100669348D01*
X144999772Y-100669355D01*
X145181840Y-100744769D01*
X145181845Y-100744771D01*
X145181849Y-100744771D01*
X145181850Y-100744772D01*
X145375136Y-100783220D01*
X145375139Y-100783220D01*
X146372223Y-100783220D01*
X146502262Y-100757352D01*
X146565515Y-100744771D01*
X146747594Y-100669352D01*
X146911462Y-100559859D01*
X147050819Y-100420502D01*
X147160312Y-100256634D01*
X147235731Y-100074555D01*
X147274180Y-99881261D01*
X147274180Y-99684179D01*
X147274180Y-99684176D01*
X147235732Y-99490890D01*
X147235731Y-99490889D01*
X147235731Y-99490885D01*
X147234602Y-99488160D01*
X147160315Y-99308812D01*
X147160308Y-99308799D01*
X147050819Y-99144938D01*
X147050816Y-99144934D01*
X146911465Y-99005583D01*
X146911461Y-99005580D01*
X146747600Y-98896091D01*
X146747587Y-98896084D01*
X146565519Y-98820670D01*
X146565509Y-98820667D01*
X146372223Y-98782220D01*
X146372221Y-98782220D01*
X145375139Y-98782220D01*
X145375137Y-98782220D01*
X145181850Y-98820667D01*
X145181840Y-98820670D01*
X144999772Y-98896084D01*
X144999759Y-98896091D01*
X144835898Y-99005580D01*
X144835894Y-99005583D01*
X144696543Y-99144934D01*
X144696540Y-99144938D01*
X144587051Y-99308799D01*
X144587044Y-99308812D01*
X144511630Y-99490880D01*
X144511627Y-99490890D01*
X144473180Y-99684176D01*
X144473180Y-99684179D01*
X144473180Y-99881261D01*
X144473180Y-99881263D01*
X144473179Y-99881263D01*
X134240000Y-99881263D01*
X134240000Y-99131362D01*
X134259685Y-99064323D01*
X134276319Y-99043681D01*
X135978737Y-97341263D01*
X144473179Y-97341263D01*
X144511627Y-97534549D01*
X144511630Y-97534559D01*
X144587044Y-97716627D01*
X144587051Y-97716640D01*
X144696540Y-97880501D01*
X144696543Y-97880505D01*
X144835894Y-98019856D01*
X144835898Y-98019859D01*
X144999759Y-98129348D01*
X144999772Y-98129355D01*
X145181840Y-98204769D01*
X145181845Y-98204771D01*
X145181849Y-98204771D01*
X145181850Y-98204772D01*
X145375136Y-98243220D01*
X145375139Y-98243220D01*
X146372223Y-98243220D01*
X146502262Y-98217352D01*
X146565515Y-98204771D01*
X146747594Y-98129352D01*
X146911462Y-98019859D01*
X147050819Y-97880502D01*
X147160312Y-97716634D01*
X147235731Y-97534555D01*
X147274180Y-97341261D01*
X147274180Y-97144179D01*
X147274180Y-97144176D01*
X147235732Y-96950890D01*
X147235731Y-96950889D01*
X147235731Y-96950885D01*
X147202010Y-96869475D01*
X147160315Y-96768812D01*
X147160308Y-96768799D01*
X147050819Y-96604938D01*
X147050816Y-96604934D01*
X146911465Y-96465583D01*
X146911461Y-96465580D01*
X146747600Y-96356091D01*
X146747587Y-96356084D01*
X146565519Y-96280670D01*
X146565509Y-96280667D01*
X146372223Y-96242220D01*
X146372221Y-96242220D01*
X145375139Y-96242220D01*
X145375137Y-96242220D01*
X145181850Y-96280667D01*
X145181840Y-96280670D01*
X144999772Y-96356084D01*
X144999759Y-96356091D01*
X144835898Y-96465580D01*
X144835894Y-96465583D01*
X144696543Y-96604934D01*
X144696540Y-96604938D01*
X144587051Y-96768799D01*
X144587044Y-96768812D01*
X144511630Y-96950880D01*
X144511627Y-96950890D01*
X144473180Y-97144176D01*
X144473180Y-97144179D01*
X144473180Y-97341261D01*
X144473180Y-97341263D01*
X144473179Y-97341263D01*
X135978737Y-97341263D01*
X136229738Y-97090262D01*
X138210000Y-95110000D01*
X138210000Y-77063599D01*
X153378171Y-77063599D01*
X153378171Y-77063600D01*
X153397844Y-77275910D01*
X153456196Y-77480992D01*
X153456196Y-77480994D01*
X153551232Y-77671853D01*
X153669275Y-77828165D01*
X153679728Y-77842007D01*
X153837298Y-77985652D01*
X154018581Y-78097898D01*
X154217402Y-78174921D01*
X154414213Y-78211711D01*
X154476493Y-78243379D01*
X154511766Y-78303692D01*
X154508832Y-78373500D01*
X154468623Y-78430640D01*
X154414213Y-78455488D01*
X154217402Y-78492279D01*
X154217399Y-78492279D01*
X154217399Y-78492280D01*
X154018582Y-78569301D01*
X154018580Y-78569302D01*
X153837299Y-78681547D01*
X153679727Y-78825193D01*
X153551232Y-78995346D01*
X153456196Y-79186205D01*
X153456196Y-79186207D01*
X153397844Y-79391289D01*
X153378171Y-79603599D01*
X153378171Y-79603600D01*
X153397844Y-79815910D01*
X153456196Y-80020992D01*
X153456196Y-80020994D01*
X153551232Y-80211853D01*
X153669275Y-80368165D01*
X153679728Y-80382007D01*
X153837298Y-80525652D01*
X154018581Y-80637898D01*
X154217402Y-80714921D01*
X154426990Y-80754100D01*
X154426992Y-80754100D01*
X154640208Y-80754100D01*
X154640210Y-80754100D01*
X154849798Y-80714921D01*
X155048619Y-80637898D01*
X155229902Y-80525652D01*
X155387472Y-80382007D01*
X155515966Y-80211855D01*
X155515967Y-80211853D01*
X155611003Y-80020994D01*
X155611003Y-80020993D01*
X155611005Y-80020989D01*
X155669356Y-79815910D01*
X155689029Y-79603600D01*
X155669356Y-79391290D01*
X155611005Y-79186211D01*
X155611003Y-79186206D01*
X155611003Y-79186205D01*
X155515967Y-78995346D01*
X155387472Y-78825193D01*
X155351079Y-78792016D01*
X155229902Y-78681548D01*
X155048619Y-78569302D01*
X155048617Y-78569301D01*
X154949208Y-78530790D01*
X154849798Y-78492279D01*
X154652985Y-78455488D01*
X154590706Y-78423821D01*
X154555433Y-78363508D01*
X154558367Y-78293700D01*
X154598576Y-78236560D01*
X154652984Y-78211711D01*
X154849798Y-78174921D01*
X155048619Y-78097898D01*
X155229902Y-77985652D01*
X155387472Y-77842007D01*
X155515966Y-77671855D01*
X155515967Y-77671853D01*
X155611003Y-77480994D01*
X155611003Y-77480993D01*
X155611005Y-77480989D01*
X155669356Y-77275910D01*
X155689029Y-77063600D01*
X155669356Y-76851290D01*
X155611005Y-76646211D01*
X155611003Y-76646206D01*
X155611003Y-76646205D01*
X155515967Y-76455346D01*
X155387472Y-76285193D01*
X155351079Y-76252016D01*
X155229902Y-76141548D01*
X155048619Y-76029302D01*
X155048617Y-76029301D01*
X154949208Y-75990790D01*
X154849798Y-75952279D01*
X154677056Y-75919987D01*
X154614776Y-75888319D01*
X154579503Y-75828007D01*
X154582437Y-75758199D01*
X154622646Y-75701059D01*
X154687364Y-75674728D01*
X154699834Y-75674099D01*
X155315118Y-75674099D01*
X155408904Y-75659246D01*
X155521942Y-75601650D01*
X155611650Y-75511942D01*
X155669246Y-75398904D01*
X155669246Y-75398902D01*
X155669247Y-75398901D01*
X155684099Y-75305124D01*
X155684100Y-75305119D01*
X155684099Y-74523599D01*
X160998171Y-74523599D01*
X160998171Y-74523600D01*
X161017844Y-74735910D01*
X161076196Y-74940992D01*
X161076196Y-74940994D01*
X161171232Y-75131853D01*
X161289275Y-75288165D01*
X161299728Y-75302007D01*
X161457298Y-75445652D01*
X161638581Y-75557898D01*
X161837402Y-75634921D01*
X162034213Y-75671711D01*
X162096493Y-75703379D01*
X162131766Y-75763692D01*
X162128832Y-75833500D01*
X162088623Y-75890640D01*
X162034213Y-75915488D01*
X161837402Y-75952279D01*
X161837399Y-75952279D01*
X161837399Y-75952280D01*
X161638582Y-76029301D01*
X161638580Y-76029302D01*
X161457299Y-76141547D01*
X161299727Y-76285193D01*
X161171232Y-76455346D01*
X161076196Y-76646205D01*
X161076196Y-76646207D01*
X161017844Y-76851289D01*
X160998171Y-77063599D01*
X160998171Y-77063600D01*
X161017844Y-77275910D01*
X161076196Y-77480992D01*
X161076196Y-77480994D01*
X161171232Y-77671853D01*
X161289275Y-77828165D01*
X161299728Y-77842007D01*
X161457298Y-77985652D01*
X161638581Y-78097898D01*
X161837402Y-78174921D01*
X162034213Y-78211711D01*
X162096493Y-78243379D01*
X162131766Y-78303692D01*
X162128832Y-78373500D01*
X162088623Y-78430640D01*
X162034213Y-78455488D01*
X161837402Y-78492279D01*
X161837399Y-78492279D01*
X161837399Y-78492280D01*
X161638582Y-78569301D01*
X161638580Y-78569302D01*
X161457299Y-78681547D01*
X161299727Y-78825193D01*
X161171232Y-78995346D01*
X161076196Y-79186205D01*
X161076196Y-79186207D01*
X161017844Y-79391289D01*
X160998171Y-79603599D01*
X160998171Y-79603600D01*
X161017844Y-79815910D01*
X161076196Y-80020992D01*
X161076196Y-80020994D01*
X161171232Y-80211853D01*
X161289275Y-80368165D01*
X161299728Y-80382007D01*
X161457298Y-80525652D01*
X161638581Y-80637898D01*
X161837402Y-80714921D01*
X162034213Y-80751711D01*
X162096493Y-80783379D01*
X162131766Y-80843692D01*
X162128832Y-80913500D01*
X162088623Y-80970640D01*
X162034213Y-80995488D01*
X161837402Y-81032279D01*
X161837399Y-81032279D01*
X161837399Y-81032280D01*
X161638582Y-81109301D01*
X161638580Y-81109302D01*
X161457299Y-81221547D01*
X161299727Y-81365193D01*
X161171232Y-81535346D01*
X161076196Y-81726205D01*
X161076196Y-81726207D01*
X161076195Y-81726211D01*
X161017844Y-81931290D01*
X160998171Y-82143600D01*
X161017844Y-82355910D01*
X161028737Y-82394196D01*
X161076196Y-82560992D01*
X161076196Y-82560994D01*
X161171232Y-82751853D01*
X161289275Y-82908165D01*
X161299728Y-82922007D01*
X161457298Y-83065652D01*
X161457300Y-83065653D01*
X161457301Y-83065654D01*
X161594377Y-83150528D01*
X161641013Y-83202556D01*
X161653100Y-83255955D01*
X161653100Y-113589491D01*
X161687208Y-113716787D01*
X161720154Y-113773850D01*
X161753100Y-113830914D01*
X161753102Y-113830916D01*
X169955506Y-122033320D01*
X169988991Y-122094643D01*
X169984007Y-122164335D01*
X169982386Y-122168453D01*
X169907950Y-122348160D01*
X169907947Y-122348170D01*
X169869500Y-122541456D01*
X169869500Y-122541459D01*
X169869500Y-122738541D01*
X169869500Y-122738543D01*
X169869499Y-122738543D01*
X169907947Y-122931829D01*
X169907950Y-122931839D01*
X169983364Y-123113907D01*
X169983371Y-123113920D01*
X170092860Y-123277781D01*
X170092863Y-123277785D01*
X170232214Y-123417136D01*
X170232218Y-123417139D01*
X170396079Y-123526628D01*
X170396092Y-123526635D01*
X170578160Y-123602049D01*
X170578165Y-123602051D01*
X170578169Y-123602051D01*
X170578170Y-123602052D01*
X170771456Y-123640500D01*
X170771459Y-123640500D01*
X171768543Y-123640500D01*
X171898582Y-123614632D01*
X171961835Y-123602051D01*
X172143914Y-123526632D01*
X172307782Y-123417139D01*
X172447139Y-123277782D01*
X172556632Y-123113914D01*
X172632051Y-122931835D01*
X172670500Y-122738541D01*
X172670500Y-122541459D01*
X172670500Y-122541456D01*
X172632052Y-122348170D01*
X172632051Y-122348169D01*
X172632051Y-122348165D01*
X172621905Y-122323669D01*
X172556635Y-122166092D01*
X172556628Y-122166079D01*
X172447139Y-122002218D01*
X172447136Y-122002214D01*
X172307785Y-121862863D01*
X172307781Y-121862860D01*
X172143920Y-121753371D01*
X172143907Y-121753364D01*
X171961839Y-121677950D01*
X171961829Y-121677947D01*
X171768543Y-121639500D01*
X171768541Y-121639500D01*
X171028676Y-121639500D01*
X170961637Y-121619815D01*
X170940995Y-121603181D01*
X170644639Y-121306825D01*
X170611154Y-121245502D01*
X170616138Y-121175810D01*
X170658010Y-121119877D01*
X170723474Y-121095460D01*
X170756513Y-121097527D01*
X170771458Y-121100500D01*
X170771459Y-121100500D01*
X171768543Y-121100500D01*
X171898582Y-121074632D01*
X171961835Y-121062051D01*
X172143914Y-120986632D01*
X172307782Y-120877139D01*
X172447139Y-120737782D01*
X172556632Y-120573914D01*
X172632051Y-120391835D01*
X172653684Y-120283082D01*
X172670500Y-120198543D01*
X172670500Y-120001456D01*
X172632052Y-119808170D01*
X172632051Y-119808169D01*
X172632051Y-119808165D01*
X172616507Y-119770637D01*
X172556635Y-119626092D01*
X172556628Y-119626079D01*
X172447139Y-119462218D01*
X172447136Y-119462214D01*
X172307785Y-119322863D01*
X172307781Y-119322860D01*
X172143920Y-119213371D01*
X172143907Y-119213364D01*
X171961839Y-119137950D01*
X171961829Y-119137947D01*
X171768543Y-119099500D01*
X171768541Y-119099500D01*
X170771459Y-119099500D01*
X170771457Y-119099500D01*
X170578170Y-119137947D01*
X170578160Y-119137950D01*
X170396092Y-119213364D01*
X170396079Y-119213371D01*
X170232218Y-119322860D01*
X170232214Y-119322863D01*
X170092863Y-119462214D01*
X170092860Y-119462218D01*
X169983371Y-119626079D01*
X169983364Y-119626092D01*
X169907950Y-119808160D01*
X169907947Y-119808170D01*
X169869500Y-120001456D01*
X169869500Y-120198542D01*
X169872473Y-120213490D01*
X169866244Y-120283082D01*
X169823380Y-120338258D01*
X169757489Y-120361501D01*
X169689493Y-120345432D01*
X169663174Y-120325360D01*
X166996357Y-117658543D01*
X169869499Y-117658543D01*
X169907947Y-117851829D01*
X169907950Y-117851839D01*
X169983364Y-118033907D01*
X169983371Y-118033920D01*
X170092860Y-118197781D01*
X170092863Y-118197785D01*
X170232214Y-118337136D01*
X170232218Y-118337139D01*
X170396079Y-118446628D01*
X170396092Y-118446635D01*
X170578160Y-118522049D01*
X170578165Y-118522051D01*
X170578169Y-118522051D01*
X170578170Y-118522052D01*
X170771456Y-118560500D01*
X170771459Y-118560500D01*
X171768543Y-118560500D01*
X171898582Y-118534632D01*
X171961835Y-118522051D01*
X172143914Y-118446632D01*
X172307782Y-118337139D01*
X172447139Y-118197782D01*
X172556632Y-118033914D01*
X172632051Y-117851835D01*
X172670500Y-117658541D01*
X172670500Y-117461459D01*
X172670500Y-117461456D01*
X172632052Y-117268170D01*
X172632051Y-117268169D01*
X172632051Y-117268165D01*
X172632049Y-117268160D01*
X172556635Y-117086092D01*
X172556628Y-117086079D01*
X172447139Y-116922218D01*
X172447136Y-116922214D01*
X172307785Y-116782863D01*
X172307781Y-116782860D01*
X172143920Y-116673371D01*
X172143907Y-116673364D01*
X171961839Y-116597950D01*
X171961829Y-116597947D01*
X171768543Y-116559500D01*
X171768541Y-116559500D01*
X170771459Y-116559500D01*
X170771457Y-116559500D01*
X170578170Y-116597947D01*
X170578160Y-116597950D01*
X170396092Y-116673364D01*
X170396079Y-116673371D01*
X170232218Y-116782860D01*
X170232214Y-116782863D01*
X170092863Y-116922214D01*
X170092860Y-116922218D01*
X169983371Y-117086079D01*
X169983364Y-117086092D01*
X169907950Y-117268160D01*
X169907947Y-117268170D01*
X169869500Y-117461456D01*
X169869500Y-117461459D01*
X169869500Y-117658541D01*
X169869500Y-117658543D01*
X169869499Y-117658543D01*
X166996357Y-117658543D01*
X164456357Y-115118543D01*
X169869499Y-115118543D01*
X169907947Y-115311829D01*
X169907950Y-115311839D01*
X169983364Y-115493907D01*
X169983371Y-115493920D01*
X170092860Y-115657781D01*
X170092863Y-115657785D01*
X170232214Y-115797136D01*
X170232218Y-115797139D01*
X170396079Y-115906628D01*
X170396092Y-115906635D01*
X170578160Y-115982049D01*
X170578165Y-115982051D01*
X170578169Y-115982051D01*
X170578170Y-115982052D01*
X170771456Y-116020500D01*
X170771459Y-116020500D01*
X171768543Y-116020500D01*
X171898582Y-115994632D01*
X171961835Y-115982051D01*
X172143914Y-115906632D01*
X172307782Y-115797139D01*
X172447139Y-115657782D01*
X172556632Y-115493914D01*
X172632051Y-115311835D01*
X172670500Y-115118541D01*
X172670500Y-114921459D01*
X172670500Y-114921456D01*
X172632052Y-114728170D01*
X172632051Y-114728169D01*
X172632051Y-114728165D01*
X172632049Y-114728160D01*
X172556635Y-114546092D01*
X172556628Y-114546079D01*
X172447139Y-114382218D01*
X172447136Y-114382214D01*
X172307785Y-114242863D01*
X172307781Y-114242860D01*
X172143920Y-114133371D01*
X172143907Y-114133364D01*
X171961839Y-114057950D01*
X171961829Y-114057947D01*
X171768543Y-114019500D01*
X171768541Y-114019500D01*
X170771459Y-114019500D01*
X170771457Y-114019500D01*
X170578170Y-114057947D01*
X170578160Y-114057950D01*
X170396092Y-114133364D01*
X170396079Y-114133371D01*
X170232218Y-114242860D01*
X170232214Y-114242863D01*
X170092863Y-114382214D01*
X170092860Y-114382218D01*
X169983371Y-114546079D01*
X169983364Y-114546092D01*
X169907950Y-114728160D01*
X169907947Y-114728170D01*
X169869500Y-114921456D01*
X169869500Y-114921459D01*
X169869500Y-115118541D01*
X169869500Y-115118543D01*
X169869499Y-115118543D01*
X164456357Y-115118543D01*
X162690419Y-113352605D01*
X162656934Y-113291282D01*
X162654100Y-113264924D01*
X162654100Y-112578543D01*
X169869499Y-112578543D01*
X169907947Y-112771829D01*
X169907950Y-112771839D01*
X169983364Y-112953907D01*
X169983371Y-112953920D01*
X170092860Y-113117781D01*
X170092863Y-113117785D01*
X170232214Y-113257136D01*
X170232218Y-113257139D01*
X170396079Y-113366628D01*
X170396092Y-113366635D01*
X170578160Y-113442049D01*
X170578165Y-113442051D01*
X170578169Y-113442051D01*
X170578170Y-113442052D01*
X170771456Y-113480500D01*
X170771459Y-113480500D01*
X171768543Y-113480500D01*
X171898582Y-113454632D01*
X171961835Y-113442051D01*
X172143914Y-113366632D01*
X172307782Y-113257139D01*
X172447139Y-113117782D01*
X172556632Y-112953914D01*
X172632051Y-112771835D01*
X172644632Y-112708582D01*
X172670500Y-112578543D01*
X172670500Y-112381456D01*
X172632052Y-112188170D01*
X172632051Y-112188169D01*
X172632051Y-112188165D01*
X172567086Y-112031324D01*
X172556635Y-112006092D01*
X172556628Y-112006079D01*
X172447139Y-111842218D01*
X172447136Y-111842214D01*
X172307785Y-111702863D01*
X172307781Y-111702860D01*
X172143920Y-111593371D01*
X172143907Y-111593364D01*
X171961839Y-111517950D01*
X171961829Y-111517947D01*
X171768543Y-111479500D01*
X171768541Y-111479500D01*
X170771459Y-111479500D01*
X170771457Y-111479500D01*
X170578170Y-111517947D01*
X170578160Y-111517950D01*
X170396092Y-111593364D01*
X170396079Y-111593371D01*
X170232218Y-111702860D01*
X170232214Y-111702863D01*
X170092863Y-111842214D01*
X170092860Y-111842218D01*
X169983371Y-112006079D01*
X169983364Y-112006092D01*
X169907950Y-112188160D01*
X169907947Y-112188170D01*
X169869500Y-112381456D01*
X169869500Y-112381459D01*
X169869500Y-112578541D01*
X169869500Y-112578543D01*
X169869499Y-112578543D01*
X162654100Y-112578543D01*
X162654100Y-109689999D01*
X169795884Y-109689999D01*
X169795885Y-109690000D01*
X170954314Y-109690000D01*
X170949920Y-109694394D01*
X170897259Y-109785606D01*
X170870000Y-109887339D01*
X170870000Y-109992661D01*
X170897259Y-110094394D01*
X170949920Y-110185606D01*
X170954314Y-110190000D01*
X169795885Y-110190000D01*
X169797085Y-110197584D01*
X169850591Y-110362255D01*
X169929195Y-110516524D01*
X170030967Y-110656602D01*
X170153397Y-110779032D01*
X170293475Y-110880804D01*
X170447742Y-110959408D01*
X170612415Y-111012914D01*
X170783429Y-111040000D01*
X171020000Y-111040000D01*
X171020000Y-110255686D01*
X171024394Y-110260080D01*
X171115606Y-110312741D01*
X171217339Y-110340000D01*
X171322661Y-110340000D01*
X171424394Y-110312741D01*
X171515606Y-110260080D01*
X171520000Y-110255686D01*
X171520000Y-111040000D01*
X171756571Y-111040000D01*
X171927584Y-111012914D01*
X172092257Y-110959408D01*
X172246524Y-110880804D01*
X172386602Y-110779032D01*
X172509032Y-110656602D01*
X172610804Y-110516524D01*
X172689408Y-110362255D01*
X172742914Y-110197584D01*
X172744115Y-110190000D01*
X171585686Y-110190000D01*
X171590080Y-110185606D01*
X171642741Y-110094394D01*
X171670000Y-109992661D01*
X171670000Y-109887339D01*
X171642741Y-109785606D01*
X171590080Y-109694394D01*
X171585686Y-109690000D01*
X172800824Y-109690000D01*
X172867863Y-109709685D01*
X172888505Y-109726319D01*
X174183181Y-111020995D01*
X174216666Y-111082318D01*
X174219500Y-111108676D01*
X174219500Y-122815891D01*
X174225275Y-122837444D01*
X174229500Y-122869537D01*
X174229500Y-124191517D01*
X174233687Y-124217950D01*
X174244354Y-124285304D01*
X174301950Y-124398342D01*
X174301952Y-124398344D01*
X174301954Y-124398347D01*
X174391652Y-124488045D01*
X174391654Y-124488046D01*
X174391658Y-124488050D01*
X174497968Y-124542218D01*
X174504698Y-124545647D01*
X174598475Y-124560499D01*
X174598481Y-124560500D01*
X175213758Y-124560499D01*
X175280795Y-124580183D01*
X175326550Y-124632987D01*
X175336494Y-124702146D01*
X175307469Y-124765702D01*
X175248691Y-124803476D01*
X175236542Y-124806388D01*
X175190039Y-124815081D01*
X175063802Y-124838679D01*
X175063800Y-124838679D01*
X175063798Y-124838680D01*
X174864982Y-124915701D01*
X174864980Y-124915702D01*
X174683699Y-125027947D01*
X174526127Y-125171593D01*
X174397632Y-125341746D01*
X174302596Y-125532605D01*
X174302596Y-125532607D01*
X174244244Y-125737689D01*
X174224571Y-125949999D01*
X174224571Y-125950000D01*
X174244244Y-126162310D01*
X174302596Y-126367392D01*
X174302596Y-126367394D01*
X174397632Y-126558253D01*
X174526127Y-126728406D01*
X174526128Y-126728407D01*
X174683698Y-126872052D01*
X174864981Y-126984298D01*
X175063802Y-127061321D01*
X175260613Y-127098111D01*
X175322893Y-127129779D01*
X175358166Y-127190092D01*
X175355232Y-127259900D01*
X175315023Y-127317040D01*
X175260613Y-127341888D01*
X175063802Y-127378679D01*
X175063799Y-127378679D01*
X175063799Y-127378680D01*
X174864982Y-127455701D01*
X174864980Y-127455702D01*
X174683699Y-127567947D01*
X174526127Y-127711593D01*
X174397632Y-127881746D01*
X174302596Y-128072605D01*
X174302596Y-128072607D01*
X174244244Y-128277689D01*
X174236823Y-128357782D01*
X174224571Y-128490000D01*
X174244244Y-128702310D01*
X174270023Y-128792914D01*
X174302596Y-128907392D01*
X174302596Y-128907394D01*
X174397632Y-129098253D01*
X174526075Y-129268337D01*
X174526128Y-129268407D01*
X174683698Y-129412052D01*
X174864981Y-129524298D01*
X175063802Y-129601321D01*
X175260613Y-129638111D01*
X175322893Y-129669779D01*
X175358166Y-129730092D01*
X175355232Y-129799900D01*
X175315023Y-129857040D01*
X175260613Y-129881888D01*
X175063802Y-129918679D01*
X175063799Y-129918679D01*
X175063799Y-129918680D01*
X174864982Y-129995701D01*
X174864980Y-129995702D01*
X174683699Y-130107947D01*
X174526127Y-130251593D01*
X174397632Y-130421746D01*
X174302596Y-130612605D01*
X174302596Y-130612607D01*
X174244244Y-130817689D01*
X174224571Y-131029999D01*
X174224571Y-131030000D01*
X174244244Y-131242310D01*
X174302596Y-131447392D01*
X174302596Y-131447394D01*
X174397632Y-131638253D01*
X174526127Y-131808406D01*
X174526128Y-131808407D01*
X174683698Y-131952052D01*
X174864981Y-132064298D01*
X175063802Y-132141321D01*
X175260613Y-132178111D01*
X175322893Y-132209779D01*
X175358166Y-132270092D01*
X175355232Y-132339900D01*
X175315023Y-132397040D01*
X175260613Y-132421888D01*
X175063802Y-132458679D01*
X175063799Y-132458679D01*
X175063799Y-132458680D01*
X174864982Y-132535701D01*
X174864980Y-132535702D01*
X174683699Y-132647947D01*
X174526127Y-132791593D01*
X174397632Y-132961746D01*
X174302596Y-133152605D01*
X174302596Y-133152607D01*
X174244244Y-133357689D01*
X174224571Y-133569999D01*
X174224571Y-133570000D01*
X174244244Y-133782310D01*
X174302596Y-133987392D01*
X174302596Y-133987394D01*
X174397632Y-134178253D01*
X174526127Y-134348406D01*
X174526128Y-134348407D01*
X174683698Y-134492052D01*
X174864981Y-134604298D01*
X175063802Y-134681321D01*
X175260613Y-134718111D01*
X175322893Y-134749779D01*
X175358166Y-134810092D01*
X175355232Y-134879900D01*
X175315023Y-134937040D01*
X175260613Y-134961888D01*
X175063802Y-134998679D01*
X175063799Y-134998679D01*
X175063799Y-134998680D01*
X174864982Y-135075701D01*
X174864980Y-135075702D01*
X174683699Y-135187947D01*
X174526127Y-135331593D01*
X174397632Y-135501746D01*
X174302596Y-135692605D01*
X174302596Y-135692607D01*
X174244244Y-135897689D01*
X174224571Y-136109999D01*
X174224571Y-136110000D01*
X174244244Y-136322310D01*
X174302596Y-136527392D01*
X174302596Y-136527394D01*
X174397632Y-136718253D01*
X174526127Y-136888406D01*
X174526128Y-136888407D01*
X174683698Y-137032052D01*
X174864981Y-137144298D01*
X175063802Y-137221321D01*
X175260613Y-137258111D01*
X175322893Y-137289779D01*
X175358166Y-137350092D01*
X175355232Y-137419900D01*
X175315023Y-137477040D01*
X175260613Y-137501888D01*
X175063802Y-137538679D01*
X175063799Y-137538679D01*
X175063799Y-137538680D01*
X174864982Y-137615701D01*
X174864980Y-137615702D01*
X174683699Y-137727947D01*
X174526127Y-137871593D01*
X174397632Y-138041746D01*
X174302596Y-138232605D01*
X174302596Y-138232607D01*
X174244244Y-138437689D01*
X174224571Y-138649999D01*
X174224571Y-138650000D01*
X174244244Y-138862310D01*
X174302596Y-139067392D01*
X174302596Y-139067394D01*
X174397632Y-139258253D01*
X174526127Y-139428406D01*
X174526128Y-139428407D01*
X174683698Y-139572052D01*
X174864981Y-139684298D01*
X175063802Y-139761321D01*
X175260613Y-139798111D01*
X175322893Y-139829779D01*
X175358166Y-139890092D01*
X175355232Y-139959900D01*
X175315023Y-140017040D01*
X175260613Y-140041888D01*
X175063802Y-140078679D01*
X175063799Y-140078679D01*
X175063799Y-140078680D01*
X174864982Y-140155701D01*
X174864980Y-140155702D01*
X174683699Y-140267947D01*
X174526127Y-140411593D01*
X174397632Y-140581746D01*
X174302596Y-140772605D01*
X174302596Y-140772607D01*
X174244244Y-140977689D01*
X174224571Y-141189999D01*
X174224571Y-141190000D01*
X174244244Y-141402310D01*
X174302596Y-141607392D01*
X174302596Y-141607394D01*
X174397632Y-141798253D01*
X174519402Y-141959501D01*
X174526128Y-141968407D01*
X174683698Y-142112052D01*
X174864981Y-142224298D01*
X175063802Y-142301321D01*
X175273390Y-142340500D01*
X175273392Y-142340500D01*
X175486608Y-142340500D01*
X175486610Y-142340500D01*
X175696198Y-142301321D01*
X175895019Y-142224298D01*
X176076302Y-142112052D01*
X176233872Y-141968407D01*
X176362366Y-141798255D01*
X176457405Y-141607389D01*
X176515756Y-141402310D01*
X176535429Y-141190000D01*
X176515756Y-140977690D01*
X176457405Y-140772611D01*
X176457403Y-140772606D01*
X176457403Y-140772605D01*
X176362367Y-140581746D01*
X176233872Y-140411593D01*
X176134997Y-140321456D01*
X176076302Y-140267948D01*
X175895019Y-140155702D01*
X175895017Y-140155701D01*
X175759128Y-140103058D01*
X175696198Y-140078679D01*
X175499385Y-140041888D01*
X175437106Y-140010221D01*
X175401833Y-139949908D01*
X175404767Y-139880100D01*
X175444976Y-139822960D01*
X175499384Y-139798111D01*
X175696198Y-139761321D01*
X175895019Y-139684298D01*
X176076302Y-139572052D01*
X176233872Y-139428407D01*
X176362366Y-139258255D01*
X176457405Y-139067389D01*
X176515756Y-138862310D01*
X176535429Y-138650000D01*
X176515756Y-138437690D01*
X176457405Y-138232611D01*
X176457403Y-138232606D01*
X176457403Y-138232605D01*
X176362367Y-138041746D01*
X176233872Y-137871593D01*
X176076302Y-137727948D01*
X175895019Y-137615702D01*
X175895017Y-137615701D01*
X175759128Y-137563058D01*
X175696198Y-137538679D01*
X175499385Y-137501888D01*
X175437106Y-137470221D01*
X175401833Y-137409908D01*
X175404767Y-137340100D01*
X175444976Y-137282960D01*
X175499384Y-137258111D01*
X175696198Y-137221321D01*
X175895019Y-137144298D01*
X176076302Y-137032052D01*
X176233872Y-136888407D01*
X176362366Y-136718255D01*
X176457405Y-136527389D01*
X176515756Y-136322310D01*
X176535429Y-136110000D01*
X176515756Y-135897690D01*
X176457405Y-135692611D01*
X176457403Y-135692606D01*
X176457403Y-135692605D01*
X176362367Y-135501746D01*
X176233872Y-135331593D01*
X176134997Y-135241456D01*
X176076302Y-135187948D01*
X175895019Y-135075702D01*
X175895017Y-135075701D01*
X175753392Y-135020836D01*
X175696198Y-134998679D01*
X175499385Y-134961888D01*
X175437106Y-134930221D01*
X175401833Y-134869908D01*
X175404767Y-134800100D01*
X175444976Y-134742960D01*
X175499384Y-134718111D01*
X175696198Y-134681321D01*
X175895019Y-134604298D01*
X176076302Y-134492052D01*
X176233872Y-134348407D01*
X176362366Y-134178255D01*
X176457405Y-133987389D01*
X176515756Y-133782310D01*
X176535429Y-133570000D01*
X176515756Y-133357690D01*
X176457405Y-133152611D01*
X176457403Y-133152606D01*
X176457403Y-133152605D01*
X176362367Y-132961746D01*
X176233872Y-132791593D01*
X176134997Y-132701456D01*
X176076302Y-132647948D01*
X175895019Y-132535702D01*
X175895017Y-132535701D01*
X175753392Y-132480836D01*
X175696198Y-132458679D01*
X175499385Y-132421888D01*
X175437106Y-132390221D01*
X175401833Y-132329908D01*
X175404767Y-132260100D01*
X175444976Y-132202960D01*
X175499384Y-132178111D01*
X175696198Y-132141321D01*
X175895019Y-132064298D01*
X176076302Y-131952052D01*
X176233872Y-131808407D01*
X176362366Y-131638255D01*
X176457405Y-131447389D01*
X176515756Y-131242310D01*
X176535429Y-131030000D01*
X176515756Y-130817690D01*
X176457405Y-130612611D01*
X176457403Y-130612606D01*
X176457403Y-130612605D01*
X176362367Y-130421746D01*
X176233872Y-130251593D01*
X176134997Y-130161456D01*
X176076302Y-130107948D01*
X175895019Y-129995702D01*
X175895017Y-129995701D01*
X175753392Y-129940836D01*
X175696198Y-129918679D01*
X175499385Y-129881888D01*
X175437106Y-129850221D01*
X175401833Y-129789908D01*
X175404767Y-129720100D01*
X175444976Y-129662960D01*
X175499384Y-129638111D01*
X175696198Y-129601321D01*
X175895019Y-129524298D01*
X176076302Y-129412052D01*
X176233872Y-129268407D01*
X176362366Y-129098255D01*
X176457405Y-128907389D01*
X176515756Y-128702310D01*
X176535429Y-128490000D01*
X176515756Y-128277690D01*
X176457405Y-128072611D01*
X176457403Y-128072606D01*
X176457403Y-128072605D01*
X176362367Y-127881746D01*
X176233872Y-127711593D01*
X176134997Y-127621456D01*
X176076302Y-127567948D01*
X175895019Y-127455702D01*
X175895017Y-127455701D01*
X175751028Y-127399920D01*
X175696198Y-127378679D01*
X175499385Y-127341888D01*
X175437106Y-127310221D01*
X175401833Y-127249908D01*
X175404767Y-127180100D01*
X175444976Y-127122960D01*
X175499384Y-127098111D01*
X175696198Y-127061321D01*
X175895019Y-126984298D01*
X176076302Y-126872052D01*
X176233872Y-126728407D01*
X176362366Y-126558255D01*
X176456092Y-126370026D01*
X176457403Y-126367394D01*
X176457403Y-126367393D01*
X176457405Y-126367389D01*
X176515756Y-126162310D01*
X176535429Y-125950000D01*
X176515756Y-125737690D01*
X176457405Y-125532611D01*
X176457403Y-125532606D01*
X176457403Y-125532605D01*
X176362367Y-125341746D01*
X176233872Y-125171593D01*
X176134997Y-125081456D01*
X176076302Y-125027948D01*
X175895019Y-124915702D01*
X175895017Y-124915701D01*
X175753392Y-124860836D01*
X175696198Y-124838679D01*
X175523456Y-124806387D01*
X175461176Y-124774719D01*
X175425903Y-124714407D01*
X175428837Y-124644599D01*
X175469046Y-124587459D01*
X175533764Y-124561128D01*
X175546234Y-124560499D01*
X176161518Y-124560499D01*
X176255304Y-124545646D01*
X176368342Y-124488050D01*
X176458050Y-124398342D01*
X176515646Y-124285304D01*
X176515646Y-124285302D01*
X176515647Y-124285301D01*
X176530499Y-124191524D01*
X176530500Y-124191519D01*
X176530499Y-123027674D01*
X176550184Y-122960636D01*
X176602987Y-122914881D01*
X176672146Y-122904937D01*
X176735702Y-122933962D01*
X176742180Y-122939994D01*
X181860480Y-128058294D01*
X181893965Y-128119617D01*
X181892065Y-128179909D01*
X181864244Y-128277688D01*
X181864243Y-128277690D01*
X181849519Y-128436602D01*
X181844571Y-128490000D01*
X181864244Y-128702310D01*
X181890023Y-128792914D01*
X181922596Y-128907392D01*
X181922596Y-128907394D01*
X182017632Y-129098253D01*
X182146075Y-129268337D01*
X182146128Y-129268407D01*
X182303698Y-129412052D01*
X182484981Y-129524298D01*
X182683802Y-129601321D01*
X182880613Y-129638111D01*
X182942893Y-129669779D01*
X182978166Y-129730092D01*
X182975232Y-129799900D01*
X182935023Y-129857040D01*
X182880613Y-129881888D01*
X182683802Y-129918679D01*
X182683799Y-129918679D01*
X182683799Y-129918680D01*
X182484982Y-129995701D01*
X182484980Y-129995702D01*
X182303699Y-130107947D01*
X182146127Y-130251593D01*
X182017632Y-130421746D01*
X181922596Y-130612605D01*
X181922596Y-130612607D01*
X181864244Y-130817689D01*
X181844571Y-131029999D01*
X181844571Y-131030000D01*
X181864244Y-131242310D01*
X181922596Y-131447392D01*
X181922596Y-131447394D01*
X182017632Y-131638253D01*
X182146127Y-131808406D01*
X182146128Y-131808407D01*
X182303698Y-131952052D01*
X182484981Y-132064298D01*
X182683802Y-132141321D01*
X182880613Y-132178111D01*
X182942893Y-132209779D01*
X182978166Y-132270092D01*
X182975232Y-132339900D01*
X182935023Y-132397040D01*
X182880613Y-132421888D01*
X182683802Y-132458679D01*
X182683799Y-132458679D01*
X182683799Y-132458680D01*
X182484982Y-132535701D01*
X182484980Y-132535702D01*
X182303699Y-132647947D01*
X182146127Y-132791593D01*
X182017632Y-132961746D01*
X181922596Y-133152605D01*
X181922596Y-133152607D01*
X181864244Y-133357689D01*
X181844571Y-133569999D01*
X181844571Y-133570000D01*
X181864244Y-133782310D01*
X181922596Y-133987392D01*
X181922596Y-133987394D01*
X182017632Y-134178253D01*
X182146127Y-134348406D01*
X182146128Y-134348407D01*
X182303698Y-134492052D01*
X182484981Y-134604298D01*
X182683802Y-134681321D01*
X182880613Y-134718111D01*
X182942893Y-134749779D01*
X182978166Y-134810092D01*
X182975232Y-134879900D01*
X182935023Y-134937040D01*
X182880613Y-134961888D01*
X182683802Y-134998679D01*
X182683799Y-134998679D01*
X182683799Y-134998680D01*
X182484982Y-135075701D01*
X182484980Y-135075702D01*
X182303699Y-135187947D01*
X182146127Y-135331593D01*
X182017632Y-135501746D01*
X181922596Y-135692605D01*
X181922596Y-135692607D01*
X181864244Y-135897689D01*
X181844571Y-136109999D01*
X181844571Y-136110000D01*
X181864244Y-136322310D01*
X181922596Y-136527392D01*
X181922596Y-136527394D01*
X182017632Y-136718253D01*
X182146127Y-136888406D01*
X182146128Y-136888407D01*
X182303698Y-137032052D01*
X182484981Y-137144298D01*
X182683802Y-137221321D01*
X182880613Y-137258111D01*
X182942893Y-137289779D01*
X182978166Y-137350092D01*
X182975232Y-137419900D01*
X182935023Y-137477040D01*
X182880613Y-137501888D01*
X182683802Y-137538679D01*
X182683799Y-137538679D01*
X182683799Y-137538680D01*
X182484982Y-137615701D01*
X182484980Y-137615702D01*
X182303699Y-137727947D01*
X182146127Y-137871593D01*
X182017632Y-138041746D01*
X181922596Y-138232605D01*
X181922596Y-138232607D01*
X181864244Y-138437689D01*
X181844571Y-138649999D01*
X181844571Y-138650000D01*
X181864244Y-138862310D01*
X181922596Y-139067392D01*
X181922596Y-139067394D01*
X182017632Y-139258253D01*
X182146127Y-139428406D01*
X182146128Y-139428407D01*
X182303698Y-139572052D01*
X182484981Y-139684298D01*
X182683802Y-139761321D01*
X182880613Y-139798111D01*
X182942893Y-139829779D01*
X182978166Y-139890092D01*
X182975232Y-139959900D01*
X182935023Y-140017040D01*
X182880613Y-140041888D01*
X182683802Y-140078679D01*
X182683799Y-140078679D01*
X182683799Y-140078680D01*
X182484982Y-140155701D01*
X182484980Y-140155702D01*
X182303699Y-140267947D01*
X182146127Y-140411593D01*
X182017632Y-140581746D01*
X181922596Y-140772605D01*
X181922596Y-140772607D01*
X181864244Y-140977689D01*
X181844571Y-141189999D01*
X181844571Y-141190000D01*
X181864244Y-141402310D01*
X181922596Y-141607392D01*
X181922596Y-141607394D01*
X182017632Y-141798253D01*
X182139402Y-141959501D01*
X182146128Y-141968407D01*
X182303698Y-142112052D01*
X182484981Y-142224298D01*
X182683802Y-142301321D01*
X182893390Y-142340500D01*
X182893392Y-142340500D01*
X183106608Y-142340500D01*
X183106610Y-142340500D01*
X183316198Y-142301321D01*
X183515019Y-142224298D01*
X183696302Y-142112052D01*
X183853872Y-141968407D01*
X183982366Y-141798255D01*
X184077405Y-141607389D01*
X184135756Y-141402310D01*
X184155429Y-141190000D01*
X184135756Y-140977690D01*
X184107934Y-140879908D01*
X184108520Y-140810042D01*
X184139517Y-140758295D01*
X184850500Y-140047314D01*
X184916392Y-139933186D01*
X184950500Y-139805892D01*
X184950500Y-139674107D01*
X184950500Y-89276608D01*
X184916392Y-89149314D01*
X184850500Y-89035186D01*
X184757314Y-88942000D01*
X181378230Y-85562916D01*
X181344745Y-85501593D01*
X181346135Y-85443148D01*
X181393207Y-85267477D01*
X181412277Y-85049500D01*
X181393207Y-84831523D01*
X181336575Y-84620170D01*
X181244102Y-84421862D01*
X181244100Y-84421859D01*
X181244099Y-84421857D01*
X181118599Y-84242624D01*
X181043950Y-84167975D01*
X180963877Y-84087902D01*
X180784639Y-83962398D01*
X180784640Y-83962398D01*
X180784638Y-83962397D01*
X180685484Y-83916161D01*
X180586330Y-83869925D01*
X180586326Y-83869924D01*
X180586322Y-83869922D01*
X180374977Y-83813293D01*
X180157002Y-83794223D01*
X180156998Y-83794223D01*
X180011682Y-83806936D01*
X179939023Y-83813293D01*
X179939020Y-83813293D01*
X179727677Y-83869922D01*
X179727670Y-83869924D01*
X179727670Y-83869925D01*
X179724391Y-83871454D01*
X179529361Y-83962398D01*
X179529357Y-83962400D01*
X179350121Y-84087902D01*
X179195402Y-84242621D01*
X179093074Y-84388762D01*
X179038497Y-84432387D01*
X178968999Y-84439581D01*
X178906644Y-84408058D01*
X178871230Y-84347828D01*
X178867499Y-84317639D01*
X178867499Y-84167982D01*
X178867498Y-84167975D01*
X178852646Y-84074196D01*
X178795050Y-83961158D01*
X178795046Y-83961154D01*
X178795045Y-83961152D01*
X178705347Y-83871454D01*
X178705344Y-83871452D01*
X178705342Y-83871450D01*
X178628517Y-83832305D01*
X178592301Y-83813852D01*
X178498524Y-83799000D01*
X176735482Y-83799000D01*
X176654519Y-83811823D01*
X176641696Y-83813854D01*
X176528658Y-83871450D01*
X176528657Y-83871451D01*
X176528652Y-83871454D01*
X176438954Y-83961152D01*
X176438951Y-83961157D01*
X176438950Y-83961158D01*
X176419751Y-83998837D01*
X176381352Y-84074198D01*
X176366500Y-84167975D01*
X176366500Y-85931017D01*
X176377292Y-85999157D01*
X176381354Y-86024804D01*
X176438950Y-86137842D01*
X176438952Y-86137844D01*
X176438954Y-86137847D01*
X176528652Y-86227545D01*
X176528654Y-86227546D01*
X176528658Y-86227550D01*
X176641696Y-86285146D01*
X176641698Y-86285147D01*
X176735475Y-86299999D01*
X176735481Y-86300000D01*
X178108323Y-86299999D01*
X178175362Y-86319684D01*
X178196004Y-86336318D01*
X183513181Y-91653495D01*
X183546666Y-91714818D01*
X183549500Y-91741176D01*
X183549500Y-122208042D01*
X183529815Y-122275081D01*
X183477011Y-122320836D01*
X183407853Y-122330780D01*
X183380707Y-122323669D01*
X183316203Y-122298680D01*
X183309821Y-122297487D01*
X183106610Y-122259500D01*
X182893390Y-122259500D01*
X182683802Y-122298679D01*
X182683798Y-122298680D01*
X182678167Y-122299733D01*
X182677845Y-122298010D01*
X182616045Y-122297487D01*
X182564305Y-122266491D01*
X178153819Y-117856005D01*
X178120334Y-117794682D01*
X178117500Y-117768324D01*
X178117500Y-105476517D01*
X178137185Y-105409478D01*
X178189989Y-105363723D01*
X178241495Y-105352517D01*
X178498555Y-105352510D01*
X178592340Y-105337654D01*
X178705377Y-105280055D01*
X178795082Y-105190344D01*
X178852675Y-105077305D01*
X178867526Y-104983519D01*
X178867521Y-104833857D01*
X178887203Y-104766819D01*
X178940006Y-104721062D01*
X179009164Y-104711117D01*
X179072721Y-104740139D01*
X179093092Y-104762727D01*
X179195402Y-104908840D01*
X179350123Y-105063561D01*
X179529361Y-105189065D01*
X179727670Y-105281538D01*
X179939023Y-105338170D01*
X180121926Y-105354171D01*
X180156998Y-105357240D01*
X180157000Y-105357240D01*
X180157002Y-105357240D01*
X180185254Y-105354768D01*
X180374977Y-105338170D01*
X180586330Y-105281538D01*
X180784639Y-105189065D01*
X180963877Y-105063561D01*
X181118598Y-104908840D01*
X181244102Y-104729602D01*
X181336575Y-104531293D01*
X181393207Y-104319940D01*
X181412277Y-104101963D01*
X181393207Y-103883986D01*
X181336575Y-103672633D01*
X181244102Y-103474325D01*
X181244100Y-103474322D01*
X181244099Y-103474320D01*
X181118599Y-103295087D01*
X181043994Y-103220482D01*
X180963877Y-103140365D01*
X180784639Y-103014861D01*
X180729093Y-102988959D01*
X180676655Y-102942787D01*
X180657500Y-102876578D01*
X180657500Y-102501110D01*
X180657500Y-102501108D01*
X180623392Y-102373814D01*
X180557500Y-102259686D01*
X180464314Y-102166500D01*
X179697314Y-101399500D01*
X179640250Y-101366554D01*
X179583187Y-101333608D01*
X179479038Y-101305702D01*
X179455892Y-101299500D01*
X176875892Y-101299500D01*
X176744107Y-101299500D01*
X176616812Y-101333608D01*
X176502686Y-101399500D01*
X176502683Y-101399502D01*
X176092181Y-101810005D01*
X176030858Y-101843490D01*
X175961166Y-101838506D01*
X175905233Y-101796634D01*
X175880816Y-101731170D01*
X175880500Y-101722324D01*
X175880500Y-100246675D01*
X175900185Y-100179636D01*
X175916814Y-100158998D01*
X177037995Y-99037817D01*
X177099318Y-99004333D01*
X177125676Y-99001499D01*
X178498517Y-99001499D01*
X178498518Y-99001499D01*
X178592304Y-98986646D01*
X178705342Y-98929050D01*
X178795050Y-98839342D01*
X178852646Y-98726304D01*
X178852646Y-98726302D01*
X178852647Y-98726301D01*
X178867499Y-98632524D01*
X178867500Y-98632519D01*
X178867499Y-98482859D01*
X178887183Y-98415823D01*
X178939987Y-98370068D01*
X179009145Y-98360124D01*
X179072701Y-98389149D01*
X179093073Y-98411738D01*
X179195402Y-98557877D01*
X179350123Y-98712598D01*
X179529361Y-98838102D01*
X179727670Y-98930575D01*
X179939023Y-98987207D01*
X180117954Y-99002861D01*
X180156998Y-99006277D01*
X180157000Y-99006277D01*
X180157002Y-99006277D01*
X180185254Y-99003805D01*
X180374977Y-98987207D01*
X180586330Y-98930575D01*
X180784639Y-98838102D01*
X180963877Y-98712598D01*
X181118598Y-98557877D01*
X181244102Y-98378639D01*
X181336575Y-98180330D01*
X181393207Y-97968977D01*
X181412277Y-97751000D01*
X181409032Y-97713914D01*
X181408569Y-97708618D01*
X181393207Y-97533023D01*
X181336575Y-97321670D01*
X181244102Y-97123362D01*
X181244100Y-97123359D01*
X181244099Y-97123357D01*
X181118599Y-96944124D01*
X181043950Y-96869475D01*
X180963877Y-96789402D01*
X180784639Y-96663898D01*
X180784640Y-96663898D01*
X180784638Y-96663897D01*
X180658190Y-96604934D01*
X180586330Y-96571425D01*
X180586326Y-96571424D01*
X180586322Y-96571422D01*
X180374977Y-96514793D01*
X180157002Y-96495723D01*
X180156998Y-96495723D01*
X180011682Y-96508436D01*
X179939023Y-96514793D01*
X179939020Y-96514793D01*
X179727677Y-96571422D01*
X179727670Y-96571424D01*
X179727670Y-96571425D01*
X179724391Y-96572954D01*
X179529361Y-96663898D01*
X179529357Y-96663900D01*
X179350121Y-96789402D01*
X179195402Y-96944121D01*
X179093074Y-97090262D01*
X179038497Y-97133887D01*
X178968999Y-97141081D01*
X178906644Y-97109558D01*
X178871230Y-97049328D01*
X178867499Y-97019139D01*
X178867499Y-96869482D01*
X178867498Y-96869475D01*
X178852646Y-96775696D01*
X178795050Y-96662658D01*
X178795046Y-96662654D01*
X178795045Y-96662652D01*
X178705347Y-96572954D01*
X178705344Y-96572952D01*
X178705342Y-96572950D01*
X178628517Y-96533805D01*
X178592301Y-96515352D01*
X178498524Y-96500500D01*
X176735482Y-96500500D01*
X176654519Y-96513323D01*
X176641696Y-96515354D01*
X176528658Y-96572950D01*
X176528657Y-96572951D01*
X176528652Y-96572954D01*
X176438954Y-96662652D01*
X176438951Y-96662657D01*
X176438950Y-96662658D01*
X176419751Y-96700337D01*
X176381352Y-96775698D01*
X176366500Y-96869475D01*
X176366500Y-98242323D01*
X176346815Y-98309362D01*
X176330181Y-98330004D01*
X175072686Y-99587500D01*
X174979502Y-99680683D01*
X174979500Y-99680686D01*
X174913608Y-99794812D01*
X174879500Y-99922108D01*
X174879500Y-110002324D01*
X174859815Y-110069363D01*
X174807011Y-110115118D01*
X174737853Y-110125062D01*
X174674297Y-110096037D01*
X174667819Y-110090005D01*
X172584493Y-108006679D01*
X172551008Y-107945356D01*
X172555992Y-107875664D01*
X172557613Y-107871546D01*
X172632049Y-107691839D01*
X172632051Y-107691835D01*
X172670500Y-107498541D01*
X172670500Y-107301459D01*
X172670500Y-107301456D01*
X172632052Y-107108170D01*
X172632051Y-107108169D01*
X172632051Y-107108165D01*
X172632049Y-107108160D01*
X172556635Y-106926092D01*
X172556628Y-106926079D01*
X172447139Y-106762218D01*
X172447136Y-106762214D01*
X172307785Y-106622863D01*
X172307781Y-106622860D01*
X172143920Y-106513371D01*
X172143907Y-106513364D01*
X171961839Y-106437950D01*
X171961829Y-106437947D01*
X171768543Y-106399500D01*
X171768541Y-106399500D01*
X170771459Y-106399500D01*
X170771457Y-106399500D01*
X170578170Y-106437947D01*
X170578160Y-106437950D01*
X170396092Y-106513364D01*
X170396079Y-106513371D01*
X170232218Y-106622860D01*
X170232214Y-106622863D01*
X170092863Y-106762214D01*
X170092860Y-106762218D01*
X169983371Y-106926079D01*
X169983364Y-106926092D01*
X169907950Y-107108160D01*
X169907947Y-107108170D01*
X169869500Y-107301456D01*
X169869500Y-107301459D01*
X169869500Y-107498541D01*
X169869500Y-107498543D01*
X169869499Y-107498543D01*
X169907947Y-107691829D01*
X169907950Y-107691839D01*
X169983364Y-107873907D01*
X169983371Y-107873920D01*
X170092860Y-108037781D01*
X170092863Y-108037785D01*
X170232214Y-108177136D01*
X170232218Y-108177139D01*
X170396079Y-108286628D01*
X170396092Y-108286635D01*
X170578160Y-108362049D01*
X170578165Y-108362051D01*
X170578169Y-108362051D01*
X170578170Y-108362052D01*
X170771456Y-108400500D01*
X170771459Y-108400500D01*
X171511324Y-108400500D01*
X171578363Y-108420185D01*
X171599005Y-108436819D01*
X171790505Y-108628319D01*
X171823990Y-108689642D01*
X171819006Y-108759334D01*
X171777134Y-108815267D01*
X171711670Y-108839684D01*
X171702824Y-108840000D01*
X171520000Y-108840000D01*
X171520000Y-109624314D01*
X171515606Y-109619920D01*
X171424394Y-109567259D01*
X171322661Y-109540000D01*
X171217339Y-109540000D01*
X171115606Y-109567259D01*
X171024394Y-109619920D01*
X171020000Y-109624314D01*
X171020000Y-108840000D01*
X170783429Y-108840000D01*
X170612415Y-108867085D01*
X170447742Y-108920591D01*
X170293475Y-108999195D01*
X170153397Y-109100967D01*
X170030967Y-109223397D01*
X169929195Y-109363475D01*
X169850591Y-109517744D01*
X169797085Y-109682415D01*
X169795884Y-109689999D01*
X162654100Y-109689999D01*
X162654100Y-104958543D01*
X169869499Y-104958543D01*
X169907947Y-105151829D01*
X169907950Y-105151839D01*
X169983364Y-105333907D01*
X169983371Y-105333920D01*
X170092860Y-105497781D01*
X170092863Y-105497785D01*
X170232214Y-105637136D01*
X170232218Y-105637139D01*
X170396079Y-105746628D01*
X170396092Y-105746635D01*
X170578160Y-105822049D01*
X170578165Y-105822051D01*
X170578169Y-105822051D01*
X170578170Y-105822052D01*
X170771456Y-105860500D01*
X170771459Y-105860500D01*
X171768543Y-105860500D01*
X171898582Y-105834632D01*
X171961835Y-105822051D01*
X172143914Y-105746632D01*
X172307782Y-105637139D01*
X172447139Y-105497782D01*
X172556632Y-105333914D01*
X172632051Y-105151835D01*
X172665532Y-104983519D01*
X172670500Y-104958543D01*
X172670500Y-104761456D01*
X172632052Y-104568170D01*
X172632051Y-104568169D01*
X172632051Y-104568165D01*
X172616775Y-104531285D01*
X172556635Y-104386092D01*
X172556628Y-104386079D01*
X172447139Y-104222218D01*
X172447136Y-104222214D01*
X172307785Y-104082863D01*
X172307781Y-104082860D01*
X172143920Y-103973371D01*
X172143907Y-103973364D01*
X171961839Y-103897950D01*
X171961829Y-103897947D01*
X171768543Y-103859500D01*
X171768541Y-103859500D01*
X170771459Y-103859500D01*
X170771457Y-103859500D01*
X170578170Y-103897947D01*
X170578160Y-103897950D01*
X170396092Y-103973364D01*
X170396079Y-103973371D01*
X170232218Y-104082860D01*
X170232214Y-104082863D01*
X170092863Y-104222214D01*
X170092860Y-104222218D01*
X169983371Y-104386079D01*
X169983364Y-104386092D01*
X169907950Y-104568160D01*
X169907947Y-104568170D01*
X169869500Y-104761456D01*
X169869500Y-104761459D01*
X169869500Y-104958541D01*
X169869500Y-104958543D01*
X169869499Y-104958543D01*
X162654100Y-104958543D01*
X162654100Y-102418543D01*
X169869499Y-102418543D01*
X169907947Y-102611829D01*
X169907950Y-102611839D01*
X169983364Y-102793907D01*
X169983371Y-102793920D01*
X170092860Y-102957781D01*
X170092863Y-102957785D01*
X170232214Y-103097136D01*
X170232218Y-103097139D01*
X170396079Y-103206628D01*
X170396092Y-103206635D01*
X170578160Y-103282049D01*
X170578165Y-103282051D01*
X170578169Y-103282051D01*
X170578170Y-103282052D01*
X170771456Y-103320500D01*
X170771459Y-103320500D01*
X171768543Y-103320500D01*
X171898582Y-103294632D01*
X171961835Y-103282051D01*
X172102655Y-103223721D01*
X172143907Y-103206635D01*
X172143907Y-103206634D01*
X172143914Y-103206632D01*
X172307782Y-103097139D01*
X172447139Y-102957782D01*
X172556632Y-102793914D01*
X172632051Y-102611835D01*
X172670500Y-102418541D01*
X172670500Y-102221459D01*
X172670500Y-102221456D01*
X172632052Y-102028170D01*
X172632051Y-102028169D01*
X172632051Y-102028165D01*
X172629367Y-102021686D01*
X172556635Y-101846092D01*
X172556628Y-101846079D01*
X172447139Y-101682218D01*
X172447136Y-101682214D01*
X172307785Y-101542863D01*
X172307781Y-101542860D01*
X172143920Y-101433371D01*
X172143907Y-101433364D01*
X171961839Y-101357950D01*
X171961829Y-101357947D01*
X171768543Y-101319500D01*
X171768541Y-101319500D01*
X170771459Y-101319500D01*
X170771457Y-101319500D01*
X170578170Y-101357947D01*
X170578160Y-101357950D01*
X170396092Y-101433364D01*
X170396079Y-101433371D01*
X170232218Y-101542860D01*
X170232214Y-101542863D01*
X170092863Y-101682214D01*
X170092860Y-101682218D01*
X169983371Y-101846079D01*
X169983364Y-101846092D01*
X169907950Y-102028160D01*
X169907947Y-102028170D01*
X169869500Y-102221456D01*
X169869500Y-102221459D01*
X169869500Y-102418541D01*
X169869500Y-102418543D01*
X169869499Y-102418543D01*
X162654100Y-102418543D01*
X162654100Y-99878543D01*
X169869499Y-99878543D01*
X169907947Y-100071829D01*
X169907950Y-100071839D01*
X169983364Y-100253907D01*
X169983371Y-100253920D01*
X170092860Y-100417781D01*
X170092863Y-100417785D01*
X170232214Y-100557136D01*
X170232218Y-100557139D01*
X170396079Y-100666628D01*
X170396092Y-100666635D01*
X170578160Y-100742049D01*
X170578165Y-100742051D01*
X170578169Y-100742051D01*
X170578170Y-100742052D01*
X170771456Y-100780500D01*
X170771459Y-100780500D01*
X171768543Y-100780500D01*
X171898582Y-100754632D01*
X171961835Y-100742051D01*
X172143914Y-100666632D01*
X172307782Y-100557139D01*
X172447139Y-100417782D01*
X172556632Y-100253914D01*
X172559631Y-100246675D01*
X172595949Y-100158994D01*
X172632051Y-100071835D01*
X172670500Y-99878541D01*
X172670500Y-99681459D01*
X172670500Y-99681456D01*
X172632052Y-99488170D01*
X172632051Y-99488169D01*
X172632051Y-99488165D01*
X172632049Y-99488160D01*
X172556635Y-99306092D01*
X172556628Y-99306079D01*
X172447139Y-99142218D01*
X172447136Y-99142214D01*
X172307785Y-99002863D01*
X172307781Y-99002860D01*
X172143920Y-98893371D01*
X172143907Y-98893364D01*
X171961839Y-98817950D01*
X171961829Y-98817947D01*
X171768543Y-98779500D01*
X171768541Y-98779500D01*
X170771459Y-98779500D01*
X170771457Y-98779500D01*
X170578170Y-98817947D01*
X170578160Y-98817950D01*
X170396092Y-98893364D01*
X170396079Y-98893371D01*
X170232218Y-99002860D01*
X170232214Y-99002863D01*
X170092863Y-99142214D01*
X170092860Y-99142218D01*
X169983371Y-99306079D01*
X169983364Y-99306092D01*
X169907950Y-99488160D01*
X169907947Y-99488170D01*
X169869500Y-99681456D01*
X169869500Y-99681459D01*
X169869500Y-99878541D01*
X169869500Y-99878543D01*
X169869499Y-99878543D01*
X162654100Y-99878543D01*
X162654100Y-83255955D01*
X162673785Y-83188916D01*
X162712823Y-83150528D01*
X162722376Y-83144612D01*
X162849902Y-83065652D01*
X162998064Y-82930583D01*
X163060865Y-82899968D01*
X163130252Y-82908165D01*
X163184193Y-82952575D01*
X163205561Y-83019097D01*
X163205600Y-83022222D01*
X163205600Y-90054946D01*
X163236361Y-90209589D01*
X163236364Y-90209601D01*
X163296702Y-90355272D01*
X163296709Y-90355285D01*
X163384310Y-90486388D01*
X163384313Y-90486392D01*
X169850818Y-96952896D01*
X169884303Y-97014219D01*
X169884754Y-97064768D01*
X169869500Y-97141454D01*
X169869500Y-97141459D01*
X169869500Y-97338541D01*
X169869500Y-97338543D01*
X169869499Y-97338543D01*
X169907947Y-97531829D01*
X169907950Y-97531839D01*
X169983364Y-97713907D01*
X169983371Y-97713920D01*
X170092860Y-97877781D01*
X170092863Y-97877785D01*
X170232214Y-98017136D01*
X170232218Y-98017139D01*
X170396079Y-98126628D01*
X170396092Y-98126635D01*
X170578160Y-98202049D01*
X170578165Y-98202051D01*
X170578169Y-98202051D01*
X170578170Y-98202052D01*
X170771456Y-98240500D01*
X170771459Y-98240500D01*
X171768543Y-98240500D01*
X171898582Y-98214632D01*
X171961835Y-98202051D01*
X172143914Y-98126632D01*
X172307782Y-98017139D01*
X172447139Y-97877782D01*
X172556632Y-97713914D01*
X172632051Y-97531835D01*
X172670500Y-97338541D01*
X172670500Y-97141459D01*
X172670500Y-97141456D01*
X172632052Y-96948170D01*
X172632051Y-96948169D01*
X172632051Y-96948165D01*
X172599460Y-96869482D01*
X172556635Y-96766092D01*
X172556628Y-96766079D01*
X172447139Y-96602218D01*
X172447136Y-96602214D01*
X172307785Y-96462863D01*
X172307781Y-96462860D01*
X172143920Y-96353371D01*
X172143907Y-96353364D01*
X171961839Y-96277950D01*
X171961829Y-96277947D01*
X171768543Y-96239500D01*
X171768541Y-96239500D01*
X171452940Y-96239500D01*
X171385901Y-96219815D01*
X171365259Y-96203181D01*
X165680553Y-90518475D01*
X176366500Y-90518475D01*
X176366500Y-92281517D01*
X176377292Y-92349657D01*
X176381354Y-92375304D01*
X176438950Y-92488342D01*
X176438952Y-92488344D01*
X176438954Y-92488347D01*
X176528652Y-92578045D01*
X176528654Y-92578046D01*
X176528658Y-92578050D01*
X176641694Y-92635645D01*
X176641698Y-92635647D01*
X176735475Y-92650499D01*
X176735481Y-92650500D01*
X178498518Y-92650499D01*
X178592304Y-92635646D01*
X178705342Y-92578050D01*
X178795050Y-92488342D01*
X178852646Y-92375304D01*
X178852646Y-92375302D01*
X178852647Y-92375301D01*
X178867499Y-92281524D01*
X178867500Y-92281519D01*
X178867499Y-92131859D01*
X178887183Y-92064823D01*
X178939987Y-92019068D01*
X179009145Y-92009124D01*
X179072701Y-92038149D01*
X179093073Y-92060738D01*
X179195402Y-92206877D01*
X179350123Y-92361598D01*
X179529361Y-92487102D01*
X179727670Y-92579575D01*
X179939023Y-92636207D01*
X180121926Y-92652208D01*
X180156998Y-92655277D01*
X180157000Y-92655277D01*
X180157002Y-92655277D01*
X180185254Y-92652805D01*
X180374977Y-92636207D01*
X180586330Y-92579575D01*
X180784639Y-92487102D01*
X180963877Y-92361598D01*
X181118598Y-92206877D01*
X181244102Y-92027639D01*
X181336575Y-91829330D01*
X181393207Y-91617977D01*
X181412277Y-91400000D01*
X181393207Y-91182023D01*
X181336575Y-90970670D01*
X181244102Y-90772362D01*
X181244100Y-90772359D01*
X181244099Y-90772357D01*
X181118599Y-90593124D01*
X181043950Y-90518475D01*
X180963877Y-90438402D01*
X180784639Y-90312898D01*
X180784640Y-90312898D01*
X180784638Y-90312897D01*
X180685484Y-90266661D01*
X180586330Y-90220425D01*
X180586326Y-90220424D01*
X180586322Y-90220422D01*
X180374977Y-90163793D01*
X180157002Y-90144723D01*
X180156998Y-90144723D01*
X180011682Y-90157436D01*
X179939023Y-90163793D01*
X179939020Y-90163793D01*
X179727677Y-90220422D01*
X179727670Y-90220424D01*
X179727670Y-90220425D01*
X179724391Y-90221954D01*
X179529361Y-90312898D01*
X179529357Y-90312900D01*
X179350121Y-90438402D01*
X179195402Y-90593121D01*
X179093074Y-90739262D01*
X179038497Y-90782887D01*
X178968999Y-90790081D01*
X178906644Y-90758558D01*
X178871230Y-90698328D01*
X178867499Y-90668139D01*
X178867499Y-90518482D01*
X178862611Y-90487618D01*
X178852646Y-90424696D01*
X178795050Y-90311658D01*
X178795046Y-90311654D01*
X178795045Y-90311652D01*
X178705347Y-90221954D01*
X178705344Y-90221952D01*
X178705342Y-90221950D01*
X178628517Y-90182805D01*
X178592301Y-90164352D01*
X178498524Y-90149500D01*
X176735482Y-90149500D01*
X176654519Y-90162323D01*
X176641696Y-90164354D01*
X176528658Y-90221950D01*
X176528657Y-90221951D01*
X176528652Y-90221954D01*
X176438954Y-90311652D01*
X176438951Y-90311657D01*
X176438950Y-90311658D01*
X176419751Y-90349337D01*
X176381352Y-90424698D01*
X176366500Y-90518475D01*
X165680553Y-90518475D01*
X164842919Y-89680841D01*
X164809434Y-89619518D01*
X164806600Y-89593160D01*
X164806600Y-82487975D01*
X166737000Y-82487975D01*
X166737000Y-84251017D01*
X166747552Y-84317639D01*
X166751854Y-84344804D01*
X166809450Y-84457842D01*
X166809452Y-84457844D01*
X166809454Y-84457847D01*
X166899152Y-84547545D01*
X166899154Y-84547546D01*
X166899158Y-84547550D01*
X167012194Y-84605145D01*
X167012198Y-84605147D01*
X167105975Y-84619999D01*
X167105981Y-84620000D01*
X168869018Y-84619999D01*
X168962804Y-84605146D01*
X169075842Y-84547550D01*
X169165550Y-84457842D01*
X169223146Y-84344804D01*
X169223146Y-84344802D01*
X169223147Y-84344801D01*
X169237999Y-84251024D01*
X169238000Y-84251019D01*
X169237999Y-82487982D01*
X169223146Y-82394196D01*
X169165550Y-82281158D01*
X169165546Y-82281154D01*
X169165545Y-82281152D01*
X169075847Y-82191454D01*
X169075844Y-82191452D01*
X169075842Y-82191450D01*
X168981930Y-82143599D01*
X168962801Y-82133852D01*
X168869024Y-82119000D01*
X167105982Y-82119000D01*
X167025019Y-82131823D01*
X167012196Y-82133854D01*
X166899158Y-82191450D01*
X166899157Y-82191451D01*
X166899152Y-82191454D01*
X166809454Y-82281152D01*
X166809451Y-82281157D01*
X166751852Y-82394198D01*
X166737000Y-82487975D01*
X164806600Y-82487975D01*
X164806600Y-76138052D01*
X166736974Y-76138052D01*
X166737026Y-77901090D01*
X166751883Y-77994876D01*
X166751883Y-77994877D01*
X166809481Y-78107912D01*
X166809485Y-78107918D01*
X166899188Y-78197615D01*
X166899190Y-78197616D01*
X166899193Y-78197619D01*
X167012232Y-78255212D01*
X167106018Y-78270063D01*
X168869055Y-78270010D01*
X168962840Y-78255154D01*
X169075877Y-78197555D01*
X169165582Y-78107844D01*
X169223175Y-77994805D01*
X169238026Y-77901019D01*
X169237973Y-76137982D01*
X169223117Y-76044197D01*
X169165518Y-75931160D01*
X169165516Y-75931158D01*
X169165514Y-75931155D01*
X169075811Y-75841458D01*
X169075805Y-75841454D01*
X168962769Y-75783862D01*
X168962766Y-75783861D01*
X168868984Y-75769011D01*
X168868982Y-75769011D01*
X168868878Y-75769011D01*
X167105946Y-75769063D01*
X167012160Y-75783920D01*
X167012159Y-75783920D01*
X166899124Y-75841518D01*
X166899118Y-75841522D01*
X166809421Y-75931225D01*
X166809417Y-75931231D01*
X166751825Y-76044267D01*
X166751824Y-76044270D01*
X166736974Y-76138052D01*
X164806600Y-76138052D01*
X164806600Y-64127255D01*
X164806599Y-64127253D01*
X164775838Y-63972610D01*
X164775837Y-63972603D01*
X164770133Y-63958832D01*
X164715497Y-63826927D01*
X164715490Y-63826914D01*
X164627890Y-63695812D01*
X164627889Y-63695811D01*
X164516389Y-63584311D01*
X164438504Y-63506426D01*
X164405019Y-63445103D01*
X164402657Y-63407942D01*
X164411568Y-63306100D01*
X164411568Y-63306099D01*
X164411568Y-63306093D01*
X164399998Y-63173863D01*
X164391735Y-63079408D01*
X164332839Y-62859604D01*
X164236668Y-62653366D01*
X164123612Y-62491904D01*
X164106145Y-62466958D01*
X163945241Y-62306054D01*
X163758834Y-62175532D01*
X163758832Y-62175531D01*
X163552597Y-62079361D01*
X163552588Y-62079358D01*
X163332797Y-62020466D01*
X163332793Y-62020465D01*
X163332792Y-62020465D01*
X163332791Y-62020464D01*
X163332786Y-62020464D01*
X163106102Y-62000632D01*
X163106098Y-62000632D01*
X162879413Y-62020464D01*
X162879402Y-62020466D01*
X162659611Y-62079358D01*
X162659602Y-62079361D01*
X162453367Y-62175531D01*
X162453365Y-62175532D01*
X162266958Y-62306054D01*
X162106054Y-62466958D01*
X161975532Y-62653365D01*
X161975531Y-62653367D01*
X161879361Y-62859602D01*
X161879358Y-62859611D01*
X161820466Y-63079402D01*
X161820464Y-63079413D01*
X161800632Y-63306093D01*
X161800632Y-63306101D01*
X161820464Y-63532786D01*
X161820466Y-63532797D01*
X161879358Y-63752588D01*
X161879361Y-63752597D01*
X161975531Y-63958832D01*
X161975532Y-63958834D01*
X162106054Y-64145241D01*
X162266958Y-64306145D01*
X162266961Y-64306147D01*
X162453366Y-64436668D01*
X162659604Y-64532839D01*
X162659609Y-64532840D01*
X162659611Y-64532841D01*
X162712515Y-64547016D01*
X162879408Y-64591735D01*
X163092407Y-64610370D01*
X163157476Y-64635822D01*
X163198455Y-64692413D01*
X163205600Y-64733898D01*
X163205600Y-73644977D01*
X163185915Y-73712016D01*
X163133111Y-73757771D01*
X163063953Y-73767715D01*
X163000397Y-73738690D01*
X162998062Y-73736614D01*
X162849903Y-73601549D01*
X162849902Y-73601548D01*
X162668619Y-73489302D01*
X162668617Y-73489301D01*
X162555681Y-73445550D01*
X162469798Y-73412279D01*
X162260210Y-73373100D01*
X162046990Y-73373100D01*
X161837402Y-73412279D01*
X161837399Y-73412279D01*
X161837399Y-73412280D01*
X161638582Y-73489301D01*
X161638580Y-73489302D01*
X161457299Y-73601547D01*
X161299727Y-73745193D01*
X161171232Y-73915346D01*
X161076196Y-74106205D01*
X161076196Y-74106207D01*
X161017844Y-74311289D01*
X160998171Y-74523599D01*
X155684099Y-74523599D01*
X155684099Y-73742082D01*
X155669246Y-73648296D01*
X155611650Y-73535258D01*
X155611646Y-73535254D01*
X155611645Y-73535252D01*
X155521947Y-73445554D01*
X155521944Y-73445552D01*
X155521942Y-73445550D01*
X155445117Y-73406405D01*
X155408901Y-73387952D01*
X155315124Y-73373100D01*
X153752082Y-73373100D01*
X153671119Y-73385923D01*
X153658296Y-73387954D01*
X153545258Y-73445550D01*
X153545257Y-73445551D01*
X153545252Y-73445554D01*
X153455554Y-73535252D01*
X153455551Y-73535257D01*
X153397952Y-73648298D01*
X153383100Y-73742075D01*
X153383100Y-75305117D01*
X153387449Y-75332575D01*
X153397954Y-75398904D01*
X153455550Y-75511942D01*
X153455552Y-75511944D01*
X153455554Y-75511947D01*
X153545252Y-75601645D01*
X153545254Y-75601646D01*
X153545258Y-75601650D01*
X153658294Y-75659245D01*
X153658298Y-75659247D01*
X153752075Y-75674099D01*
X153752081Y-75674100D01*
X154367358Y-75674099D01*
X154434395Y-75693783D01*
X154480150Y-75746587D01*
X154490094Y-75815746D01*
X154461069Y-75879302D01*
X154402291Y-75917076D01*
X154390142Y-75919988D01*
X154333716Y-75930535D01*
X154217402Y-75952279D01*
X154217400Y-75952279D01*
X154217398Y-75952280D01*
X154018582Y-76029301D01*
X154018580Y-76029302D01*
X153837299Y-76141547D01*
X153679727Y-76285193D01*
X153551232Y-76455346D01*
X153456196Y-76646205D01*
X153456196Y-76646207D01*
X153397844Y-76851289D01*
X153378171Y-77063599D01*
X138210000Y-77063599D01*
X138210000Y-62312075D01*
X141052100Y-62312075D01*
X141052100Y-63875117D01*
X141062892Y-63943257D01*
X141066954Y-63968904D01*
X141124550Y-64081942D01*
X141124552Y-64081944D01*
X141124554Y-64081947D01*
X141214252Y-64171645D01*
X141214254Y-64171646D01*
X141214258Y-64171650D01*
X141327294Y-64229245D01*
X141327298Y-64229247D01*
X141421075Y-64244099D01*
X141421081Y-64244100D01*
X142984118Y-64244099D01*
X143077904Y-64229246D01*
X143190942Y-64171650D01*
X143280650Y-64081942D01*
X143338246Y-63968904D01*
X143338246Y-63968902D01*
X143338247Y-63968901D01*
X143353099Y-63875124D01*
X143353100Y-63875119D01*
X143353099Y-62374575D01*
X156725600Y-62374575D01*
X156725600Y-64237617D01*
X156736392Y-64305757D01*
X156740454Y-64331404D01*
X156798050Y-64444442D01*
X156798052Y-64444444D01*
X156798054Y-64444447D01*
X156887752Y-64534145D01*
X156887754Y-64534146D01*
X156887758Y-64534150D01*
X157000774Y-64591735D01*
X157000798Y-64591747D01*
X157094575Y-64606599D01*
X157094581Y-64606600D01*
X158957618Y-64606599D01*
X159051404Y-64591746D01*
X159164442Y-64534150D01*
X159254150Y-64444442D01*
X159311746Y-64331404D01*
X159311746Y-64331402D01*
X159311747Y-64331401D01*
X159322382Y-64264247D01*
X159326600Y-64237619D01*
X159326599Y-62374582D01*
X159311746Y-62280796D01*
X159254150Y-62167758D01*
X159254146Y-62167754D01*
X159254145Y-62167752D01*
X159164447Y-62078054D01*
X159164444Y-62078052D01*
X159164442Y-62078050D01*
X159051428Y-62020466D01*
X159051401Y-62020452D01*
X158957624Y-62005600D01*
X157094582Y-62005600D01*
X157013619Y-62018423D01*
X157000796Y-62020454D01*
X156887758Y-62078050D01*
X156887757Y-62078051D01*
X156887752Y-62078054D01*
X156798054Y-62167752D01*
X156798051Y-62167757D01*
X156798050Y-62167758D01*
X156778851Y-62205437D01*
X156740452Y-62280798D01*
X156725600Y-62374575D01*
X143353099Y-62374575D01*
X143353099Y-62312082D01*
X143338246Y-62218296D01*
X143280650Y-62105258D01*
X143280646Y-62105254D01*
X143280645Y-62105252D01*
X143190947Y-62015554D01*
X143190944Y-62015552D01*
X143190942Y-62015550D01*
X143114117Y-61976405D01*
X143077901Y-61957952D01*
X142984124Y-61943100D01*
X141421082Y-61943100D01*
X141340119Y-61955923D01*
X141327296Y-61957954D01*
X141214258Y-62015550D01*
X141214257Y-62015551D01*
X141214252Y-62015554D01*
X141124554Y-62105252D01*
X141124551Y-62105257D01*
X141066952Y-62218298D01*
X141052100Y-62312075D01*
X138210000Y-62312075D01*
X138210000Y-61154000D01*
X138229685Y-61086961D01*
X138282489Y-61041206D01*
X138334000Y-61030000D01*
X164900000Y-61030000D01*
X165650519Y-60279481D01*
X166829500Y-60279481D01*
X166829500Y-62160504D01*
X166829501Y-62160519D01*
X166840111Y-62295338D01*
X166896210Y-62517976D01*
X166991159Y-62727010D01*
X166991162Y-62727016D01*
X167121904Y-62915732D01*
X167121908Y-62915737D01*
X167121911Y-62915741D01*
X167284259Y-63078089D01*
X167284263Y-63078092D01*
X167284267Y-63078095D01*
X167472983Y-63208837D01*
X167472986Y-63208839D01*
X167577506Y-63256314D01*
X167682023Y-63303789D01*
X167682024Y-63303789D01*
X167682026Y-63303790D01*
X167904661Y-63359889D01*
X168039487Y-63370500D01*
X169920512Y-63370499D01*
X170055339Y-63359889D01*
X170277974Y-63303790D01*
X170487014Y-63208839D01*
X170675741Y-63078089D01*
X170838089Y-62915741D01*
X170968839Y-62727014D01*
X171042601Y-62564623D01*
X171088248Y-62511725D01*
X171155247Y-62491904D01*
X171222327Y-62511452D01*
X171268189Y-62564163D01*
X171279500Y-62615904D01*
X171279500Y-66001517D01*
X171290292Y-66069657D01*
X171294354Y-66095304D01*
X171351950Y-66208342D01*
X171351952Y-66208344D01*
X171351954Y-66208347D01*
X171441652Y-66298045D01*
X171441654Y-66298046D01*
X171441658Y-66298050D01*
X171554694Y-66355645D01*
X171554698Y-66355647D01*
X171648475Y-66370499D01*
X171648481Y-66370500D01*
X175711518Y-66370499D01*
X175805304Y-66355646D01*
X175918342Y-66298050D01*
X176008050Y-66208342D01*
X176065646Y-66095304D01*
X176065646Y-66095302D01*
X176065647Y-66095301D01*
X176080499Y-66001524D01*
X176080500Y-66001519D01*
X176080499Y-62438482D01*
X176065646Y-62344696D01*
X176008050Y-62231658D01*
X176008046Y-62231654D01*
X176008045Y-62231652D01*
X175918347Y-62141954D01*
X175918344Y-62141952D01*
X175918342Y-62141950D01*
X175841517Y-62102805D01*
X175805301Y-62084352D01*
X175711524Y-62069500D01*
X171648482Y-62069500D01*
X171567519Y-62082323D01*
X171554696Y-62084354D01*
X171441658Y-62141950D01*
X171441657Y-62141951D01*
X171441652Y-62141954D01*
X171345049Y-62238558D01*
X171343179Y-62236688D01*
X171299462Y-62270385D01*
X171229847Y-62276349D01*
X171168059Y-62243729D01*
X171133715Y-62182883D01*
X171130499Y-62154832D01*
X171130499Y-60279488D01*
X171119889Y-60144661D01*
X171063790Y-59922026D01*
X170968839Y-59712986D01*
X170838089Y-59524259D01*
X170675741Y-59361911D01*
X170675737Y-59361908D01*
X170675732Y-59361904D01*
X170487016Y-59231162D01*
X170487010Y-59231159D01*
X170277976Y-59136210D01*
X170129550Y-59098810D01*
X170055339Y-59080111D01*
X169920513Y-59069500D01*
X169920511Y-59069500D01*
X168039495Y-59069500D01*
X168039480Y-59069501D01*
X167904661Y-59080111D01*
X167682023Y-59136210D01*
X167472989Y-59231159D01*
X167472983Y-59231162D01*
X167284267Y-59361904D01*
X167284255Y-59361914D01*
X167121914Y-59524255D01*
X167121904Y-59524267D01*
X166991162Y-59712983D01*
X166991159Y-59712989D01*
X166896210Y-59922023D01*
X166840111Y-60144661D01*
X166829500Y-60279481D01*
X165650519Y-60279481D01*
X168524197Y-57405803D01*
X171430000Y-57405803D01*
X171430000Y-57970000D01*
X172246988Y-57970000D01*
X172214075Y-58027007D01*
X172180000Y-58154174D01*
X172180000Y-58285826D01*
X172214075Y-58412993D01*
X172246988Y-58470000D01*
X171430001Y-58470000D01*
X171430001Y-59034197D01*
X171440400Y-59166332D01*
X171495377Y-59384519D01*
X171588428Y-59589374D01*
X171588431Y-59589380D01*
X171716559Y-59774323D01*
X171716569Y-59774335D01*
X171875664Y-59933430D01*
X171875676Y-59933440D01*
X172060619Y-60061568D01*
X172060625Y-60061571D01*
X172265480Y-60154622D01*
X172483667Y-60209599D01*
X172615810Y-60219999D01*
X173429999Y-60219999D01*
X173430000Y-60219998D01*
X173430000Y-58720000D01*
X173930000Y-58720000D01*
X173930000Y-60219999D01*
X174744182Y-60219999D01*
X174744197Y-60219998D01*
X174876332Y-60209599D01*
X175094519Y-60154622D01*
X175299374Y-60061571D01*
X175299380Y-60061568D01*
X175484323Y-59933440D01*
X175484335Y-59933430D01*
X175643430Y-59774335D01*
X175643440Y-59774323D01*
X175771568Y-59589380D01*
X175771571Y-59589374D01*
X175864622Y-59384519D01*
X175919599Y-59166332D01*
X175929999Y-59034196D01*
X175930000Y-59034184D01*
X175930000Y-58470000D01*
X175113012Y-58470000D01*
X175145925Y-58412993D01*
X175180000Y-58285826D01*
X175180000Y-58154174D01*
X175145925Y-58027007D01*
X175113012Y-57970000D01*
X175929999Y-57970000D01*
X175929999Y-57405817D01*
X175929998Y-57405802D01*
X175919599Y-57273667D01*
X175864622Y-57055480D01*
X175771571Y-56850625D01*
X175771568Y-56850619D01*
X175643440Y-56665676D01*
X175643430Y-56665664D01*
X175484335Y-56506569D01*
X175484323Y-56506559D01*
X175299380Y-56378431D01*
X175299374Y-56378428D01*
X175094519Y-56285377D01*
X174876332Y-56230400D01*
X174744196Y-56220000D01*
X173930000Y-56220000D01*
X173930000Y-57720000D01*
X173430000Y-57720000D01*
X173430000Y-56220000D01*
X172615817Y-56220000D01*
X172615802Y-56220001D01*
X172483667Y-56230400D01*
X172265480Y-56285377D01*
X172060625Y-56378428D01*
X172060619Y-56378431D01*
X171875676Y-56506559D01*
X171875664Y-56506569D01*
X171716569Y-56665664D01*
X171716559Y-56665676D01*
X171588431Y-56850619D01*
X171588428Y-56850625D01*
X171495377Y-57055480D01*
X171440400Y-57273667D01*
X171430000Y-57405803D01*
X168524197Y-57405803D01*
X170193681Y-55736319D01*
X170255004Y-55702834D01*
X170281362Y-55700000D01*
X179028638Y-55700000D01*
X179095677Y-55719685D01*
G37*
%TD.AperFunction*%
%TD*%
%TA.AperFunction,Conductor*%
%TO.N,ISO-GND*%
G36*
X135901639Y-61313285D02*
G01*
X135947394Y-61366089D01*
X135958600Y-61417600D01*
X135958600Y-81567545D01*
X135938915Y-81634584D01*
X135924682Y-81652758D01*
X133325233Y-84400713D01*
X133264863Y-84435888D01*
X133235151Y-84439500D01*
X133027266Y-84439500D01*
X132982787Y-84446922D01*
X132804868Y-84476611D01*
X132591623Y-84549818D01*
X132591618Y-84549820D01*
X132393324Y-84657132D01*
X132393318Y-84657136D01*
X132215406Y-84795611D01*
X132215397Y-84795619D01*
X132062697Y-84961497D01*
X132062693Y-84961502D01*
X131973808Y-85097550D01*
X131920662Y-85142907D01*
X131851430Y-85152330D01*
X131788095Y-85122827D01*
X131766192Y-85097550D01*
X131677306Y-84961502D01*
X131677305Y-84961500D01*
X131524600Y-84795617D01*
X131524597Y-84795615D01*
X131524593Y-84795611D01*
X131346681Y-84657136D01*
X131346675Y-84657132D01*
X131148381Y-84549820D01*
X131148376Y-84549818D01*
X130935131Y-84476611D01*
X130768332Y-84448777D01*
X130712734Y-84439500D01*
X130487266Y-84439500D01*
X130442787Y-84446922D01*
X130264868Y-84476611D01*
X130051623Y-84549818D01*
X130051618Y-84549820D01*
X129853324Y-84657132D01*
X129853318Y-84657136D01*
X129675406Y-84795611D01*
X129675402Y-84795615D01*
X129629783Y-84845170D01*
X129569896Y-84881160D01*
X129500058Y-84879059D01*
X129442442Y-84839534D01*
X129416080Y-84780582D01*
X129405646Y-84714696D01*
X129348050Y-84601658D01*
X129348046Y-84601654D01*
X129348045Y-84601652D01*
X129258347Y-84511954D01*
X129258344Y-84511952D01*
X129258342Y-84511950D01*
X129181517Y-84472805D01*
X129145301Y-84454352D01*
X129051524Y-84439500D01*
X127068482Y-84439500D01*
X126987519Y-84452323D01*
X126974696Y-84454354D01*
X126861658Y-84511950D01*
X126861657Y-84511951D01*
X126861652Y-84511954D01*
X126771954Y-84601652D01*
X126771951Y-84601657D01*
X126714352Y-84714698D01*
X126699500Y-84808475D01*
X126699500Y-86791517D01*
X126705663Y-86830426D01*
X126714354Y-86885304D01*
X126771950Y-86998342D01*
X126771952Y-86998344D01*
X126771954Y-86998347D01*
X126861652Y-87088045D01*
X126861654Y-87088046D01*
X126861658Y-87088050D01*
X126974694Y-87145645D01*
X126974698Y-87145647D01*
X127068475Y-87160499D01*
X127068481Y-87160500D01*
X129051518Y-87160499D01*
X129145304Y-87145646D01*
X129258342Y-87088050D01*
X129348050Y-86998342D01*
X129405646Y-86885304D01*
X129405646Y-86885302D01*
X129405647Y-86885301D01*
X129405647Y-86885300D01*
X129416082Y-86819417D01*
X129446011Y-86756282D01*
X129505322Y-86719350D01*
X129575185Y-86720348D01*
X129629783Y-86754830D01*
X129675400Y-86804383D01*
X129675403Y-86804385D01*
X129675406Y-86804388D01*
X129853318Y-86942863D01*
X129853324Y-86942867D01*
X129853327Y-86942869D01*
X129955832Y-86998342D01*
X130048334Y-87048402D01*
X130051620Y-87050180D01*
X130264872Y-87123389D01*
X130453884Y-87154929D01*
X130516769Y-87185379D01*
X130553208Y-87244994D01*
X130551633Y-87314846D01*
X130523556Y-87362451D01*
X125759939Y-92398215D01*
X125779307Y-103887658D01*
X125759735Y-103954731D01*
X125707009Y-104000574D01*
X125637867Y-104010634D01*
X125574262Y-103981717D01*
X125567626Y-103975548D01*
X123116392Y-101524313D01*
X123116388Y-101524310D01*
X122985285Y-101436709D01*
X122985272Y-101436702D01*
X122839601Y-101376364D01*
X122839589Y-101376361D01*
X122684945Y-101345600D01*
X122684942Y-101345600D01*
X117628776Y-101345600D01*
X117561737Y-101325915D01*
X117545238Y-101313237D01*
X117447403Y-101224049D01*
X117447402Y-101224048D01*
X117266119Y-101111802D01*
X117266117Y-101111801D01*
X117153181Y-101068050D01*
X117067298Y-101034779D01*
X116857710Y-100995600D01*
X116644490Y-100995600D01*
X116434902Y-101034779D01*
X116434899Y-101034779D01*
X116434899Y-101034780D01*
X116236082Y-101111801D01*
X116236080Y-101111802D01*
X116054799Y-101224047D01*
X115897227Y-101367693D01*
X115768732Y-101537846D01*
X115673696Y-101728705D01*
X115673696Y-101728707D01*
X115618525Y-101922611D01*
X115615344Y-101933790D01*
X115595671Y-102146100D01*
X115615344Y-102358410D01*
X115670514Y-102552310D01*
X115673697Y-102563495D01*
X115674716Y-102566126D01*
X115674829Y-102567474D01*
X115675264Y-102569002D01*
X115674965Y-102569087D01*
X115680573Y-102635749D01*
X115647858Y-102697487D01*
X115586959Y-102731737D01*
X115517210Y-102727625D01*
X115471405Y-102698591D01*
X113226819Y-100454005D01*
X113193334Y-100392682D01*
X113190500Y-100366324D01*
X113190500Y-89235383D01*
X113210185Y-89168344D01*
X113262093Y-89123002D01*
X113317639Y-89097102D01*
X113496877Y-88971598D01*
X113651598Y-88816877D01*
X113777102Y-88637639D01*
X113847618Y-88486414D01*
X113893790Y-88433977D01*
X113960984Y-88414825D01*
X114027865Y-88435041D01*
X114072381Y-88486414D01*
X114142898Y-88637639D01*
X114268402Y-88816877D01*
X114423123Y-88971598D01*
X114602361Y-89097102D01*
X114800670Y-89189575D01*
X115012023Y-89246207D01*
X115194926Y-89262208D01*
X115229998Y-89265277D01*
X115230000Y-89265277D01*
X115230002Y-89265277D01*
X115258254Y-89262805D01*
X115447977Y-89246207D01*
X115659330Y-89189575D01*
X115857639Y-89097102D01*
X116036877Y-88971598D01*
X116191598Y-88816877D01*
X116317102Y-88637639D01*
X116409575Y-88439330D01*
X116466207Y-88227977D01*
X116485277Y-88010000D01*
X116466207Y-87792023D01*
X116409575Y-87580670D01*
X116317102Y-87382362D01*
X116317100Y-87382359D01*
X116317099Y-87382357D01*
X116191599Y-87203124D01*
X116134120Y-87145645D01*
X116036877Y-87048402D01*
X115857639Y-86922898D01*
X115802093Y-86896996D01*
X115749655Y-86850824D01*
X115730500Y-86784615D01*
X115730500Y-74675383D01*
X115750185Y-74608344D01*
X115802093Y-74563002D01*
X115857639Y-74537102D01*
X116036877Y-74411598D01*
X116191598Y-74256877D01*
X116317102Y-74077639D01*
X116409575Y-73879330D01*
X116466207Y-73667977D01*
X116485277Y-73450000D01*
X116466207Y-73232023D01*
X116409575Y-73020670D01*
X116317102Y-72822362D01*
X116317100Y-72822359D01*
X116317099Y-72822357D01*
X116191599Y-72643124D01*
X116191596Y-72643121D01*
X116036877Y-72488402D01*
X115857639Y-72362898D01*
X115857640Y-72362898D01*
X115857638Y-72362897D01*
X115758484Y-72316661D01*
X115659330Y-72270425D01*
X115659326Y-72270424D01*
X115659322Y-72270422D01*
X115447977Y-72213793D01*
X115230002Y-72194723D01*
X115229998Y-72194723D01*
X115084682Y-72207436D01*
X115012023Y-72213793D01*
X115012020Y-72213793D01*
X114800677Y-72270422D01*
X114800668Y-72270426D01*
X114602361Y-72362898D01*
X114602357Y-72362900D01*
X114423121Y-72488402D01*
X114268402Y-72643121D01*
X114142900Y-72822357D01*
X114142898Y-72822361D01*
X114072382Y-72973583D01*
X114026209Y-73026022D01*
X113959016Y-73045174D01*
X113892135Y-73024958D01*
X113847618Y-72973583D01*
X113833118Y-72942488D01*
X113777102Y-72822362D01*
X113777100Y-72822359D01*
X113777099Y-72822357D01*
X113651599Y-72643124D01*
X113651596Y-72643121D01*
X113496877Y-72488402D01*
X113317639Y-72362898D01*
X113317640Y-72362898D01*
X113317638Y-72362897D01*
X113218484Y-72316661D01*
X113119330Y-72270425D01*
X113119326Y-72270424D01*
X113119322Y-72270422D01*
X112907977Y-72213793D01*
X112690002Y-72194723D01*
X112689998Y-72194723D01*
X112544682Y-72207436D01*
X112472023Y-72213793D01*
X112472020Y-72213793D01*
X112260677Y-72270422D01*
X112260668Y-72270426D01*
X112062361Y-72362898D01*
X112062357Y-72362900D01*
X111883121Y-72488402D01*
X111728402Y-72643121D01*
X111602900Y-72822357D01*
X111602898Y-72822361D01*
X111510426Y-73020668D01*
X111510422Y-73020677D01*
X111453793Y-73232020D01*
X111453793Y-73232024D01*
X111434723Y-73449997D01*
X111434723Y-73450002D01*
X111453793Y-73667975D01*
X111453793Y-73667979D01*
X111510422Y-73879322D01*
X111510424Y-73879326D01*
X111510425Y-73879330D01*
X111532382Y-73926416D01*
X111602897Y-74077638D01*
X111602898Y-74077639D01*
X111728402Y-74256877D01*
X111883123Y-74411598D01*
X112062361Y-74537102D01*
X112260670Y-74629575D01*
X112472023Y-74686207D01*
X112654926Y-74702208D01*
X112689998Y-74705277D01*
X112690000Y-74705277D01*
X112690002Y-74705277D01*
X112718254Y-74702805D01*
X112907977Y-74686207D01*
X113119330Y-74629575D01*
X113317639Y-74537102D01*
X113496877Y-74411598D01*
X113651598Y-74256877D01*
X113777102Y-74077639D01*
X113847618Y-73926414D01*
X113893790Y-73873977D01*
X113960984Y-73854825D01*
X114027865Y-73875041D01*
X114072381Y-73926414D01*
X114142898Y-74077639D01*
X114268402Y-74256877D01*
X114423123Y-74411598D01*
X114602361Y-74537102D01*
X114657906Y-74563002D01*
X114710343Y-74609171D01*
X114729500Y-74675383D01*
X114729500Y-86784615D01*
X114709815Y-86851654D01*
X114657906Y-86896997D01*
X114602359Y-86922899D01*
X114423121Y-87048402D01*
X114268402Y-87203121D01*
X114142900Y-87382357D01*
X114142898Y-87382361D01*
X114072382Y-87533583D01*
X114026209Y-87586022D01*
X113959016Y-87605174D01*
X113892135Y-87584958D01*
X113847618Y-87533583D01*
X113833118Y-87502488D01*
X113777102Y-87382362D01*
X113777100Y-87382359D01*
X113777099Y-87382357D01*
X113651599Y-87203124D01*
X113594120Y-87145645D01*
X113496877Y-87048402D01*
X113358978Y-86951844D01*
X113317638Y-86922897D01*
X113218484Y-86876661D01*
X113119330Y-86830425D01*
X113119326Y-86830424D01*
X113119322Y-86830422D01*
X112907977Y-86773793D01*
X112690002Y-86754723D01*
X112689998Y-86754723D01*
X112544682Y-86767436D01*
X112472023Y-86773793D01*
X112472020Y-86773793D01*
X112260677Y-86830422D01*
X112260668Y-86830426D01*
X112062361Y-86922898D01*
X112062357Y-86922900D01*
X111883121Y-87048402D01*
X111728402Y-87203121D01*
X111602900Y-87382357D01*
X111602898Y-87382361D01*
X111510426Y-87580668D01*
X111510422Y-87580677D01*
X111453793Y-87792020D01*
X111453793Y-87792024D01*
X111434723Y-88009997D01*
X111434723Y-88010002D01*
X111453793Y-88227975D01*
X111453793Y-88227979D01*
X111510422Y-88439322D01*
X111510424Y-88439326D01*
X111510425Y-88439330D01*
X111532382Y-88486416D01*
X111602897Y-88637638D01*
X111602898Y-88637639D01*
X111728402Y-88816877D01*
X111883123Y-88971598D01*
X112062361Y-89097102D01*
X112117906Y-89123002D01*
X112170343Y-89169171D01*
X112189500Y-89235383D01*
X112189500Y-100690891D01*
X112223608Y-100818187D01*
X112256554Y-100875250D01*
X112289500Y-100932314D01*
X112289502Y-100932316D01*
X115611580Y-104254394D01*
X115645065Y-104315717D01*
X115643165Y-104376009D01*
X115615344Y-104473788D01*
X115615343Y-104473790D01*
X115595671Y-104686099D01*
X115595671Y-104686100D01*
X115615344Y-104898410D01*
X115673696Y-105103492D01*
X115673696Y-105103494D01*
X115768732Y-105294353D01*
X115897227Y-105464506D01*
X115897228Y-105464507D01*
X116054798Y-105608152D01*
X116236081Y-105720398D01*
X116434902Y-105797421D01*
X116631713Y-105834211D01*
X116693993Y-105865879D01*
X116729266Y-105926192D01*
X116726332Y-105996000D01*
X116686123Y-106053140D01*
X116631713Y-106077988D01*
X116434902Y-106114779D01*
X116434899Y-106114779D01*
X116434899Y-106114780D01*
X116236082Y-106191801D01*
X116236080Y-106191802D01*
X116054799Y-106304047D01*
X115897227Y-106447693D01*
X115768732Y-106617846D01*
X115673696Y-106808705D01*
X115673696Y-106808707D01*
X115615344Y-107013789D01*
X115595671Y-107226099D01*
X115595671Y-107226100D01*
X115615344Y-107438410D01*
X115673696Y-107643492D01*
X115673696Y-107643494D01*
X115768732Y-107834353D01*
X115768734Y-107834355D01*
X115897228Y-108004507D01*
X116054798Y-108148152D01*
X116236081Y-108260398D01*
X116434902Y-108337421D01*
X116644490Y-108376600D01*
X116644492Y-108376600D01*
X116857708Y-108376600D01*
X116857710Y-108376600D01*
X117067298Y-108337421D01*
X117266119Y-108260398D01*
X117447402Y-108148152D01*
X117604972Y-108004507D01*
X117733466Y-107834355D01*
X117750484Y-107800178D01*
X117828503Y-107643494D01*
X117828503Y-107643493D01*
X117828505Y-107643489D01*
X117886856Y-107438410D01*
X117906529Y-107226100D01*
X117886856Y-107013790D01*
X117828505Y-106808711D01*
X117828503Y-106808706D01*
X117828503Y-106808705D01*
X117733467Y-106617846D01*
X117604972Y-106447693D01*
X117447402Y-106304048D01*
X117266119Y-106191802D01*
X117266117Y-106191801D01*
X117166708Y-106153290D01*
X117067298Y-106114779D01*
X116870485Y-106077988D01*
X116808206Y-106046321D01*
X116772933Y-105986008D01*
X116775867Y-105916200D01*
X116816076Y-105859060D01*
X116870484Y-105834211D01*
X117067298Y-105797421D01*
X117266119Y-105720398D01*
X117447402Y-105608152D01*
X117604972Y-105464507D01*
X117733466Y-105294355D01*
X117828505Y-105103489D01*
X117886856Y-104898410D01*
X117906529Y-104686100D01*
X117886856Y-104473790D01*
X117828505Y-104268711D01*
X117828503Y-104268706D01*
X117828503Y-104268705D01*
X117733467Y-104077846D01*
X117604972Y-103907693D01*
X117582995Y-103887658D01*
X117447402Y-103764048D01*
X117266119Y-103651802D01*
X117266117Y-103651801D01*
X117130228Y-103599158D01*
X117067298Y-103574779D01*
X116870485Y-103537988D01*
X116808206Y-103506321D01*
X116772933Y-103446008D01*
X116775867Y-103376200D01*
X116816076Y-103319060D01*
X116870484Y-103294211D01*
X117067298Y-103257421D01*
X117266119Y-103180398D01*
X117447402Y-103068152D01*
X117498685Y-103021401D01*
X117545238Y-102978963D01*
X117608042Y-102948346D01*
X117628776Y-102946600D01*
X122223160Y-102946600D01*
X122290199Y-102966285D01*
X122310841Y-102982919D01*
X124718211Y-105390289D01*
X124829711Y-105501789D01*
X124960821Y-105589394D01*
X125063833Y-105632062D01*
X125106502Y-105649737D01*
X125150089Y-105658407D01*
X125261152Y-105680499D01*
X125261155Y-105680500D01*
X125261157Y-105680500D01*
X125261158Y-105680500D01*
X125658539Y-105680500D01*
X125725578Y-105700185D01*
X125771333Y-105752989D01*
X125782538Y-105804289D01*
X125789921Y-110183492D01*
X125801564Y-117090001D01*
X126717957Y-118609999D01*
X126717958Y-118610000D01*
X130816199Y-118590586D01*
X130883330Y-118609953D01*
X130929334Y-118662540D01*
X130940783Y-118713800D01*
X130947680Y-119803477D01*
X130928420Y-119870640D01*
X130916334Y-119885735D01*
X130913053Y-119890253D01*
X130855452Y-120003298D01*
X130840600Y-120097075D01*
X130840600Y-120722550D01*
X130820915Y-120789589D01*
X130768111Y-120835344D01*
X130698953Y-120845288D01*
X130635397Y-120816263D01*
X130597623Y-120757485D01*
X130593129Y-120733991D01*
X130589362Y-120693337D01*
X130586856Y-120666290D01*
X130528505Y-120461211D01*
X130528503Y-120461206D01*
X130528503Y-120461205D01*
X130433467Y-120270346D01*
X130304972Y-120100193D01*
X130301552Y-120097075D01*
X130147402Y-119956548D01*
X129966119Y-119844302D01*
X129966117Y-119844301D01*
X129799038Y-119779575D01*
X129767298Y-119767279D01*
X129557710Y-119728100D01*
X129344490Y-119728100D01*
X129134902Y-119767279D01*
X129134899Y-119767279D01*
X129134899Y-119767280D01*
X128936082Y-119844301D01*
X128936080Y-119844302D01*
X128754799Y-119956547D01*
X128597227Y-120100193D01*
X128468732Y-120270346D01*
X128373696Y-120461205D01*
X128373696Y-120461207D01*
X128315344Y-120666289D01*
X128304571Y-120782551D01*
X128278785Y-120847488D01*
X128234230Y-120879404D01*
X128270603Y-120900268D01*
X128302793Y-120962281D01*
X128304571Y-120974648D01*
X128315344Y-121090910D01*
X128373696Y-121295992D01*
X128373696Y-121295994D01*
X128468732Y-121486853D01*
X128597227Y-121657006D01*
X128597228Y-121657007D01*
X128754798Y-121800652D01*
X128936081Y-121912898D01*
X129134902Y-121989921D01*
X129344490Y-122029100D01*
X129344492Y-122029100D01*
X129557708Y-122029100D01*
X129557710Y-122029100D01*
X129767298Y-121989921D01*
X129966119Y-121912898D01*
X130147402Y-121800652D01*
X130304972Y-121657007D01*
X130433466Y-121486855D01*
X130458589Y-121436401D01*
X130528503Y-121295994D01*
X130528503Y-121295993D01*
X130528505Y-121295989D01*
X130586856Y-121090910D01*
X130593129Y-121023204D01*
X130618914Y-120958269D01*
X130675714Y-120917580D01*
X130745495Y-120914060D01*
X130806102Y-120948824D01*
X130838293Y-121010837D01*
X130840600Y-121034646D01*
X130840600Y-121660117D01*
X130846402Y-121696747D01*
X130855454Y-121753904D01*
X130913050Y-121866942D01*
X130925047Y-121878939D01*
X130958533Y-121940260D01*
X130961365Y-121965836D01*
X130998798Y-127880342D01*
X130985801Y-127936397D01*
X130913696Y-128081208D01*
X130913695Y-128081211D01*
X130909084Y-128097418D01*
X130855344Y-128286289D01*
X130844571Y-128402551D01*
X130818785Y-128467488D01*
X130774230Y-128499404D01*
X130810603Y-128520268D01*
X130842793Y-128582281D01*
X130844570Y-128594647D01*
X130855344Y-128710910D01*
X130877663Y-128789353D01*
X130913696Y-128915991D01*
X130993718Y-129076701D01*
X131006715Y-129131186D01*
X131019210Y-131105215D01*
X130999950Y-131172378D01*
X130947436Y-131218466D01*
X130895212Y-131230000D01*
X126503440Y-131230000D01*
X126436401Y-131210315D01*
X126415759Y-131193681D01*
X125180292Y-129958213D01*
X125180288Y-129958210D01*
X125049185Y-129870609D01*
X125049172Y-129870602D01*
X124903501Y-129810264D01*
X124903489Y-129810261D01*
X124748845Y-129779500D01*
X124748842Y-129779500D01*
X122332940Y-129779500D01*
X122265901Y-129759815D01*
X122245259Y-129743181D01*
X113891327Y-121389249D01*
X113857842Y-121327926D01*
X113862826Y-121258234D01*
X113880054Y-121226841D01*
X113889945Y-121213741D01*
X113923466Y-121169355D01*
X113962527Y-121090910D01*
X114018503Y-120978494D01*
X114018503Y-120978493D01*
X114018505Y-120978489D01*
X114076856Y-120773410D01*
X114083129Y-120705704D01*
X114108914Y-120640769D01*
X114165714Y-120600080D01*
X114235495Y-120596560D01*
X114296102Y-120631324D01*
X114328293Y-120693337D01*
X114330600Y-120717146D01*
X114330600Y-121342617D01*
X114337814Y-121388162D01*
X114345454Y-121436404D01*
X114403050Y-121549442D01*
X114403052Y-121549444D01*
X114403054Y-121549447D01*
X114492752Y-121639145D01*
X114492754Y-121639146D01*
X114492758Y-121639150D01*
X114605794Y-121696745D01*
X114605798Y-121696747D01*
X114699575Y-121711599D01*
X114699581Y-121711600D01*
X116262618Y-121711599D01*
X116356404Y-121696746D01*
X116469442Y-121639150D01*
X116559150Y-121549442D01*
X116616746Y-121436404D01*
X116616746Y-121436402D01*
X116616747Y-121436401D01*
X116631599Y-121342624D01*
X116631600Y-121342619D01*
X116631599Y-119779582D01*
X116616746Y-119685796D01*
X116559150Y-119572758D01*
X116559146Y-119572754D01*
X116559145Y-119572752D01*
X116469447Y-119483054D01*
X116469444Y-119483052D01*
X116469442Y-119483050D01*
X116392617Y-119443905D01*
X116356401Y-119425452D01*
X116262624Y-119410600D01*
X114699582Y-119410600D01*
X114618619Y-119423423D01*
X114605796Y-119425454D01*
X114492758Y-119483050D01*
X114492757Y-119483051D01*
X114492752Y-119483054D01*
X114403054Y-119572752D01*
X114403051Y-119572757D01*
X114345452Y-119685798D01*
X114330600Y-119779575D01*
X114330600Y-120405050D01*
X114310915Y-120472089D01*
X114258111Y-120517844D01*
X114188953Y-120527788D01*
X114125397Y-120498763D01*
X114087623Y-120439985D01*
X114083129Y-120416491D01*
X114079533Y-120377682D01*
X114076856Y-120348790D01*
X114018505Y-120143711D01*
X114018503Y-120143706D01*
X114018503Y-120143705D01*
X113923467Y-119952846D01*
X113794972Y-119782693D01*
X113778064Y-119767279D01*
X113637402Y-119639048D01*
X113456119Y-119526802D01*
X113456117Y-119526801D01*
X113343181Y-119483050D01*
X113257298Y-119449779D01*
X113047710Y-119410600D01*
X112834490Y-119410600D01*
X112624902Y-119449779D01*
X112624899Y-119449779D01*
X112624899Y-119449780D01*
X112426082Y-119526801D01*
X112426080Y-119526802D01*
X112244799Y-119639047D01*
X112087227Y-119782693D01*
X111958732Y-119952846D01*
X111863696Y-120143705D01*
X111863696Y-120143707D01*
X111805344Y-120348789D01*
X111794571Y-120465051D01*
X111768785Y-120529988D01*
X111724230Y-120561904D01*
X111760603Y-120582768D01*
X111792793Y-120644781D01*
X111794570Y-120657147D01*
X111805344Y-120773410D01*
X111855254Y-120948824D01*
X111863696Y-120978492D01*
X111863696Y-120978494D01*
X111958732Y-121169353D01*
X112058087Y-121300918D01*
X112087228Y-121339507D01*
X112100138Y-121351276D01*
X112136419Y-121410985D01*
X112140600Y-121442913D01*
X112140600Y-121649946D01*
X112171361Y-121804589D01*
X112171364Y-121804601D01*
X112231702Y-121950272D01*
X112231709Y-121950285D01*
X112319310Y-122081388D01*
X112319313Y-122081392D01*
X121256240Y-131018319D01*
X121289725Y-131079642D01*
X121284741Y-131149334D01*
X121242869Y-131205267D01*
X121177405Y-131229684D01*
X121168559Y-131230000D01*
X106561362Y-131230000D01*
X106494323Y-131210315D01*
X106473681Y-131193681D01*
X105266319Y-129986319D01*
X105232834Y-129924996D01*
X105230000Y-129898638D01*
X105230000Y-128181099D01*
X109245671Y-128181099D01*
X109245671Y-128181100D01*
X109265344Y-128393410D01*
X109323696Y-128598492D01*
X109323696Y-128598494D01*
X109418732Y-128789353D01*
X109514368Y-128915994D01*
X109547228Y-128959507D01*
X109704798Y-129103152D01*
X109886081Y-129215398D01*
X110084902Y-129292421D01*
X110294490Y-129331600D01*
X110294492Y-129331600D01*
X110507708Y-129331600D01*
X110507710Y-129331600D01*
X110717298Y-129292421D01*
X110916119Y-129215398D01*
X111097402Y-129103152D01*
X111254972Y-128959507D01*
X111383466Y-128789355D01*
X111478505Y-128598489D01*
X111536856Y-128393410D01*
X111547629Y-128277147D01*
X111573415Y-128212211D01*
X111615722Y-128181904D01*
X111724230Y-128181904D01*
X111760603Y-128202768D01*
X111792793Y-128264781D01*
X111794571Y-128277148D01*
X111805344Y-128393410D01*
X111863696Y-128598492D01*
X111863696Y-128598494D01*
X111958732Y-128789353D01*
X112054368Y-128915994D01*
X112087228Y-128959507D01*
X112244798Y-129103152D01*
X112426081Y-129215398D01*
X112624902Y-129292421D01*
X112834490Y-129331600D01*
X112834492Y-129331600D01*
X113047708Y-129331600D01*
X113047710Y-129331600D01*
X113257298Y-129292421D01*
X113456119Y-129215398D01*
X113637402Y-129103152D01*
X113794972Y-128959507D01*
X113923466Y-128789355D01*
X114018505Y-128598489D01*
X114076856Y-128393410D01*
X114087629Y-128277147D01*
X114113415Y-128212211D01*
X114155722Y-128181904D01*
X114264230Y-128181904D01*
X114300603Y-128202768D01*
X114332793Y-128264781D01*
X114334571Y-128277148D01*
X114345344Y-128393410D01*
X114403696Y-128598492D01*
X114403696Y-128598494D01*
X114498732Y-128789353D01*
X114594368Y-128915994D01*
X114627228Y-128959507D01*
X114784798Y-129103152D01*
X114966081Y-129215398D01*
X115164902Y-129292421D01*
X115374490Y-129331600D01*
X115374492Y-129331600D01*
X115587708Y-129331600D01*
X115587710Y-129331600D01*
X115797298Y-129292421D01*
X115996119Y-129215398D01*
X116177402Y-129103152D01*
X116334972Y-128959507D01*
X116463466Y-128789355D01*
X116558505Y-128598489D01*
X116616856Y-128393410D01*
X116636529Y-128181100D01*
X116616856Y-127968790D01*
X116558505Y-127763711D01*
X116558503Y-127763706D01*
X116558503Y-127763705D01*
X116463467Y-127572846D01*
X116334972Y-127402693D01*
X116316928Y-127386244D01*
X116177402Y-127259048D01*
X115996119Y-127146802D01*
X115996117Y-127146801D01*
X115896708Y-127108290D01*
X115797298Y-127069779D01*
X115587710Y-127030600D01*
X115374490Y-127030600D01*
X115164902Y-127069779D01*
X115164899Y-127069779D01*
X115164899Y-127069780D01*
X114966082Y-127146801D01*
X114966080Y-127146802D01*
X114784799Y-127259047D01*
X114627227Y-127402693D01*
X114498732Y-127572846D01*
X114403696Y-127763705D01*
X114403696Y-127763707D01*
X114345344Y-127968789D01*
X114334571Y-128085051D01*
X114308785Y-128149988D01*
X114264230Y-128181904D01*
X114155722Y-128181904D01*
X114157969Y-128180294D01*
X114121597Y-128159431D01*
X114089407Y-128097418D01*
X114087629Y-128085051D01*
X114081925Y-128023497D01*
X114076856Y-127968790D01*
X114018505Y-127763711D01*
X114018503Y-127763706D01*
X114018503Y-127763705D01*
X113923467Y-127572846D01*
X113794972Y-127402693D01*
X113776928Y-127386244D01*
X113637402Y-127259048D01*
X113456119Y-127146802D01*
X113456117Y-127146801D01*
X113356708Y-127108290D01*
X113257298Y-127069779D01*
X113047710Y-127030600D01*
X112834490Y-127030600D01*
X112624902Y-127069779D01*
X112624899Y-127069779D01*
X112624899Y-127069780D01*
X112426082Y-127146801D01*
X112426080Y-127146802D01*
X112244799Y-127259047D01*
X112087227Y-127402693D01*
X111958732Y-127572846D01*
X111863696Y-127763705D01*
X111863696Y-127763707D01*
X111805344Y-127968789D01*
X111794571Y-128085051D01*
X111768785Y-128149988D01*
X111724230Y-128181904D01*
X111615722Y-128181904D01*
X111617969Y-128180294D01*
X111581597Y-128159431D01*
X111549407Y-128097418D01*
X111547629Y-128085051D01*
X111541925Y-128023497D01*
X111536856Y-127968790D01*
X111478505Y-127763711D01*
X111478503Y-127763706D01*
X111478503Y-127763705D01*
X111383467Y-127572846D01*
X111254972Y-127402693D01*
X111236928Y-127386244D01*
X111097402Y-127259048D01*
X110916119Y-127146802D01*
X110916117Y-127146801D01*
X110816708Y-127108290D01*
X110717298Y-127069779D01*
X110507710Y-127030600D01*
X110294490Y-127030600D01*
X110084902Y-127069779D01*
X110084899Y-127069779D01*
X110084899Y-127069780D01*
X109886082Y-127146801D01*
X109886080Y-127146802D01*
X109704799Y-127259047D01*
X109547227Y-127402693D01*
X109418732Y-127572846D01*
X109323696Y-127763705D01*
X109323696Y-127763707D01*
X109265344Y-127968789D01*
X109245671Y-128181099D01*
X105230000Y-128181099D01*
X105230000Y-120561100D01*
X106705671Y-120561100D01*
X106725344Y-120773410D01*
X106775254Y-120948824D01*
X106783696Y-120978492D01*
X106783696Y-120978494D01*
X106878732Y-121169353D01*
X106987172Y-121312949D01*
X107007228Y-121339507D01*
X107164798Y-121483152D01*
X107346081Y-121595398D01*
X107544902Y-121672421D01*
X107754490Y-121711600D01*
X107754492Y-121711600D01*
X107967708Y-121711600D01*
X107967710Y-121711600D01*
X108177298Y-121672421D01*
X108376119Y-121595398D01*
X108557402Y-121483152D01*
X108714972Y-121339507D01*
X108843466Y-121169355D01*
X108882527Y-121090910D01*
X108938503Y-120978494D01*
X108938503Y-120978493D01*
X108938505Y-120978489D01*
X108996856Y-120773410D01*
X109007629Y-120657147D01*
X109033415Y-120592211D01*
X109075722Y-120561904D01*
X109184230Y-120561904D01*
X109220603Y-120582768D01*
X109252793Y-120644781D01*
X109254570Y-120657147D01*
X109265344Y-120773410D01*
X109315254Y-120948824D01*
X109323696Y-120978492D01*
X109323696Y-120978494D01*
X109418732Y-121169353D01*
X109527172Y-121312949D01*
X109547228Y-121339507D01*
X109704798Y-121483152D01*
X109886081Y-121595398D01*
X110084902Y-121672421D01*
X110294490Y-121711600D01*
X110294492Y-121711600D01*
X110507708Y-121711600D01*
X110507710Y-121711600D01*
X110717298Y-121672421D01*
X110916119Y-121595398D01*
X111097402Y-121483152D01*
X111254972Y-121339507D01*
X111383466Y-121169355D01*
X111422527Y-121090910D01*
X111478503Y-120978494D01*
X111478503Y-120978493D01*
X111478505Y-120978489D01*
X111536856Y-120773410D01*
X111547629Y-120657147D01*
X111573415Y-120592211D01*
X111617969Y-120560294D01*
X111581597Y-120539431D01*
X111549407Y-120477418D01*
X111547629Y-120465051D01*
X111539533Y-120377682D01*
X111536856Y-120348790D01*
X111478505Y-120143711D01*
X111478503Y-120143706D01*
X111478503Y-120143705D01*
X111383467Y-119952846D01*
X111254972Y-119782693D01*
X111238064Y-119767279D01*
X111097402Y-119639048D01*
X110916119Y-119526802D01*
X110916117Y-119526801D01*
X110803181Y-119483050D01*
X110717298Y-119449779D01*
X110507710Y-119410600D01*
X110294490Y-119410600D01*
X110084902Y-119449779D01*
X110084899Y-119449779D01*
X110084899Y-119449780D01*
X109886082Y-119526801D01*
X109886080Y-119526802D01*
X109704799Y-119639047D01*
X109547227Y-119782693D01*
X109418732Y-119952846D01*
X109323696Y-120143705D01*
X109323696Y-120143707D01*
X109265344Y-120348789D01*
X109254571Y-120465051D01*
X109228785Y-120529988D01*
X109184230Y-120561904D01*
X109075722Y-120561904D01*
X109077969Y-120560294D01*
X109041597Y-120539431D01*
X109009407Y-120477418D01*
X109007629Y-120465051D01*
X108999533Y-120377682D01*
X108996856Y-120348790D01*
X108938505Y-120143711D01*
X108938503Y-120143706D01*
X108938503Y-120143705D01*
X108843467Y-119952846D01*
X108714972Y-119782693D01*
X108698064Y-119767279D01*
X108557402Y-119639048D01*
X108376119Y-119526802D01*
X108376117Y-119526801D01*
X108263181Y-119483050D01*
X108177298Y-119449779D01*
X107967710Y-119410600D01*
X107754490Y-119410600D01*
X107544902Y-119449779D01*
X107544899Y-119449779D01*
X107544899Y-119449780D01*
X107346082Y-119526801D01*
X107346080Y-119526802D01*
X107164799Y-119639047D01*
X107007227Y-119782693D01*
X106878732Y-119952846D01*
X106783696Y-120143705D01*
X106783696Y-120143707D01*
X106725344Y-120348789D01*
X106707246Y-120544108D01*
X106705671Y-120561100D01*
X105230000Y-120561100D01*
X105230000Y-104686099D01*
X107975671Y-104686099D01*
X107975671Y-104686100D01*
X107995344Y-104898410D01*
X108053696Y-105103492D01*
X108053696Y-105103494D01*
X108148732Y-105294353D01*
X108277227Y-105464506D01*
X108277228Y-105464507D01*
X108434798Y-105608152D01*
X108434800Y-105608153D01*
X108434801Y-105608154D01*
X108571877Y-105693028D01*
X108618513Y-105745056D01*
X108630600Y-105798455D01*
X108630600Y-106113744D01*
X108610915Y-106180783D01*
X108571878Y-106219171D01*
X108434799Y-106304047D01*
X108277227Y-106447693D01*
X108148732Y-106617846D01*
X108053696Y-106808705D01*
X108053696Y-106808707D01*
X107995344Y-107013789D01*
X107975671Y-107226099D01*
X107975671Y-107226100D01*
X107995344Y-107438410D01*
X108053696Y-107643492D01*
X108053696Y-107643494D01*
X108148732Y-107834353D01*
X108148734Y-107834355D01*
X108277228Y-108004507D01*
X108434798Y-108148152D01*
X108616081Y-108260398D01*
X108814902Y-108337421D01*
X109011713Y-108374211D01*
X109073993Y-108405879D01*
X109109266Y-108466192D01*
X109106332Y-108536000D01*
X109066123Y-108593140D01*
X109011713Y-108617988D01*
X108814902Y-108654779D01*
X108814899Y-108654779D01*
X108814899Y-108654780D01*
X108616082Y-108731801D01*
X108616080Y-108731802D01*
X108434799Y-108844047D01*
X108277227Y-108987693D01*
X108148732Y-109157846D01*
X108053696Y-109348705D01*
X108053696Y-109348707D01*
X107998525Y-109542611D01*
X107995344Y-109553790D01*
X107975671Y-109766100D01*
X107995344Y-109978410D01*
X108051533Y-110175892D01*
X108053696Y-110183492D01*
X108053696Y-110183494D01*
X108148732Y-110374353D01*
X108148734Y-110374355D01*
X108277228Y-110544507D01*
X108434798Y-110688152D01*
X108616081Y-110800398D01*
X108814902Y-110877421D01*
X109024490Y-110916600D01*
X109024492Y-110916600D01*
X109237708Y-110916600D01*
X109237710Y-110916600D01*
X109447298Y-110877421D01*
X109646119Y-110800398D01*
X109827402Y-110688152D01*
X109984972Y-110544507D01*
X110113466Y-110374355D01*
X110208505Y-110183489D01*
X110266856Y-109978410D01*
X110286529Y-109766100D01*
X110266856Y-109553790D01*
X110208505Y-109348711D01*
X110208503Y-109348706D01*
X110208503Y-109348705D01*
X110113467Y-109157846D01*
X109984972Y-108987693D01*
X109827402Y-108844048D01*
X109646119Y-108731802D01*
X109646117Y-108731801D01*
X109546708Y-108693290D01*
X109447298Y-108654779D01*
X109250485Y-108617988D01*
X109188206Y-108586321D01*
X109152933Y-108526008D01*
X109155867Y-108456200D01*
X109196076Y-108399060D01*
X109250484Y-108374211D01*
X109447298Y-108337421D01*
X109646119Y-108260398D01*
X109827402Y-108148152D01*
X109984972Y-108004507D01*
X110113466Y-107834355D01*
X110130484Y-107800178D01*
X110132899Y-107795329D01*
X110180402Y-107744091D01*
X110243899Y-107726600D01*
X111107424Y-107726600D01*
X111174463Y-107746285D01*
X111195105Y-107762919D01*
X121143181Y-117710994D01*
X121176666Y-117772317D01*
X121179500Y-117798675D01*
X121179500Y-120544108D01*
X121179500Y-120675892D01*
X121187489Y-120705706D01*
X121213608Y-120803187D01*
X121221158Y-120816263D01*
X121279500Y-120917314D01*
X121279502Y-120917316D01*
X126374281Y-126012095D01*
X126407766Y-126073418D01*
X126410600Y-126099776D01*
X126410600Y-127386244D01*
X126390915Y-127453283D01*
X126351878Y-127491671D01*
X126214799Y-127576547D01*
X126057227Y-127720193D01*
X125928732Y-127890346D01*
X125833696Y-128081205D01*
X125833696Y-128081207D01*
X125775344Y-128286289D01*
X125755671Y-128498599D01*
X125755671Y-128498600D01*
X125775344Y-128710910D01*
X125833696Y-128915992D01*
X125833696Y-128915994D01*
X125928732Y-129106853D01*
X126057227Y-129277006D01*
X126057228Y-129277007D01*
X126214798Y-129420652D01*
X126396081Y-129532898D01*
X126594902Y-129609921D01*
X126804490Y-129649100D01*
X126804492Y-129649100D01*
X127017708Y-129649100D01*
X127017710Y-129649100D01*
X127227298Y-129609921D01*
X127426119Y-129532898D01*
X127607402Y-129420652D01*
X127764972Y-129277007D01*
X127893466Y-129106855D01*
X127966836Y-128959507D01*
X127988503Y-128915994D01*
X127988503Y-128915993D01*
X127988505Y-128915989D01*
X128046856Y-128710910D01*
X128057629Y-128594647D01*
X128083415Y-128529711D01*
X128125722Y-128499404D01*
X128234230Y-128499404D01*
X128270603Y-128520268D01*
X128302793Y-128582281D01*
X128304571Y-128594648D01*
X128315344Y-128710910D01*
X128373696Y-128915992D01*
X128373696Y-128915994D01*
X128468732Y-129106853D01*
X128597227Y-129277006D01*
X128597228Y-129277007D01*
X128754798Y-129420652D01*
X128936081Y-129532898D01*
X129134902Y-129609921D01*
X129344490Y-129649100D01*
X129344492Y-129649100D01*
X129557708Y-129649100D01*
X129557710Y-129649100D01*
X129767298Y-129609921D01*
X129966119Y-129532898D01*
X130147402Y-129420652D01*
X130304972Y-129277007D01*
X130433466Y-129106855D01*
X130506836Y-128959507D01*
X130528503Y-128915994D01*
X130528503Y-128915993D01*
X130528505Y-128915989D01*
X130586856Y-128710910D01*
X130597629Y-128594647D01*
X130623415Y-128529711D01*
X130667969Y-128497794D01*
X130631597Y-128476931D01*
X130599407Y-128414918D01*
X130597629Y-128402551D01*
X130596782Y-128393410D01*
X130586856Y-128286290D01*
X130528505Y-128081211D01*
X130528503Y-128081206D01*
X130528503Y-128081205D01*
X130433467Y-127890346D01*
X130304972Y-127720193D01*
X130295060Y-127711157D01*
X130147402Y-127576548D01*
X129966119Y-127464302D01*
X129966117Y-127464301D01*
X129807086Y-127402693D01*
X129767298Y-127387279D01*
X129557710Y-127348100D01*
X129344490Y-127348100D01*
X129134902Y-127387279D01*
X129134899Y-127387279D01*
X129134899Y-127387280D01*
X128936082Y-127464301D01*
X128936080Y-127464302D01*
X128754799Y-127576547D01*
X128597227Y-127720193D01*
X128468732Y-127890346D01*
X128373696Y-128081205D01*
X128373696Y-128081207D01*
X128315344Y-128286289D01*
X128304571Y-128402551D01*
X128278785Y-128467488D01*
X128234230Y-128499404D01*
X128125722Y-128499404D01*
X128127969Y-128497794D01*
X128091597Y-128476931D01*
X128059407Y-128414918D01*
X128057629Y-128402551D01*
X128056782Y-128393410D01*
X128046856Y-128286290D01*
X127988505Y-128081211D01*
X127988503Y-128081206D01*
X127988503Y-128081205D01*
X127893467Y-127890346D01*
X127764972Y-127720193D01*
X127755060Y-127711157D01*
X127607402Y-127576548D01*
X127557509Y-127545655D01*
X127470322Y-127491671D01*
X127423687Y-127439643D01*
X127411600Y-127386244D01*
X127411600Y-125775210D01*
X127411600Y-125775208D01*
X127377492Y-125647914D01*
X127311600Y-125533786D01*
X127218414Y-125440600D01*
X123984861Y-122207047D01*
X123951376Y-122145724D01*
X123956360Y-122076032D01*
X123998232Y-122020099D01*
X124063696Y-121995682D01*
X124095320Y-121997476D01*
X124264490Y-122029100D01*
X124264492Y-122029100D01*
X124477708Y-122029100D01*
X124477710Y-122029100D01*
X124687298Y-121989921D01*
X124886119Y-121912898D01*
X125067402Y-121800652D01*
X125224972Y-121657007D01*
X125353466Y-121486855D01*
X125378589Y-121436401D01*
X125448503Y-121295994D01*
X125448503Y-121295993D01*
X125448505Y-121295989D01*
X125506856Y-121090910D01*
X125517629Y-120974647D01*
X125543415Y-120909711D01*
X125585722Y-120879404D01*
X125694230Y-120879404D01*
X125730603Y-120900268D01*
X125762793Y-120962281D01*
X125764571Y-120974648D01*
X125775344Y-121090910D01*
X125833696Y-121295992D01*
X125833696Y-121295994D01*
X125928732Y-121486853D01*
X126057227Y-121657006D01*
X126057228Y-121657007D01*
X126214798Y-121800652D01*
X126396081Y-121912898D01*
X126594902Y-121989921D01*
X126804490Y-122029100D01*
X126804492Y-122029100D01*
X127017708Y-122029100D01*
X127017710Y-122029100D01*
X127227298Y-121989921D01*
X127426119Y-121912898D01*
X127607402Y-121800652D01*
X127764972Y-121657007D01*
X127893466Y-121486855D01*
X127918589Y-121436401D01*
X127988503Y-121295994D01*
X127988503Y-121295993D01*
X127988505Y-121295989D01*
X128046856Y-121090910D01*
X128057629Y-120974647D01*
X128083415Y-120909711D01*
X128127969Y-120877794D01*
X128091597Y-120856931D01*
X128059407Y-120794918D01*
X128057629Y-120782551D01*
X128049362Y-120693337D01*
X128046856Y-120666290D01*
X127988505Y-120461211D01*
X127988503Y-120461206D01*
X127988503Y-120461205D01*
X127893467Y-120270346D01*
X127764972Y-120100193D01*
X127761552Y-120097075D01*
X127607402Y-119956548D01*
X127426119Y-119844302D01*
X127426117Y-119844301D01*
X127259038Y-119779575D01*
X127227298Y-119767279D01*
X127017710Y-119728100D01*
X126804490Y-119728100D01*
X126594902Y-119767279D01*
X126594899Y-119767279D01*
X126594899Y-119767280D01*
X126396082Y-119844301D01*
X126396080Y-119844302D01*
X126214799Y-119956547D01*
X126057227Y-120100193D01*
X125928732Y-120270346D01*
X125833696Y-120461205D01*
X125833696Y-120461207D01*
X125775344Y-120666289D01*
X125764571Y-120782551D01*
X125738785Y-120847488D01*
X125694230Y-120879404D01*
X125585722Y-120879404D01*
X125587969Y-120877794D01*
X125551597Y-120856931D01*
X125519407Y-120794918D01*
X125517629Y-120782551D01*
X125509362Y-120693337D01*
X125506856Y-120666290D01*
X125448505Y-120461211D01*
X125448503Y-120461206D01*
X125448503Y-120461205D01*
X125353467Y-120270346D01*
X125224972Y-120100193D01*
X125221552Y-120097075D01*
X125067402Y-119956548D01*
X124886119Y-119844302D01*
X124886117Y-119844301D01*
X124719038Y-119779575D01*
X124687298Y-119767279D01*
X124477710Y-119728100D01*
X124264490Y-119728100D01*
X124054902Y-119767279D01*
X124054899Y-119767279D01*
X124054899Y-119767280D01*
X123856082Y-119844301D01*
X123856080Y-119844302D01*
X123674799Y-119956547D01*
X123517227Y-120100193D01*
X123388732Y-120270346D01*
X123293696Y-120461205D01*
X123293696Y-120461207D01*
X123235344Y-120666289D01*
X123215671Y-120878599D01*
X123215671Y-120878600D01*
X123235344Y-121090912D01*
X123250478Y-121144102D01*
X123249891Y-121213969D01*
X123211625Y-121272428D01*
X123147827Y-121300918D01*
X123078755Y-121290394D01*
X123043531Y-121265717D01*
X122216819Y-120439005D01*
X122183334Y-120377682D01*
X122180500Y-120351324D01*
X122180500Y-117474110D01*
X122180500Y-117474108D01*
X122146392Y-117346814D01*
X122080500Y-117232686D01*
X121987314Y-117139500D01*
X121987313Y-117139499D01*
X121982983Y-117135169D01*
X121982972Y-117135159D01*
X111673416Y-106825602D01*
X111673415Y-106825601D01*
X111673414Y-106825600D01*
X111616350Y-106792654D01*
X111559287Y-106759708D01*
X111495639Y-106742654D01*
X111431992Y-106725600D01*
X111431991Y-106725600D01*
X110243899Y-106725600D01*
X110176860Y-106705915D01*
X110132899Y-106656871D01*
X110113467Y-106617846D01*
X109984972Y-106447693D01*
X109827402Y-106304048D01*
X109771605Y-106269500D01*
X109690322Y-106219171D01*
X109643687Y-106167143D01*
X109631600Y-106113744D01*
X109631600Y-105798455D01*
X109651285Y-105731416D01*
X109690323Y-105693028D01*
X109710558Y-105680499D01*
X109827402Y-105608152D01*
X109984972Y-105464507D01*
X110113466Y-105294355D01*
X110208505Y-105103489D01*
X110266856Y-104898410D01*
X110286529Y-104686100D01*
X110266856Y-104473790D01*
X110208505Y-104268711D01*
X110208503Y-104268706D01*
X110208503Y-104268705D01*
X110113467Y-104077846D01*
X109984972Y-103907693D01*
X109962995Y-103887658D01*
X109827402Y-103764048D01*
X109646119Y-103651802D01*
X109646117Y-103651801D01*
X109510228Y-103599158D01*
X109447298Y-103574779D01*
X109274556Y-103542487D01*
X109212276Y-103510819D01*
X109177003Y-103450507D01*
X109179937Y-103380699D01*
X109220146Y-103323559D01*
X109284864Y-103297228D01*
X109297334Y-103296599D01*
X109912618Y-103296599D01*
X110006404Y-103281746D01*
X110119442Y-103224150D01*
X110209150Y-103134442D01*
X110266746Y-103021404D01*
X110266746Y-103021402D01*
X110266747Y-103021401D01*
X110281599Y-102927624D01*
X110281600Y-102927619D01*
X110281599Y-101364582D01*
X110266746Y-101270796D01*
X110209150Y-101157758D01*
X110209146Y-101157754D01*
X110209145Y-101157752D01*
X110119447Y-101068054D01*
X110119444Y-101068052D01*
X110119442Y-101068050D01*
X110042617Y-101028905D01*
X110006401Y-101010452D01*
X109912624Y-100995600D01*
X108349582Y-100995600D01*
X108268619Y-101008423D01*
X108255796Y-101010454D01*
X108142758Y-101068050D01*
X108142757Y-101068051D01*
X108142752Y-101068054D01*
X108053054Y-101157752D01*
X108053051Y-101157757D01*
X107995452Y-101270798D01*
X107980600Y-101364575D01*
X107980600Y-102927617D01*
X107989359Y-102982919D01*
X107995454Y-103021404D01*
X108053050Y-103134442D01*
X108053052Y-103134444D01*
X108053054Y-103134447D01*
X108142752Y-103224145D01*
X108142754Y-103224146D01*
X108142758Y-103224150D01*
X108255794Y-103281745D01*
X108255798Y-103281747D01*
X108349575Y-103296599D01*
X108349581Y-103296600D01*
X108964858Y-103296599D01*
X109031895Y-103316283D01*
X109077650Y-103369087D01*
X109087594Y-103438246D01*
X109058569Y-103501802D01*
X108999791Y-103539576D01*
X108987642Y-103542488D01*
X108931216Y-103553035D01*
X108814902Y-103574779D01*
X108814900Y-103574779D01*
X108814898Y-103574780D01*
X108616082Y-103651801D01*
X108616080Y-103651802D01*
X108434799Y-103764047D01*
X108277227Y-103907693D01*
X108148732Y-104077846D01*
X108053696Y-104268705D01*
X108053696Y-104268707D01*
X107995344Y-104473789D01*
X107975671Y-104686099D01*
X105230000Y-104686099D01*
X105230000Y-73751362D01*
X105249685Y-73684323D01*
X105266319Y-73663681D01*
X106567103Y-72362897D01*
X107965656Y-70964343D01*
X108026977Y-70930860D01*
X108047110Y-70932299D01*
X108060000Y-70919998D01*
X108060000Y-70920000D01*
X109774065Y-69284291D01*
X109836155Y-69252251D01*
X109859672Y-69250000D01*
X128210000Y-69250000D01*
X129050000Y-68220000D01*
X129050000Y-64328750D01*
X129069685Y-64261711D01*
X129122489Y-64215956D01*
X129191647Y-64206012D01*
X129196742Y-64206853D01*
X129395990Y-64244100D01*
X129395992Y-64244100D01*
X129609208Y-64244100D01*
X129609210Y-64244100D01*
X129818798Y-64204921D01*
X130017619Y-64127898D01*
X130198902Y-64015652D01*
X130356472Y-63872007D01*
X130484966Y-63701855D01*
X130580005Y-63510989D01*
X130638356Y-63305910D01*
X130658029Y-63093600D01*
X130638356Y-62881290D01*
X130580005Y-62676211D01*
X130580003Y-62676206D01*
X130580003Y-62676205D01*
X130484967Y-62485346D01*
X130356470Y-62315191D01*
X130305099Y-62268360D01*
X130268817Y-62208649D01*
X130270578Y-62138802D01*
X130300952Y-62089047D01*
X131060081Y-61329919D01*
X131121404Y-61296434D01*
X131147762Y-61293600D01*
X135834600Y-61293600D01*
X135901639Y-61313285D01*
G37*
%TD.AperFunction*%
%TD*%
M02*
