M48
INCH
T1C0.0236
T2C0.0315
T3C0.0394
T4C0.0441
T5C0.0472
%
G90
G05
T1
X4.2465Y-4.7465
X4.2465Y-5.0465
X4.2965Y-4.0215
X4.2965Y-4.1215
X4.2965Y-4.2215
X4.2965Y-4.3215
X4.3465Y-4.7465
X4.3465Y-5.0465
X4.4465Y-4.7465
X4.4465Y-5.0465
X4.5465Y-4.7465
X4.5465Y-5.0465
X4.5965Y-4.0215
X4.5965Y-4.1215
X4.5965Y-4.2215
X4.5965Y-4.3215
X4.8965Y-4.759
X4.8965Y-5.059
X4.9965Y-4.759
X4.9965Y-5.059
X5.0567Y-4.0291
X5.0567Y-4.1291
X5.0567Y-4.2291
X5.0567Y-4.3291
X5.0965Y-4.759
X5.0965Y-5.059
X5.0985Y-2.484
X5.1965Y-4.759
X5.1965Y-5.059
X5.2985Y-2.484
X5.3567Y-4.0291
X5.3567Y-4.1291
X5.3567Y-4.2291
X5.3567Y-4.3291
X5.4985Y-2.484
X5.5985Y-2.484
X6.084Y-2.934
X6.084Y-3.034
X6.084Y-3.134
X6.084Y-3.234
X6.384Y-2.934
X6.384Y-3.034
X6.384Y-3.134
X6.384Y-3.234
X6.9047Y-4.8587
X6.9047Y-4.9587
X6.9047Y-5.0587
X6.9047Y-5.1587
X6.9047Y-5.2587
X6.9047Y-5.3587
X6.9047Y-5.4587
X6.9047Y-5.5587
X7.2047Y-4.8587
X7.2047Y-4.9587
X7.2047Y-5.0587
X7.2047Y-5.1587
X7.2047Y-5.2587
X7.2047Y-5.3587
X7.2047Y-5.4587
X7.2047Y-5.5587
T2
X5.0417Y-3.378
X5.1417Y-3.378
X5.2417Y-3.378
X5.5693Y-4.0098
X5.5693Y-4.1098
X5.5693Y-4.2098
X5.7429Y-4.0283
X5.7429Y-4.1283
X5.7429Y-4.2283
X5.7429Y-4.3283
X5.7429Y-4.4283
X5.7429Y-4.5283
X5.7429Y-4.6283
X5.7429Y-4.7283
X5.7429Y-4.8283
X5.7429Y-4.9283
X5.7429Y-5.0283
X5.7429Y-5.1283
X5.7429Y-5.2283
X5.7429Y-5.3283
X5.7429Y-5.4283
X5.7429Y-5.5283
X5.7429Y-5.6283
X5.7431Y-3.8285
X5.7431Y-3.9285
X6.7429Y-3.8283
X6.7429Y-3.9283
X6.7429Y-4.0283
X6.7429Y-4.1283
X6.7429Y-4.2283
X6.7429Y-4.3283
X6.7429Y-4.4283
X6.7429Y-4.5283
X6.7429Y-4.6283
X6.7429Y-4.7283
X6.7429Y-4.8283
X6.7429Y-4.9283
X6.7429Y-5.0283
X6.7429Y-5.1283
X6.7429Y-5.2283
X6.7429Y-5.3283
X6.7429Y-5.4283
X6.7429Y-5.5283
X6.7429Y-5.6283
T3
X4.609Y-2.284
X4.609Y-2.384
T4
X4.3366Y-2.8917
X4.3366Y-3.465
X4.4366Y-2.8917
X4.4366Y-3.465
X4.5366Y-2.8917
X4.5366Y-3.465
X5.9866Y-5.9382
X6.0866Y-5.9382
X6.1866Y-5.9382
X6.2866Y-5.9382
X6.3866Y-5.9382
X6.4866Y-5.9382
X6.6137Y-3.0323
X6.6137Y-3.2823
X6.7137Y-3.0323
X6.7137Y-3.2823
X6.9928Y-3.3484
X6.9928Y-3.5984
X6.9928Y-3.8485
X6.9928Y-4.0985
X7.0928Y-3.3484
X7.0928Y-3.5984
X7.0928Y-3.8485
X7.0928Y-4.0985
T5
X6.2215Y-2.4924
X6.3215Y-2.4924
X6.4215Y-2.4924
T3
G00X6.6528Y-2.3709
M15
G01X6.6528Y-2.4496
M16
G05
G00X6.8772Y-2.2921
M15
G01X6.7984Y-2.2921
M16
G05
G00X6.8772Y-2.5283
M15
G01X6.7984Y-2.5283
M16
G05
M30
