%TF.GenerationSoftware,KiCad,Pcbnew,8.0.8*%
%TF.CreationDate,2025-02-04T20:34:59-06:00*%
%TF.ProjectId,DMXtoMotionPCB_V3,444d5874-6f4d-46f7-9469-6f6e5043425f,rev?*%
%TF.SameCoordinates,Original*%
%TF.FileFunction,Soldermask,Bot*%
%TF.FilePolarity,Negative*%
%FSLAX46Y46*%
G04 Gerber Fmt 4.6, Leading zero omitted, Abs format (unit mm)*
G04 Created by KiCad (PCBNEW 8.0.8) date 2025-02-04 20:34:59*
%MOMM*%
%LPD*%
G01*
G04 APERTURE LIST*
G04 Aperture macros list*
%AMRoundRect*
0 Rectangle with rounded corners*
0 $1 Rounding radius*
0 $2 $3 $4 $5 $6 $7 $8 $9 X,Y pos of 4 corners*
0 Add a 4 corners polygon primitive as box body*
4,1,4,$2,$3,$4,$5,$6,$7,$8,$9,$2,$3,0*
0 Add four circle primitives for the rounded corners*
1,1,$1+$1,$2,$3*
1,1,$1+$1,$4,$5*
1,1,$1+$1,$6,$7*
1,1,$1+$1,$8,$9*
0 Add four rect primitives between the rounded corners*
20,1,$1+$1,$2,$3,$4,$5,0*
20,1,$1+$1,$4,$5,$6,$7,0*
20,1,$1+$1,$6,$7,$8,$9,0*
20,1,$1+$1,$8,$9,$2,$3,0*%
G04 Aperture macros list end*
%ADD10RoundRect,0.050800X-0.800000X-0.800000X0.800000X-0.800000X0.800000X0.800000X-0.800000X0.800000X0*%
%ADD11C,1.701600*%
%ADD12RoundRect,0.050800X0.850000X0.850000X-0.850000X0.850000X-0.850000X-0.850000X0.850000X-0.850000X0*%
%ADD13C,1.801600*%
%ADD14RoundRect,0.050800X-0.849975X-0.850025X0.850025X-0.849975X0.849975X0.850025X-0.850025X0.849975X0*%
%ADD15RoundRect,0.050800X-0.850000X-0.850000X0.850000X-0.850000X0.850000X0.850000X-0.850000X0.850000X0*%
%ADD16RoundRect,0.050800X-0.900000X-0.900000X0.900000X-0.900000X0.900000X0.900000X-0.900000X0.900000X0*%
%ADD17C,1.901600*%
%ADD18RoundRect,0.050800X0.750000X-0.750000X0.750000X0.750000X-0.750000X0.750000X-0.750000X-0.750000X0*%
%ADD19C,1.601600*%
%ADD20RoundRect,0.050800X0.810000X-0.810000X0.810000X0.810000X-0.810000X0.810000X-0.810000X-0.810000X0*%
%ADD21C,1.721600*%
%ADD22RoundRect,0.050800X-0.810000X-0.810000X0.810000X-0.810000X0.810000X0.810000X-0.810000X0.810000X0*%
%ADD23R,3.500000X3.500000*%
%ADD24RoundRect,0.750000X-1.000000X0.750000X-1.000000X-0.750000X1.000000X-0.750000X1.000000X0.750000X0*%
%ADD25RoundRect,0.875000X-0.875000X0.875000X-0.875000X-0.875000X0.875000X-0.875000X0.875000X0.875000X0*%
%ADD26C,3.000000*%
%ADD27R,2.000000X1.200000*%
%ADD28O,2.000000X1.200000*%
%ADD29RoundRect,0.050800X0.750000X0.750000X-0.750000X0.750000X-0.750000X-0.750000X0.750000X-0.750000X0*%
%ADD30RoundRect,0.050800X-0.750000X-0.750000X0.750000X-0.750000X0.750000X0.750000X-0.750000X0.750000X0*%
G04 APERTURE END LIST*
D10*
%TO.C,D1*%
X117068600Y-58013600D03*
D11*
X117068600Y-60553600D03*
%TD*%
D12*
%TO.C,J5*%
X164760000Y-150830000D03*
D13*
X162220000Y-150830000D03*
X159680000Y-150830000D03*
X157140000Y-150830000D03*
X154600000Y-150830000D03*
X152060000Y-150830000D03*
%TD*%
D14*
%TO.C,J8*%
X177617000Y-104102037D03*
D13*
X180157000Y-104101963D03*
%TD*%
D15*
%TO.C,J10*%
X177617000Y-91400000D03*
D13*
X180157000Y-91400000D03*
%TD*%
D15*
%TO.C,J9*%
X177617000Y-85049500D03*
D13*
X180157000Y-85049500D03*
%TD*%
D15*
%TO.C,J6*%
X167987500Y-83369500D03*
D13*
X170527500Y-83369500D03*
%TD*%
D14*
%TO.C,J7*%
X167987500Y-77019537D03*
D13*
X170527500Y-77019463D03*
%TD*%
D15*
%TO.C,J4*%
X177617000Y-97751000D03*
D13*
X180157000Y-97751000D03*
%TD*%
D16*
%TO.C,U4*%
X158026100Y-63306100D03*
D17*
X163106100Y-63306100D03*
X160566100Y-63306100D03*
%TD*%
D18*
%TO.C,VO4*%
X175380000Y-123410000D03*
D19*
X175380000Y-125950000D03*
X175380000Y-128490000D03*
X175380000Y-131030000D03*
X175380000Y-133570000D03*
X175380000Y-136110000D03*
X175380000Y-138650000D03*
X175380000Y-141190000D03*
X183000000Y-141190000D03*
X183000000Y-138650000D03*
X183000000Y-136110000D03*
X183000000Y-133570000D03*
X183000000Y-131030000D03*
X183000000Y-128490000D03*
X183000000Y-125950000D03*
X183000000Y-123410000D03*
%TD*%
D18*
%TO.C,U5*%
X154533600Y-74523600D03*
D19*
X154533600Y-77063600D03*
X154533600Y-79603600D03*
X154533600Y-82143600D03*
X162153600Y-82143600D03*
X162153600Y-79603600D03*
X162153600Y-77063600D03*
X162153600Y-74523600D03*
%TD*%
D20*
%TO.C,S4*%
X141460000Y-106930000D03*
D21*
X141460000Y-104390000D03*
X141460000Y-101850000D03*
%TD*%
D22*
%TO.C,S3*%
X128060000Y-85800000D03*
D21*
X130600000Y-85800000D03*
X133140000Y-85800000D03*
%TD*%
D23*
%TO.C,J1*%
X173680000Y-64220000D03*
D24*
X173680000Y-58220000D03*
D25*
X168980000Y-61220000D03*
%TD*%
D26*
%TO.C,@HOLE1*%
X103001100Y-121003600D03*
%TD*%
%TO.C,@HOLE3*%
X190820000Y-120720000D03*
%TD*%
D27*
%TO.C,U6*%
X171270000Y-142960000D03*
D28*
X171270000Y-140420000D03*
X171270000Y-137880000D03*
X171270000Y-135340000D03*
X171270000Y-132800000D03*
X171270000Y-130260000D03*
X171270000Y-127720000D03*
X171270000Y-125180000D03*
X171270000Y-122640000D03*
X171270000Y-120100000D03*
X171270000Y-117560000D03*
X171270000Y-115020000D03*
X171270000Y-112480000D03*
X171270000Y-109940000D03*
X171270000Y-107400000D03*
X171270000Y-104860000D03*
X171270000Y-102320000D03*
X171270000Y-99780000D03*
X171270000Y-97240000D03*
X145873680Y-97242720D03*
X145873680Y-99782720D03*
X145870000Y-102320000D03*
X145870000Y-104860000D03*
X145870000Y-107400000D03*
X145870000Y-109940000D03*
X145870000Y-112480000D03*
X145870000Y-115020000D03*
X145870000Y-117560000D03*
X145870000Y-120100000D03*
X145870000Y-122640000D03*
X145870000Y-125180000D03*
X145870000Y-127720000D03*
X145870000Y-130260000D03*
X145870000Y-132800000D03*
X145870000Y-135340000D03*
X145870000Y-137880000D03*
X145870000Y-140420000D03*
X145870000Y-142960000D03*
%TD*%
D26*
%TO.C,@HOLE0*%
X103001100Y-89003600D03*
%TD*%
%TO.C,@HOLE2*%
X189820000Y-88720000D03*
%TD*%
D19*
%TO.C,U1*%
X129502600Y-63093600D03*
X134582600Y-63093600D03*
X139662600Y-63093600D03*
D29*
X142202600Y-63093600D03*
%TD*%
D18*
%TO.C,VO1*%
X128440000Y-102340000D03*
D19*
X128440000Y-104880000D03*
X128440000Y-107420000D03*
X128440000Y-109960000D03*
X136060000Y-109960000D03*
X136060000Y-107420000D03*
X136060000Y-104880000D03*
X136060000Y-102340000D03*
%TD*%
D30*
%TO.C,VO2*%
X115481100Y-120561100D03*
D19*
X112941100Y-120561100D03*
X110401100Y-120561100D03*
X107861100Y-120561100D03*
X107861100Y-128181100D03*
X110401100Y-128181100D03*
X112941100Y-128181100D03*
X115481100Y-128181100D03*
%TD*%
D30*
%TO.C,VO3*%
X131991100Y-120878600D03*
D19*
X129451100Y-120878600D03*
X126911100Y-120878600D03*
X124371100Y-120878600D03*
X124371100Y-128498600D03*
X126911100Y-128498600D03*
X129451100Y-128498600D03*
X131991100Y-128498600D03*
%TD*%
D18*
%TO.C,U2*%
X109131100Y-102146100D03*
D19*
X109131100Y-104686100D03*
X109131100Y-107226100D03*
X109131100Y-109766100D03*
X116751100Y-109766100D03*
X116751100Y-107226100D03*
X116751100Y-104686100D03*
X116751100Y-102146100D03*
%TD*%
D15*
%TO.C,J3*%
X110150000Y-88010000D03*
D13*
X112690000Y-88010000D03*
X115230000Y-88010000D03*
%TD*%
D15*
%TO.C,J2*%
X110150000Y-73450000D03*
D13*
X112690000Y-73450000D03*
X115230000Y-73450000D03*
%TD*%
M02*
