%TF.GenerationSoftware,KiCad,Pcbnew,8.0.8*%
%TF.CreationDate,2025-02-03T21:40:41-06:00*%
%TF.ProjectId,DMXtoMotionPCB_V3,444d5874-6f4d-46f7-9469-6f6e5043425f,rev?*%
%TF.SameCoordinates,Original*%
%TF.FileFunction,Copper,L1,Top*%
%TF.FilePolarity,Positive*%
%FSLAX46Y46*%
G04 Gerber Fmt 4.6, Leading zero omitted, Abs format (unit mm)*
G04 Created by KiCad (PCBNEW 8.0.8) date 2025-02-03 21:40:41*
%MOMM*%
%LPD*%
G01*
G04 APERTURE LIST*
G04 Aperture macros list*
%AMRoundRect*
0 Rectangle with rounded corners*
0 $1 Rounding radius*
0 $2 $3 $4 $5 $6 $7 $8 $9 X,Y pos of 4 corners*
0 Add a 4 corners polygon primitive as box body*
4,1,4,$2,$3,$4,$5,$6,$7,$8,$9,$2,$3,0*
0 Add four circle primitives for the rounded corners*
1,1,$1+$1,$2,$3*
1,1,$1+$1,$4,$5*
1,1,$1+$1,$6,$7*
1,1,$1+$1,$8,$9*
0 Add four rect primitives between the rounded corners*
20,1,$1+$1,$2,$3,$4,$5,0*
20,1,$1+$1,$4,$5,$6,$7,0*
20,1,$1+$1,$6,$7,$8,$9,0*
20,1,$1+$1,$8,$9,$2,$3,0*%
%AMRotRect*
0 Rectangle, with rotation*
0 The origin of the aperture is its center*
0 $1 length*
0 $2 width*
0 $3 Rotation angle, in degrees counterclockwise*
0 Add horizontal line*
21,1,$1,$2,0,0,$3*%
G04 Aperture macros list end*
%TA.AperFunction,ComponentPad*%
%ADD10R,1.500000X1.500000*%
%TD*%
%TA.AperFunction,ComponentPad*%
%ADD11C,1.500000*%
%TD*%
%TA.AperFunction,SMDPad,CuDef*%
%ADD12RoundRect,0.250000X-0.400000X-0.625000X0.400000X-0.625000X0.400000X0.625000X-0.400000X0.625000X0*%
%TD*%
%TA.AperFunction,SMDPad,CuDef*%
%ADD13RoundRect,0.250000X0.550000X-1.050000X0.550000X1.050000X-0.550000X1.050000X-0.550000X-1.050000X0*%
%TD*%
%TA.AperFunction,SMDPad,CuDef*%
%ADD14RoundRect,0.250000X-0.625000X0.400000X-0.625000X-0.400000X0.625000X-0.400000X0.625000X0.400000X0*%
%TD*%
%TA.AperFunction,SMDPad,CuDef*%
%ADD15RoundRect,0.250000X0.650000X-0.412500X0.650000X0.412500X-0.650000X0.412500X-0.650000X-0.412500X0*%
%TD*%
%TA.AperFunction,SMDPad,CuDef*%
%ADD16RoundRect,0.250000X-0.412500X-0.650000X0.412500X-0.650000X0.412500X0.650000X-0.412500X0.650000X0*%
%TD*%
%TA.AperFunction,SMDPad,CuDef*%
%ADD17RoundRect,0.250000X-0.550042X1.049978X-0.549958X-1.050022X0.550042X-1.049978X0.549958X1.050022X0*%
%TD*%
%TA.AperFunction,SMDPad,CuDef*%
%ADD18RoundRect,0.250000X0.625000X-0.400000X0.625000X0.400000X-0.625000X0.400000X-0.625000X-0.400000X0*%
%TD*%
%TA.AperFunction,ComponentPad*%
%ADD19R,3.500000X3.500000*%
%TD*%
%TA.AperFunction,ComponentPad*%
%ADD20RoundRect,0.750000X-1.000000X0.750000X-1.000000X-0.750000X1.000000X-0.750000X1.000000X0.750000X0*%
%TD*%
%TA.AperFunction,ComponentPad*%
%ADD21RoundRect,0.875000X-0.875000X0.875000X-0.875000X-0.875000X0.875000X-0.875000X0.875000X0.875000X0*%
%TD*%
%TA.AperFunction,ComponentPad*%
%ADD22R,1.620000X1.620000*%
%TD*%
%TA.AperFunction,ComponentPad*%
%ADD23C,1.620000*%
%TD*%
%TA.AperFunction,SMDPad,CuDef*%
%ADD24RoundRect,0.250000X0.625007X-0.399989X0.624993X0.400011X-0.625007X0.399989X-0.624993X-0.400011X0*%
%TD*%
%TA.AperFunction,ComponentPad*%
%ADD25O,2.000000X1.200000*%
%TD*%
%TA.AperFunction,ComponentPad*%
%ADD26R,2.000000X1.200000*%
%TD*%
%TA.AperFunction,SMDPad,CuDef*%
%ADD27RoundRect,0.250000X0.412500X0.650000X-0.412500X0.650000X-0.412500X-0.650000X0.412500X-0.650000X0*%
%TD*%
%TA.AperFunction,ComponentPad*%
%ADD28R,1.800000X1.800000*%
%TD*%
%TA.AperFunction,ComponentPad*%
%ADD29C,1.800000*%
%TD*%
%TA.AperFunction,SMDPad,CuDef*%
%ADD30RoundRect,0.250000X0.400000X0.625000X-0.400000X0.625000X-0.400000X-0.625000X0.400000X-0.625000X0*%
%TD*%
%TA.AperFunction,SMDPad,CuDef*%
%ADD31RoundRect,0.250000X-0.650000X0.412500X-0.650000X-0.412500X0.650000X-0.412500X0.650000X0.412500X0*%
%TD*%
%TA.AperFunction,ComponentPad*%
%ADD32RotRect,1.500000X1.500000X0.001684*%
%TD*%
%TA.AperFunction,SMDPad,CuDef*%
%ADD33RoundRect,0.250000X-0.625010X0.399984X-0.624990X-0.400016X0.625010X-0.399984X0.624990X0.400016X0*%
%TD*%
%TA.AperFunction,SMDPad,CuDef*%
%ADD34RoundRect,0.250000X-0.625003X0.399995X-0.624997X-0.400005X0.625003X-0.399995X0.624997X0.400005X0*%
%TD*%
%TA.AperFunction,ComponentPad*%
%ADD35R,1.270000X1.270000*%
%TD*%
%TA.AperFunction,ComponentPad*%
%ADD36C,1.270000*%
%TD*%
%TA.AperFunction,SMDPad,CuDef*%
%ADD37RoundRect,0.250000X0.412486X0.650009X-0.412514X0.649991X-0.412486X-0.650009X0.412514X-0.649991X0*%
%TD*%
%TA.AperFunction,Conductor*%
%ADD38C,0.200000*%
%TD*%
%TA.AperFunction,Conductor*%
%ADD39C,0.800000*%
%TD*%
G04 APERTURE END LIST*
D10*
%TO.P,U1,1*%
%TO.N,5V*%
X142202600Y-63093600D03*
D11*
%TO.P,U1,2*%
%TO.N,GND*%
X139662600Y-63093600D03*
%TO.P,U1,5*%
%TO.N,ISO-GND*%
X134582600Y-63093600D03*
%TO.P,U1,7*%
%TO.N,ISO-5V*%
X129502600Y-63093600D03*
%TD*%
D10*
%TO.P,J6,1*%
%TO.N,Net_46*%
X167987500Y-83369500D03*
D11*
%TO.P,J6,2*%
%TO.N,GND*%
X170527500Y-83369500D03*
%TD*%
D12*
%TO.P,R13,1,A*%
%TO.N,3.3V_ESP*%
X134251100Y-117703600D03*
%TO.P,R13,2,B*%
%TO.N,RX*%
X137351100Y-117703600D03*
%TD*%
D13*
%TO.P,C5,1,PLUS*%
%TO.N,ISO-5V*%
X122310000Y-102540000D03*
%TO.P,C5,2,MINUS*%
%TO.N,ISO-GND*%
X122310000Y-98940000D03*
%TD*%
D12*
%TO.P,R5,1,A*%
%TO.N,Net_15*%
X112400000Y-132540000D03*
%TO.P,R5,2,B*%
%TO.N,ISO-5V*%
X115500000Y-132540000D03*
%TD*%
D14*
%TO.P,R3,1,A*%
%TO.N,Net_11*%
X141516100Y-132663600D03*
%TO.P,R3,2,B*%
%TO.N,Net_10*%
X141516100Y-135763600D03*
%TD*%
D10*
%TO.P,J4,1*%
%TO.N,Net_40*%
X177617000Y-97751000D03*
D11*
%TO.P,J4,2*%
%TO.N,Net_41*%
X180157000Y-97751000D03*
%TD*%
D15*
%TO.P,C1,1,1*%
%TO.N,ISO-5V*%
X122930000Y-69682500D03*
%TO.P,C1,2,2*%
%TO.N,ISO-GND*%
X122930000Y-66557500D03*
%TD*%
D10*
%TO.P,VO2,1*%
%TO.N,N/C*%
X115481100Y-120561100D03*
D11*
%TO.P,VO2,2,VF+*%
%TO.N,3.3V_ESP*%
X112941100Y-120561100D03*
%TO.P,VO2,3,VF-*%
%TO.N,Net_9*%
X110401100Y-120561100D03*
%TO.P,VO2,4*%
%TO.N,N/C*%
X107861100Y-120561100D03*
%TO.P,VO2,5,GND*%
%TO.N,ISO-GND*%
X107861100Y-128181100D03*
%TO.P,VO2,6,VO*%
%TO.N,Net_15*%
X110401100Y-128181100D03*
%TO.P,VO2,7,VE*%
%TO.N,unconnected-(VO2-VE-Pad7)*%
X112941100Y-128181100D03*
%TO.P,VO2,8,VCC*%
%TO.N,ISO-5V*%
X115481100Y-128181100D03*
%TD*%
D16*
%TO.P,C7,1,1*%
%TO.N,3.3V_ESP*%
X168337500Y-149200000D03*
%TO.P,C7,2,2*%
%TO.N,GND*%
X171462500Y-149200000D03*
%TD*%
D17*
%TO.P,C4,2,MINUS*%
%TO.N,GND*%
X167233661Y-70926133D03*
%TO.P,C4,1,PLUS*%
%TO.N,12V*%
X167233515Y-67326133D03*
%TD*%
D11*
%TO.P,J5,6*%
%TO.N,GND*%
X152060000Y-150830000D03*
%TO.P,J5,5*%
%TO.N,But2*%
X154600000Y-150830000D03*
%TO.P,J5,4*%
%TO.N,But1*%
X157140000Y-150830000D03*
%TO.P,J5,3*%
%TO.N,Net_33*%
X159680000Y-150830000D03*
%TO.P,J5,2*%
%TO.N,Net_32*%
X162220000Y-150830000D03*
D10*
%TO.P,J5,1*%
%TO.N,3.3V_ESP*%
X164760000Y-150830000D03*
%TD*%
D18*
%TO.P,R19,1,A*%
%TO.N,Net_21*%
X158630000Y-93490000D03*
%TO.P,R19,2,B*%
%TO.N,Net_18*%
X158630000Y-90390000D03*
%TD*%
D19*
%TO.P,J1,1,1*%
%TO.N,12V*%
X173680000Y-64220000D03*
D20*
%TO.P,J1,2,2*%
%TO.N,GND*%
X173680000Y-58220000D03*
D21*
%TO.P,J1,3,3*%
%TO.N,unconnected-(J1-Pad3)*%
X168980000Y-61220000D03*
%TD*%
D10*
%TO.P,U2,1,RO*%
%TO.N,Net_13*%
X109131100Y-102146100D03*
D11*
%TO.P,U2,2,~{RE}*%
%TO.N,Net_14*%
X109131100Y-104686100D03*
%TO.P,U2,3,DE*%
X109131100Y-107226100D03*
%TO.P,U2,4,DI*%
%TO.N,Net_15*%
X109131100Y-109766100D03*
%TO.P,U2,5,GND*%
%TO.N,ISO-GND*%
X116751100Y-109766100D03*
%TO.P,U2,6,A*%
%TO.N,Net_17*%
X116751100Y-107226100D03*
%TO.P,U2,7,B*%
%TO.N,Net_16*%
X116751100Y-104686100D03*
%TO.P,U2,8,VCC*%
%TO.N,ISO-5V*%
X116751100Y-102146100D03*
%TD*%
D14*
%TO.P,R14,1,A*%
%TO.N,GND*%
X176190000Y-108970000D03*
%TO.P,R14,2,B*%
%TO.N,Net_35*%
X176190000Y-112070000D03*
%TD*%
D12*
%TO.P,R4,1,A*%
%TO.N,Net_13*%
X112270000Y-113910000D03*
%TO.P,R4,2,B*%
%TO.N,Net_12*%
X115370000Y-113910000D03*
%TD*%
D10*
%TO.P,J3,1*%
%TO.N,ISO-GND*%
X110150000Y-88010000D03*
D11*
%TO.P,J3,2*%
%TO.N,Net_16*%
X112690000Y-88010000D03*
%TO.P,J3,3*%
%TO.N,Net_17*%
X115230000Y-88010000D03*
%TD*%
D10*
%TO.P,U5,1,OUT*%
%TO.N,Net_46*%
X154533600Y-74523600D03*
D11*
%TO.P,U5,2,IN-*%
%TO.N,Net_47*%
X154533600Y-77063600D03*
%TO.P,U5,3,IN+*%
%TO.N,Net_24*%
X154533600Y-79603600D03*
%TO.P,U5,4,V-*%
%TO.N,GND*%
X154533600Y-82143600D03*
%TO.P,U5,5,IN+*%
%TO.N,Net_8*%
X162153600Y-82143600D03*
%TO.P,U5,6,IN-*%
%TO.N,Net_21*%
X162153600Y-79603600D03*
%TO.P,U5,7,OUT*%
%TO.N,Net_18*%
X162153600Y-77063600D03*
%TO.P,U5,8,V+*%
%TO.N,12V*%
X162153600Y-74523600D03*
%TD*%
D10*
%TO.P,VO4,1,Anode@1*%
%TO.N,Net_6*%
X175380000Y-123410000D03*
D11*
%TO.P,VO4,2,Cathode@1*%
%TO.N,Net_0*%
X175380000Y-125950000D03*
%TO.P,VO4,3,Anode@2*%
%TO.N,Net_7*%
X175380000Y-128490000D03*
%TO.P,VO4,4,Cathode@2*%
%TO.N,Net_35*%
X175380000Y-131030000D03*
%TO.P,VO4,5,Anode@3*%
%TO.N,Net_1*%
X175380000Y-133570000D03*
%TO.P,VO4,6,Cathode@3*%
%TO.N,Net_36*%
X175380000Y-136110000D03*
%TO.P,VO4,7,Anode@4*%
%TO.N,Net_2*%
X175380000Y-138650000D03*
%TO.P,VO4,8,Cathode@4*%
%TO.N,Net_37*%
X175380000Y-141190000D03*
%TO.P,VO4,9,Emitter@4*%
%TO.N,Net_45*%
X183000000Y-141190000D03*
%TO.P,VO4,10,Collector@4*%
%TO.N,Net_44*%
X183000000Y-138650000D03*
%TO.P,VO4,11,Emitter@3*%
%TO.N,Net_43*%
X183000000Y-136110000D03*
%TO.P,VO4,12,Collector@3*%
%TO.N,Net_42*%
X183000000Y-133570000D03*
%TO.P,VO4,13,Emitter@2*%
%TO.N,Net_41*%
X183000000Y-131030000D03*
%TO.P,VO4,14,Collector@2*%
%TO.N,Net_40*%
X183000000Y-128490000D03*
%TO.P,VO4,15,Emitter@1*%
%TO.N,Net_38*%
X183000000Y-125950000D03*
%TO.P,VO4,16,Collector@1*%
%TO.N,Net_39*%
X183000000Y-123410000D03*
%TD*%
D22*
%TO.P,S4,1*%
%TO.N,Net_22*%
X141460000Y-106930000D03*
D23*
%TO.P,S4,2*%
%TO.N,GND*%
X141460000Y-104390000D03*
%TO.P,S4,3*%
%TO.N,N/C*%
X141460000Y-101850000D03*
%TD*%
D24*
%TO.P,R8,1,A*%
%TO.N,ISO-GND*%
X122450028Y-109090000D03*
%TO.P,R8,2,B*%
%TO.N,Net_16*%
X122449972Y-105990000D03*
%TD*%
D12*
%TO.P,R7,1,A*%
%TO.N,Net_17*%
X121551100Y-92621100D03*
%TO.P,R7,2,B*%
%TO.N,ISO-5V*%
X124651100Y-92621100D03*
%TD*%
D18*
%TO.P,R20,1,A*%
%TO.N,GND*%
X145990000Y-85900000D03*
%TO.P,R20,2,B*%
%TO.N,Net_47*%
X145990000Y-82800000D03*
%TD*%
D14*
%TO.P,R10,1,A*%
%TO.N,3.3V_ESP*%
X154490000Y-118240000D03*
%TO.P,R10,2,B*%
%TO.N,But1*%
X154490000Y-121340000D03*
%TD*%
D25*
%TO.P,U6,38,GND*%
%TO.N,GND*%
X145870000Y-142960000D03*
%TO.P,U6,37,IO23*%
%TO.N,Net_10*%
X145870000Y-140420000D03*
%TO.P,U6,36,IO22*%
%TO.N,Net_33*%
X145870000Y-137880000D03*
%TO.P,U6,35,TXD0/IO1*%
%TO.N,unconnected-(U6-TXD0{slash}IO1-Pad35)*%
X145870000Y-135340000D03*
%TO.P,U6,34,RXD0/IO3*%
%TO.N,unconnected-(U6-RXD0{slash}IO3-Pad34)*%
X145870000Y-132800000D03*
%TO.P,U6,33,IO21*%
%TO.N,Net_32*%
X145870000Y-130260000D03*
%TO.P,U6,32,GND*%
%TO.N,GND*%
X145870000Y-127720000D03*
%TO.P,U6,31,IO19*%
%TO.N,But2*%
X145870000Y-125180000D03*
%TO.P,U6,30,IO18*%
%TO.N,But1*%
X145870000Y-122640000D03*
%TO.P,U6,29,IO5*%
%TO.N,unconnected-(U6-IO5-Pad29)*%
X145870000Y-120100000D03*
%TO.P,U6,28,IO17/TX2*%
%TO.N,TX*%
X145870000Y-117560000D03*
%TO.P,U6,27,IO16/RX2*%
%TO.N,RX*%
X145870000Y-115020000D03*
%TO.P,U6,26,IO4*%
%TO.N,unconnected-(U6-IO4-Pad26)*%
X145870000Y-112480000D03*
%TO.P,U6,25,IO0*%
%TO.N,unconnected-(U6-IO0-Pad25)*%
X145870000Y-109940000D03*
%TO.P,U6,24,IO2*%
%TO.N,unconnected-(U6-IO2-Pad24)*%
X145870000Y-107400000D03*
%TO.P,U6,23,IO15*%
%TO.N,Net_22*%
X145870000Y-104860000D03*
%TO.P,U6,22,SDI/SD1*%
%TO.N,unconnected-(U6-SDI{slash}SD1-Pad22)*%
X145870000Y-102320000D03*
%TO.P,U6,21,SDO/SD0*%
%TO.N,unconnected-(U6-SDO{slash}SD0-Pad21)*%
X145873680Y-99782720D03*
%TO.P,U6,20,SCK/CLK*%
%TO.N,unconnected-(U6-SCK{slash}CLK-Pad20)*%
X145873680Y-97242720D03*
%TO.P,U6,19,5V*%
%TO.N,5V*%
X171270000Y-97240000D03*
%TO.P,U6,18,CMD*%
%TO.N,unconnected-(U6-CMD-Pad18)*%
X171270000Y-99780000D03*
%TO.P,U6,17,D3*%
%TO.N,unconnected-(U6-D3-Pad17)*%
X171270000Y-102320000D03*
%TO.P,U6,16,D2*%
%TO.N,unconnected-(U6-D2-Pad16)*%
X171270000Y-104860000D03*
%TO.P,U6,15,13*%
%TO.N,Net_6*%
X171270000Y-107400000D03*
%TO.P,U6,14,GND*%
%TO.N,GND*%
X171270000Y-109940000D03*
%TO.P,U6,13,12*%
%TO.N,Net_7*%
X171270000Y-112480000D03*
%TO.P,U6,12,14*%
%TO.N,Net_1*%
X171270000Y-115020000D03*
%TO.P,U6,11,27*%
%TO.N,Net_2*%
X171270000Y-117560000D03*
%TO.P,U6,10,26*%
%TO.N,Net_24*%
X171270000Y-120100000D03*
%TO.P,U6,9,25*%
%TO.N,Net_8*%
X171270000Y-122640000D03*
%TO.P,U6,8,33*%
%TO.N,unconnected-(U6-33-Pad8)*%
X171270000Y-125180000D03*
%TO.P,U6,7,32*%
%TO.N,unconnected-(U6-32-Pad7)*%
X171270000Y-127720000D03*
%TO.P,U6,6,35*%
%TO.N,unconnected-(U6-35-Pad6)*%
X171270000Y-130260000D03*
%TO.P,U6,5,34*%
%TO.N,unconnected-(U6-34-Pad5)*%
X171270000Y-132800000D03*
%TO.P,U6,4,VN*%
%TO.N,unconnected-(U6-VN-Pad4)*%
X171270000Y-135340000D03*
%TO.P,U6,3,VP*%
%TO.N,unconnected-(U6-VP-Pad3)*%
X171270000Y-137880000D03*
%TO.P,U6,2,EN*%
%TO.N,unconnected-(U6-EN-Pad2)*%
X171270000Y-140420000D03*
D26*
%TO.P,U6,1,3.3V*%
%TO.N,3.3V_ESP*%
X171270000Y-142960000D03*
%TD*%
D27*
%TO.P,C8,1,1*%
%TO.N,ISO-5V*%
X113272500Y-96520000D03*
%TO.P,C8,2,2*%
%TO.N,ISO-GND*%
X110147500Y-96520000D03*
%TD*%
D28*
%TO.P,U4,1,IN*%
%TO.N,12V*%
X158026100Y-63306100D03*
D29*
%TO.P,U4,2,OUT*%
%TO.N,5V*%
X163106100Y-63306100D03*
%TO.P,U4,3,GND*%
%TO.N,GND*%
X160566100Y-63306100D03*
%TD*%
D30*
%TO.P,R15,1,A*%
%TO.N,GND*%
X182360000Y-115770000D03*
%TO.P,R15,2,B*%
%TO.N,Net_36*%
X179260000Y-115770000D03*
%TD*%
D31*
%TO.P,C9,1,1*%
%TO.N,5V*%
X149250000Y-64187500D03*
%TO.P,C9,2,2*%
%TO.N,GND*%
X149250000Y-67312500D03*
%TD*%
D14*
%TO.P,R17,1,A*%
%TO.N,GND*%
X181600000Y-108910000D03*
%TO.P,R17,2,B*%
%TO.N,Net_0*%
X181600000Y-112010000D03*
%TD*%
D16*
%TO.P,C3,1,1*%
%TO.N,ISO-5V*%
X129237500Y-74460000D03*
%TO.P,C3,2,2*%
%TO.N,ISO-GND*%
X132362500Y-74460000D03*
%TD*%
D32*
%TO.P,J8,1*%
%TO.N,Net_39*%
X177617000Y-104102037D03*
D11*
%TO.P,J8,2*%
%TO.N,Net_38*%
X180157000Y-104101963D03*
%TD*%
D12*
%TO.P,R6,1,A*%
%TO.N,ISO-5V*%
X119480000Y-132540000D03*
%TO.P,R6,2,B*%
%TO.N,Net_14*%
X122580000Y-132540000D03*
%TD*%
D32*
%TO.P,J7,1*%
%TO.N,Net_18*%
X167987500Y-77019537D03*
D11*
%TO.P,J7,2*%
%TO.N,GND*%
X170527500Y-77019463D03*
%TD*%
D14*
%TO.P,R9,1,A*%
%TO.N,3.3V_ESP*%
X156780000Y-123830000D03*
%TO.P,R9,2,B*%
%TO.N,But2*%
X156780000Y-126930000D03*
%TD*%
D10*
%TO.P,J10,1*%
%TO.N,Net_42*%
X177617000Y-91400000D03*
D11*
%TO.P,J10,2*%
%TO.N,Net_43*%
X180157000Y-91400000D03*
%TD*%
D33*
%TO.P,R1,1,A*%
%TO.N,Net_4*%
X111988560Y-62813600D03*
D34*
%TO.P,R1,2,B*%
%TO.N,ISO-GND*%
X111988640Y-65913600D03*
%TD*%
D10*
%TO.P,J9,1*%
%TO.N,Net_44*%
X177617000Y-85049500D03*
D11*
%TO.P,J9,2*%
%TO.N,Net_45*%
X180157000Y-85049500D03*
%TD*%
%TO.P,VO1,8,VCC*%
%TO.N,3.3V_ESP*%
X136060000Y-102340000D03*
%TO.P,VO1,7,VE*%
%TO.N,unconnected-(VO1-VE-Pad7)*%
X136060000Y-104880000D03*
%TO.P,VO1,6,VO*%
%TO.N,RX*%
X136060000Y-107420000D03*
%TO.P,VO1,5,GND*%
%TO.N,GND*%
X136060000Y-109960000D03*
%TO.P,VO1,4*%
%TO.N,N/C*%
X128440000Y-109960000D03*
%TO.P,VO1,3,VF-*%
%TO.N,Net_12*%
X128440000Y-107420000D03*
%TO.P,VO1,2,VF+*%
%TO.N,ISO-5V*%
X128440000Y-104880000D03*
D10*
%TO.P,VO1,1*%
%TO.N,N/C*%
X128440000Y-102340000D03*
%TD*%
D30*
%TO.P,R16,1,A*%
%TO.N,GND*%
X182330000Y-119460000D03*
%TO.P,R16,2,B*%
%TO.N,Net_37*%
X179230000Y-119460000D03*
%TD*%
D12*
%TO.P,R12,1,A*%
%TO.N,Net_16*%
X122670000Y-78010000D03*
%TO.P,R12,2,B*%
%TO.N,Net_34*%
X125770000Y-78010000D03*
%TD*%
D35*
%TO.P,D1,1,K*%
%TO.N,Net_4*%
X117068600Y-58013600D03*
D36*
%TO.P,D1,2,A*%
%TO.N,ISO-5V*%
X117068600Y-60553600D03*
%TD*%
D22*
%TO.P,S3,1*%
%TO.N,N/C*%
X128060000Y-85800000D03*
D23*
%TO.P,S3,2*%
%TO.N,Net_17*%
X130600000Y-85800000D03*
%TO.P,S3,3*%
%TO.N,Net_34*%
X133140000Y-85800000D03*
%TD*%
D16*
%TO.P,C2,1,1*%
%TO.N,ISO-5V*%
X129227500Y-69680000D03*
%TO.P,C2,2,2*%
%TO.N,ISO-GND*%
X132352500Y-69680000D03*
%TD*%
D10*
%TO.P,VO3,1*%
%TO.N,N/C*%
X131991100Y-120878600D03*
D11*
%TO.P,VO3,2,VF+*%
%TO.N,3.3V_ESP*%
X129451100Y-120878600D03*
%TO.P,VO3,3,VF-*%
%TO.N,Net_11*%
X126911100Y-120878600D03*
%TO.P,VO3,4*%
%TO.N,N/C*%
X124371100Y-120878600D03*
%TO.P,VO3,5,GND*%
%TO.N,ISO-GND*%
X124371100Y-128498600D03*
%TO.P,VO3,6,VO*%
%TO.N,Net_14*%
X126911100Y-128498600D03*
%TO.P,VO3,7,VE*%
%TO.N,unconnected-(VO3-VE-Pad7)*%
X129451100Y-128498600D03*
%TO.P,VO3,8,VCC*%
%TO.N,ISO-5V*%
X131991100Y-128498600D03*
%TD*%
D14*
%TO.P,R18,2,B*%
%TO.N,Net_21*%
X165930000Y-93550000D03*
%TO.P,R18,1,A*%
%TO.N,GND*%
X165930000Y-90450000D03*
%TD*%
D18*
%TO.P,R2,1,A*%
%TO.N,Net_9*%
X138860000Y-126090000D03*
%TO.P,R2,2,B*%
%TO.N,TX*%
X138860000Y-122990000D03*
%TD*%
D14*
%TO.P,R21,1,A*%
%TO.N,Net_47*%
X152030000Y-89840000D03*
%TO.P,R21,2,B*%
%TO.N,Net_46*%
X152030000Y-92940000D03*
%TD*%
D10*
%TO.P,J2,1*%
%TO.N,ISO-GND*%
X110150000Y-73450000D03*
D11*
%TO.P,J2,2*%
%TO.N,Net_16*%
X112690000Y-73450000D03*
%TO.P,J2,3*%
%TO.N,Net_17*%
X115230000Y-73450000D03*
%TD*%
D37*
%TO.P,C6,1,1*%
%TO.N,12V*%
X161176100Y-71031066D03*
%TO.P,C6,2,2*%
%TO.N,GND*%
X158051100Y-71031134D03*
%TD*%
D38*
%TO.N,But2*%
X156780000Y-148650000D02*
X154600000Y-150830000D01*
X156780000Y-126930000D02*
X156780000Y-148650000D01*
D39*
%TO.N,ISO-GND*%
X131939000Y-60450000D02*
X134582600Y-63093600D01*
X122930000Y-66557500D02*
X122930000Y-62630000D01*
X122930000Y-62630000D02*
X125110000Y-60450000D01*
X125110000Y-60450000D02*
X131939000Y-60450000D01*
X132352500Y-65323700D02*
X134582600Y-63093600D01*
X132352500Y-69680000D02*
X132352500Y-65323700D01*
%TO.N,ISO-5V*%
X129502600Y-63093600D02*
X129502600Y-69404900D01*
X129502600Y-69404900D02*
X129227500Y-69680000D01*
%TO.N,3.3V_ESP*%
X112941100Y-119228900D02*
X113450000Y-118720000D01*
X113450000Y-118720000D02*
X127292500Y-118720000D01*
X134251100Y-104148900D02*
X136060000Y-102340000D01*
X127292500Y-118720000D02*
X129451100Y-120878600D01*
X129451100Y-119158900D02*
X130906400Y-117703600D01*
X129451100Y-120878600D02*
X129451100Y-119158900D01*
X112941100Y-120561100D02*
X112941100Y-119228900D01*
X130906400Y-117703600D02*
X134251100Y-117703600D01*
X168257500Y-149120000D02*
X168337500Y-149200000D01*
X134251100Y-117703600D02*
X134251100Y-104148900D01*
X154490000Y-118240000D02*
X156780000Y-120530000D01*
X156780000Y-120530000D02*
X156780000Y-123830000D01*
%TO.N,5V*%
X150462500Y-65400000D02*
X161012200Y-65400000D01*
X148156100Y-63093600D02*
X149250000Y-64187500D01*
X161012200Y-65400000D02*
X163106100Y-63306100D01*
X149250000Y-64187500D02*
X150462500Y-65400000D01*
X142468600Y-63093600D02*
X148156100Y-63093600D01*
D38*
%TO.N,But1*%
X145870000Y-122640000D02*
X148950000Y-122640000D01*
X150390000Y-121340000D02*
X154490000Y-121340000D01*
X149090000Y-122640000D02*
X150390000Y-121340000D01*
X148950000Y-122640000D02*
X149090000Y-122640000D01*
%TO.N,But2*%
X147620000Y-126930000D02*
X156780000Y-126930000D01*
X145870000Y-125180000D02*
X147620000Y-126930000D01*
X156480000Y-127230000D02*
X156780000Y-126930000D01*
D39*
%TO.N,GND*%
X154332466Y-67312500D02*
X158051100Y-71031134D01*
X165930000Y-90450000D02*
X170527500Y-85852500D01*
X139928600Y-64154260D02*
X143086840Y-67312500D01*
X181540000Y-108970000D02*
X181600000Y-108910000D01*
X176190000Y-108970000D02*
X181540000Y-108970000D01*
X170527500Y-74219972D02*
X167233661Y-70926133D01*
X150777200Y-85900000D02*
X154533600Y-82143600D01*
X171270000Y-109940000D02*
X175220000Y-109940000D01*
X182360000Y-119430000D02*
X182330000Y-119460000D01*
X139928600Y-63093600D02*
X139928600Y-64154260D01*
X182360000Y-115770000D02*
X182360000Y-119430000D01*
X149250000Y-67312500D02*
X154332466Y-67312500D01*
X183770000Y-114360000D02*
X183770000Y-111080000D01*
X175220000Y-109940000D02*
X176190000Y-108970000D01*
X145990000Y-85900000D02*
X150777200Y-85900000D01*
X182360000Y-115770000D02*
X183770000Y-114360000D01*
X170527500Y-77019463D02*
X170527500Y-74219972D01*
X183770000Y-111080000D02*
X181600000Y-108910000D01*
X170527500Y-85852500D02*
X170527500Y-83369500D01*
X143086840Y-67312500D02*
X149250000Y-67312500D01*
%TO.N,ISO-5V*%
X119480000Y-134170000D02*
X119480000Y-132540000D01*
X117068600Y-66628600D02*
X117068600Y-60553600D01*
X129227500Y-74450000D02*
X129237500Y-74460000D01*
X122930000Y-69682500D02*
X120122500Y-69682500D01*
X115500000Y-132540000D02*
X119480000Y-132540000D01*
X120320000Y-135010000D02*
X119480000Y-134170000D01*
X116751100Y-97981100D02*
X116751100Y-102146100D01*
X120290000Y-97868148D02*
X124651100Y-93507048D01*
X136110000Y-87620000D02*
X131108900Y-92621100D01*
X128730000Y-135010000D02*
X120320000Y-135010000D01*
X129237500Y-74460000D02*
X136110000Y-81332500D01*
X129227500Y-69680000D02*
X122932500Y-69680000D01*
X115290000Y-96520000D02*
X116751100Y-97981100D01*
X122932500Y-69680000D02*
X122930000Y-69682500D01*
X131108900Y-92621100D02*
X124651100Y-92621100D01*
X120290000Y-102146100D02*
X121916100Y-102146100D01*
X129227500Y-69680000D02*
X129227500Y-74450000D01*
X116751100Y-102146100D02*
X120290000Y-102146100D01*
X131991100Y-131748900D02*
X128730000Y-135010000D01*
X115481100Y-128181100D02*
X115481100Y-132521100D01*
X136110000Y-81332500D02*
X136110000Y-87620000D01*
X131991100Y-128498600D02*
X131991100Y-131748900D01*
X113272500Y-96520000D02*
X115290000Y-96520000D01*
X124651100Y-93507048D02*
X124651100Y-92621100D01*
X120290000Y-102146100D02*
X120290000Y-97868148D01*
X115481100Y-132521100D02*
X115500000Y-132540000D01*
X120122500Y-69682500D02*
X117068600Y-66628600D01*
%TO.N,ISO-GND*%
X105690000Y-126010000D02*
X107861100Y-128181100D01*
X110150000Y-73450000D02*
X110150000Y-70590000D01*
X105690000Y-119574141D02*
X105690000Y-126010000D01*
X121773928Y-109766100D02*
X122450028Y-109090000D01*
X122310000Y-98940000D02*
X124124980Y-100754980D01*
X113720000Y-112797200D02*
X113720000Y-114976852D01*
X132352500Y-69680000D02*
X132352500Y-74450000D01*
X110150000Y-89620000D02*
X110150000Y-90120000D01*
X110150000Y-90120000D02*
X110150000Y-96517500D01*
X124124980Y-100754980D02*
X124124980Y-107415048D01*
X111988640Y-68751360D02*
X111988640Y-65913600D01*
X132352500Y-74450000D02*
X132362500Y-74460000D01*
X110160000Y-90110000D02*
X110150000Y-90120000D01*
X113720000Y-114976852D02*
X110846852Y-117850000D01*
X124124980Y-107415048D02*
X122450028Y-109090000D01*
X116751100Y-109766100D02*
X121773928Y-109766100D01*
X110150000Y-88010000D02*
X110150000Y-89620000D01*
X116751100Y-109766100D02*
X113720000Y-112797200D01*
X107414141Y-117850000D02*
X105690000Y-119574141D01*
X110846852Y-117850000D02*
X107414141Y-117850000D01*
X110150000Y-70590000D02*
X111988640Y-68751360D01*
X110150000Y-96517500D02*
X110147500Y-96520000D01*
D38*
%TO.N,Net_16*%
X122670000Y-78010000D02*
X112770000Y-78010000D01*
X112690000Y-78090000D02*
X112690000Y-88010000D01*
X116751100Y-104686100D02*
X118055000Y-105990000D01*
X112690000Y-73450000D02*
X112690000Y-78090000D01*
X112770000Y-78010000D02*
X112690000Y-78090000D01*
X118055000Y-105990000D02*
X122449972Y-105990000D01*
%TO.N,Net_17*%
X121551100Y-91000000D02*
X121551100Y-92621100D01*
X123491100Y-89060000D02*
X121551100Y-91000000D01*
X113228900Y-92621100D02*
X121551100Y-92621100D01*
X130600000Y-85800000D02*
X127340000Y-89060000D01*
X127340000Y-89060000D02*
X123491100Y-89060000D01*
X111730000Y-102205000D02*
X111730000Y-94120000D01*
X116751100Y-107226100D02*
X111730000Y-102205000D01*
X111730000Y-94120000D02*
X113228900Y-92621100D01*
%TO.N,Net_18*%
X158630000Y-78850000D02*
X160416400Y-77063600D01*
X168730000Y-85310000D02*
X169277500Y-84762500D01*
X169277500Y-78309537D02*
X167987500Y-77019537D01*
X169277500Y-84762500D02*
X169277500Y-78309537D01*
X162153600Y-77063600D02*
X166180000Y-81090000D01*
X167060000Y-85310000D02*
X168730000Y-85310000D01*
X160416400Y-77063600D02*
X162153600Y-77063600D01*
X166180000Y-84430000D02*
X167060000Y-85310000D01*
X158630000Y-90390000D02*
X158630000Y-78850000D01*
X166180000Y-81090000D02*
X166180000Y-84430000D01*
%TO.N,Net_34*%
X133140000Y-81440000D02*
X133140000Y-85800000D01*
X129710000Y-78010000D02*
X133140000Y-81440000D01*
X125770000Y-78010000D02*
X129710000Y-78010000D01*
%TO.N,Net_41*%
X180157000Y-97751000D02*
X184670000Y-102264000D01*
X184670000Y-102264000D02*
X184670000Y-129360000D01*
X184670000Y-129360000D02*
X183000000Y-131030000D01*
%TO.N,Net_43*%
X186190000Y-97433000D02*
X186190000Y-132920000D01*
X186190000Y-132920000D02*
X183000000Y-136110000D01*
X180157000Y-91400000D02*
X186190000Y-97433000D01*
%TO.N,Net_46*%
X143120000Y-81070000D02*
X149666400Y-74523600D01*
X167987500Y-80227500D02*
X167987500Y-83369500D01*
X148770000Y-92940000D02*
X143120000Y-87290000D01*
X149666400Y-74523600D02*
X154533600Y-74523600D01*
X155850000Y-75840000D02*
X163600000Y-75840000D01*
X152030000Y-92940000D02*
X148770000Y-92940000D01*
X143120000Y-87290000D02*
X143120000Y-81070000D01*
X163600000Y-75840000D02*
X167987500Y-80227500D01*
X154533600Y-74523600D02*
X155850000Y-75840000D01*
%TO.N,Net_24*%
X156550000Y-81620000D02*
X156550000Y-105380000D01*
X156550000Y-105380000D02*
X171270000Y-120100000D01*
X154533600Y-79603600D02*
X156550000Y-81620000D01*
%TO.N,TX*%
X138860000Y-120880000D02*
X142180000Y-117560000D01*
X138860000Y-122990000D02*
X138860000Y-120880000D01*
X142180000Y-117560000D02*
X145870000Y-117560000D01*
%TO.N,Net_36*%
X175380000Y-136110000D02*
X178060000Y-133430000D01*
X178060000Y-116970000D02*
X179260000Y-115770000D01*
X178060000Y-133430000D02*
X178060000Y-116970000D01*
%TO.N,Net_12*%
X115370000Y-113910000D02*
X121950000Y-113910000D01*
X121950000Y-113910000D02*
X128440000Y-107420000D01*
%TO.N,Net_0*%
X180440000Y-110850000D02*
X181600000Y-112010000D01*
X174570000Y-111410000D02*
X175130000Y-110850000D01*
X174570000Y-113310000D02*
X174570000Y-111410000D01*
X175130000Y-110850000D02*
X180440000Y-110850000D01*
X175380000Y-125950000D02*
X176430000Y-124900000D01*
X176430000Y-124900000D02*
X176430000Y-115170000D01*
X176430000Y-115170000D02*
X174570000Y-113310000D01*
%TO.N,Net_37*%
X175380000Y-141190000D02*
X179230000Y-137340000D01*
X179230000Y-137340000D02*
X179230000Y-119460000D01*
%TO.N,RX*%
X137984700Y-117070000D02*
X137351100Y-117703600D01*
X140820000Y-115020000D02*
X145870000Y-115020000D01*
X138136400Y-117703600D02*
X140820000Y-115020000D01*
X137351100Y-117703600D02*
X138136400Y-117703600D01*
D39*
%TO.N,Net_4*%
X114346400Y-58013600D02*
X117068600Y-58013600D01*
X111988560Y-60371440D02*
X114346400Y-58013600D01*
X111988560Y-62813600D02*
X111988560Y-60371440D01*
D38*
%TO.N,Net_47*%
X144615000Y-84175000D02*
X144615000Y-86775000D01*
X144615000Y-86775000D02*
X147680000Y-89840000D01*
X145990000Y-82800000D02*
X145990000Y-81180000D01*
X147680000Y-89840000D02*
X152030000Y-89840000D01*
X150106400Y-77063600D02*
X154533600Y-77063600D01*
X145990000Y-81180000D02*
X150106400Y-77063600D01*
X145990000Y-82800000D02*
X144615000Y-84175000D01*
%TO.N,Net_21*%
X160170000Y-80630000D02*
X161196400Y-79603600D01*
X158630000Y-93490000D02*
X165870000Y-93490000D01*
X165870000Y-93490000D02*
X165930000Y-93550000D01*
X158630000Y-93490000D02*
X160170000Y-91950000D01*
X160170000Y-91950000D02*
X160170000Y-80630000D01*
X161196400Y-79603600D02*
X162153600Y-79603600D01*
%TO.N,Net_10*%
X141516100Y-135763600D02*
X141516100Y-138126100D01*
X143810000Y-140420000D02*
X145870000Y-140420000D01*
X141516100Y-138126100D02*
X143810000Y-140420000D01*
%TO.N,Net_14*%
X124430000Y-132540000D02*
X126911100Y-130058900D01*
X122580000Y-132540000D02*
X124430000Y-132540000D01*
X126911100Y-130058900D02*
X126911100Y-128498600D01*
%TO.N,Net_7*%
X173430000Y-112480000D02*
X174000000Y-113050000D01*
X171270000Y-112480000D02*
X173430000Y-112480000D01*
X174000000Y-113050000D02*
X174000000Y-127110000D01*
X174000000Y-127110000D02*
X175380000Y-128490000D01*
%TO.N,Net_15*%
X110401100Y-131571100D02*
X110401100Y-128181100D01*
X111370000Y-132540000D02*
X110401100Y-131571100D01*
X112400000Y-132540000D02*
X111370000Y-132540000D01*
%TO.N,Net_9*%
X115930000Y-126090000D02*
X138860000Y-126090000D01*
X110401100Y-120561100D02*
X115930000Y-126090000D01*
%TO.N,Net_13*%
X109131100Y-102146100D02*
X112270000Y-105285000D01*
X112270000Y-105285000D02*
X112270000Y-113910000D01*
%TO.N,Net_11*%
X140390000Y-124500000D02*
X141516100Y-125626100D01*
X130532500Y-124500000D02*
X140390000Y-124500000D01*
X126911100Y-120878600D02*
X130532500Y-124500000D01*
X141516100Y-125626100D02*
X141516100Y-132663600D01*
D39*
%TO.N,12V*%
X158026100Y-63306100D02*
X158026100Y-62393900D01*
X161176100Y-71031066D02*
X161176100Y-73546100D01*
X167233515Y-67326133D02*
X170339648Y-64220000D01*
X161176100Y-71031066D02*
X161176100Y-69203900D01*
X167233515Y-64343515D02*
X167233515Y-67326133D01*
X158026100Y-62393900D02*
X159080000Y-61340000D01*
X163053867Y-67326133D02*
X167233515Y-67326133D01*
X170339648Y-64220000D02*
X173680000Y-64220000D01*
X161176100Y-69203900D02*
X163053867Y-67326133D01*
X164230000Y-61340000D02*
X167233515Y-64343515D01*
X159080000Y-61340000D02*
X164230000Y-61340000D01*
X161176100Y-73546100D02*
X162153600Y-74523600D01*
D38*
%TO.N,But1*%
X151890000Y-125440000D02*
X157830000Y-125440000D01*
X149090000Y-122640000D02*
X151890000Y-125440000D01*
X159020000Y-126630000D02*
X159020000Y-148950000D01*
X157830000Y-125440000D02*
X159020000Y-126630000D01*
X159020000Y-148950000D02*
X157140000Y-150830000D01*
D39*
%TO.N,3.3V_ESP*%
X168337500Y-149200000D02*
X166390000Y-149200000D01*
X166390000Y-149200000D02*
X164760000Y-150830000D01*
%TO.N,GND*%
X171462500Y-149200000D02*
X167842500Y-152820000D01*
X167842500Y-152820000D02*
X154050000Y-152820000D01*
X154050000Y-152820000D02*
X152060000Y-150830000D01*
D38*
%TO.N,Net_35*%
X175380000Y-131030000D02*
X177220000Y-129190000D01*
X177220000Y-129190000D02*
X177220000Y-113100000D01*
X177220000Y-113100000D02*
X176190000Y-112070000D01*
%TO.N,Net_2*%
X175380000Y-138650000D02*
X172960000Y-136230000D01*
X172960000Y-136230000D02*
X172960000Y-119250000D01*
X172960000Y-119250000D02*
X171270000Y-117560000D01*
%TO.N,Net_1*%
X175380000Y-133570000D02*
X173470000Y-131660000D01*
X173470000Y-117220000D02*
X171270000Y-115020000D01*
X173470000Y-131660000D02*
X173470000Y-117220000D01*
%TO.N,Net_42*%
X185480000Y-131090000D02*
X183000000Y-133570000D01*
X185480000Y-99263000D02*
X185480000Y-131090000D01*
X177617000Y-91400000D02*
X185480000Y-99263000D01*
D39*
%TO.N,3.3V_ESP*%
X156780000Y-123830000D02*
X160510000Y-123830000D01*
X160510000Y-123830000D02*
X164650000Y-127970000D01*
X169370000Y-142960000D02*
X171270000Y-142960000D01*
X164650000Y-138240000D02*
X169370000Y-142960000D01*
X164650000Y-127970000D02*
X164650000Y-138240000D01*
X168337500Y-145892500D02*
X171270000Y-142960000D01*
X168337500Y-149200000D02*
X168337500Y-145892500D01*
%TD*%
M02*
