%TF.GenerationSoftware,KiCad,Pcbnew,8.0.8*%
%TF.CreationDate,2025-02-03T21:40:41-06:00*%
%TF.ProjectId,DMXtoMotionPCB_V3,444d5874-6f4d-46f7-9469-6f6e5043425f,rev?*%
%TF.SameCoordinates,Original*%
%TF.FileFunction,Soldermask,Top*%
%TF.FilePolarity,Negative*%
%FSLAX46Y46*%
G04 Gerber Fmt 4.6, Leading zero omitted, Abs format (unit mm)*
G04 Created by KiCad (PCBNEW 8.0.8) date 2025-02-03 21:40:41*
%MOMM*%
%LPD*%
G01*
G04 APERTURE LIST*
G04 Aperture macros list*
%AMRoundRect*
0 Rectangle with rounded corners*
0 $1 Rounding radius*
0 $2 $3 $4 $5 $6 $7 $8 $9 X,Y pos of 4 corners*
0 Add a 4 corners polygon primitive as box body*
4,1,4,$2,$3,$4,$5,$6,$7,$8,$9,$2,$3,0*
0 Add four circle primitives for the rounded corners*
1,1,$1+$1,$2,$3*
1,1,$1+$1,$4,$5*
1,1,$1+$1,$6,$7*
1,1,$1+$1,$8,$9*
0 Add four rect primitives between the rounded corners*
20,1,$1+$1,$2,$3,$4,$5,0*
20,1,$1+$1,$4,$5,$6,$7,0*
20,1,$1+$1,$6,$7,$8,$9,0*
20,1,$1+$1,$8,$9,$2,$3,0*%
G04 Aperture macros list end*
%ADD10RoundRect,0.050800X0.750000X0.750000X-0.750000X0.750000X-0.750000X-0.750000X0.750000X-0.750000X0*%
%ADD11C,1.601600*%
%ADD12RoundRect,0.050800X-0.750000X-0.750000X0.750000X-0.750000X0.750000X0.750000X-0.750000X0.750000X0*%
%ADD13RoundRect,0.250000X-0.400000X-0.625000X0.400000X-0.625000X0.400000X0.625000X-0.400000X0.625000X0*%
%ADD14RoundRect,0.250000X0.550000X-1.050000X0.550000X1.050000X-0.550000X1.050000X-0.550000X-1.050000X0*%
%ADD15RoundRect,0.250000X-0.625000X0.400000X-0.625000X-0.400000X0.625000X-0.400000X0.625000X0.400000X0*%
%ADD16RoundRect,0.250000X0.650000X-0.412500X0.650000X0.412500X-0.650000X0.412500X-0.650000X-0.412500X0*%
%ADD17RoundRect,0.250000X-0.412500X-0.650000X0.412500X-0.650000X0.412500X0.650000X-0.412500X0.650000X0*%
%ADD18RoundRect,0.250000X-0.550042X1.049978X-0.549958X-1.050022X0.550042X-1.049978X0.549958X1.050022X0*%
%ADD19RoundRect,0.250000X0.625000X-0.400000X0.625000X0.400000X-0.625000X0.400000X-0.625000X-0.400000X0*%
%ADD20R,3.500000X3.500000*%
%ADD21RoundRect,0.750000X-1.000000X0.750000X-1.000000X-0.750000X1.000000X-0.750000X1.000000X0.750000X0*%
%ADD22RoundRect,0.875000X-0.875000X0.875000X-0.875000X-0.875000X0.875000X-0.875000X0.875000X0.875000X0*%
%ADD23RoundRect,0.050800X0.750000X-0.750000X0.750000X0.750000X-0.750000X0.750000X-0.750000X-0.750000X0*%
%ADD24C,3.000000*%
%ADD25RoundRect,0.050800X0.810000X-0.810000X0.810000X0.810000X-0.810000X0.810000X-0.810000X-0.810000X0*%
%ADD26C,1.721600*%
%ADD27RoundRect,0.250000X0.625007X-0.399989X0.624993X0.400011X-0.625007X0.399989X-0.624993X-0.400011X0*%
%ADD28O,2.000000X1.200000*%
%ADD29R,2.000000X1.200000*%
%ADD30RoundRect,0.250000X0.412500X0.650000X-0.412500X0.650000X-0.412500X-0.650000X0.412500X-0.650000X0*%
%ADD31RoundRect,0.050800X-0.900000X-0.900000X0.900000X-0.900000X0.900000X0.900000X-0.900000X0.900000X0*%
%ADD32C,1.901600*%
%ADD33RoundRect,0.250000X0.400000X0.625000X-0.400000X0.625000X-0.400000X-0.625000X0.400000X-0.625000X0*%
%ADD34RoundRect,0.250000X-0.650000X0.412500X-0.650000X-0.412500X0.650000X-0.412500X0.650000X0.412500X0*%
%ADD35RoundRect,0.050800X-0.749978X-0.750022X0.750022X-0.749978X0.749978X0.750022X-0.750022X0.749978X0*%
%ADD36RoundRect,0.250000X-0.625010X0.399984X-0.624990X-0.400016X0.625010X-0.399984X0.624990X0.400016X0*%
%ADD37RoundRect,0.250000X-0.625003X0.399995X-0.624997X-0.400005X0.625003X-0.399995X0.624997X0.400005X0*%
%ADD38RoundRect,0.050800X-0.635000X-0.635000X0.635000X-0.635000X0.635000X0.635000X-0.635000X0.635000X0*%
%ADD39C,1.371600*%
%ADD40RoundRect,0.050800X-0.810000X-0.810000X0.810000X-0.810000X0.810000X0.810000X-0.810000X0.810000X0*%
%ADD41RoundRect,0.250000X0.412486X0.650009X-0.412514X0.649991X-0.412486X-0.650009X0.412514X-0.649991X0*%
G04 APERTURE END LIST*
D10*
%TO.C,U1*%
X142202600Y-63093600D03*
D11*
X139662600Y-63093600D03*
X134582600Y-63093600D03*
X129502600Y-63093600D03*
%TD*%
D12*
%TO.C,J6*%
X167987500Y-83369500D03*
D11*
X170527500Y-83369500D03*
%TD*%
D13*
%TO.C,R13*%
X134251100Y-117703600D03*
X137351100Y-117703600D03*
%TD*%
D14*
%TO.C,C5*%
X122310000Y-102540000D03*
X122310000Y-98940000D03*
%TD*%
D13*
%TO.C,R5*%
X112400000Y-132540000D03*
X115500000Y-132540000D03*
%TD*%
D15*
%TO.C,R3*%
X141516100Y-132663600D03*
X141516100Y-135763600D03*
%TD*%
D12*
%TO.C,J4*%
X177617000Y-97751000D03*
D11*
X180157000Y-97751000D03*
%TD*%
D16*
%TO.C,C1*%
X122930000Y-69682500D03*
X122930000Y-66557500D03*
%TD*%
D12*
%TO.C,VO2*%
X115481100Y-120561100D03*
D11*
X112941100Y-120561100D03*
X110401100Y-120561100D03*
X107861100Y-120561100D03*
X107861100Y-128181100D03*
X110401100Y-128181100D03*
X112941100Y-128181100D03*
X115481100Y-128181100D03*
%TD*%
D17*
%TO.C,C7*%
X168337500Y-149200000D03*
X171462500Y-149200000D03*
%TD*%
D18*
%TO.C,C4*%
X167233661Y-70926133D03*
X167233515Y-67326133D03*
%TD*%
D11*
%TO.C,J5*%
X152060000Y-150830000D03*
X154600000Y-150830000D03*
X157140000Y-150830000D03*
X159680000Y-150830000D03*
X162220000Y-150830000D03*
D10*
X164760000Y-150830000D03*
%TD*%
D19*
%TO.C,R19*%
X158630000Y-93490000D03*
X158630000Y-90390000D03*
%TD*%
D20*
%TO.C,J1*%
X173680000Y-64220000D03*
D21*
X173680000Y-58220000D03*
D22*
X168980000Y-61220000D03*
%TD*%
D23*
%TO.C,U2*%
X109131100Y-102146100D03*
D11*
X109131100Y-104686100D03*
X109131100Y-107226100D03*
X109131100Y-109766100D03*
X116751100Y-109766100D03*
X116751100Y-107226100D03*
X116751100Y-104686100D03*
X116751100Y-102146100D03*
%TD*%
D15*
%TO.C,R14*%
X176190000Y-108970000D03*
X176190000Y-112070000D03*
%TD*%
D24*
%TO.C,@HOLE1*%
X103001100Y-121003600D03*
%TD*%
D13*
%TO.C,R4*%
X112270000Y-113910000D03*
X115370000Y-113910000D03*
%TD*%
D12*
%TO.C,J3*%
X110150000Y-88010000D03*
D11*
X112690000Y-88010000D03*
X115230000Y-88010000D03*
%TD*%
D23*
%TO.C,U5*%
X154533600Y-74523600D03*
D11*
X154533600Y-77063600D03*
X154533600Y-79603600D03*
X154533600Y-82143600D03*
X162153600Y-82143600D03*
X162153600Y-79603600D03*
X162153600Y-77063600D03*
X162153600Y-74523600D03*
%TD*%
D23*
%TO.C,VO4*%
X175380000Y-123410000D03*
D11*
X175380000Y-125950000D03*
X175380000Y-128490000D03*
X175380000Y-131030000D03*
X175380000Y-133570000D03*
X175380000Y-136110000D03*
X175380000Y-138650000D03*
X175380000Y-141190000D03*
X183000000Y-141190000D03*
X183000000Y-138650000D03*
X183000000Y-136110000D03*
X183000000Y-133570000D03*
X183000000Y-131030000D03*
X183000000Y-128490000D03*
X183000000Y-125950000D03*
X183000000Y-123410000D03*
%TD*%
D25*
%TO.C,S4*%
X141460000Y-106930000D03*
D26*
X141460000Y-104390000D03*
X141460000Y-101850000D03*
%TD*%
D24*
%TO.C,@HOLE3*%
X190820000Y-120720000D03*
%TD*%
D27*
%TO.C,R8*%
X122450028Y-109090000D03*
X122449972Y-105990000D03*
%TD*%
D13*
%TO.C,R7*%
X121551100Y-92621100D03*
X124651100Y-92621100D03*
%TD*%
D19*
%TO.C,R20*%
X145990000Y-85900000D03*
X145990000Y-82800000D03*
%TD*%
D15*
%TO.C,R10*%
X154490000Y-118240000D03*
X154490000Y-121340000D03*
%TD*%
D28*
%TO.C,U6*%
X145870000Y-142960000D03*
X145870000Y-140420000D03*
X145870000Y-137880000D03*
X145870000Y-135340000D03*
X145870000Y-132800000D03*
X145870000Y-130260000D03*
X145870000Y-127720000D03*
X145870000Y-125180000D03*
X145870000Y-122640000D03*
X145870000Y-120100000D03*
X145870000Y-117560000D03*
X145870000Y-115020000D03*
X145870000Y-112480000D03*
X145870000Y-109940000D03*
X145870000Y-107400000D03*
X145870000Y-104860000D03*
X145870000Y-102320000D03*
X145873680Y-99782720D03*
X145873680Y-97242720D03*
X171270000Y-97240000D03*
X171270000Y-99780000D03*
X171270000Y-102320000D03*
X171270000Y-104860000D03*
X171270000Y-107400000D03*
X171270000Y-109940000D03*
X171270000Y-112480000D03*
X171270000Y-115020000D03*
X171270000Y-117560000D03*
X171270000Y-120100000D03*
X171270000Y-122640000D03*
X171270000Y-125180000D03*
X171270000Y-127720000D03*
X171270000Y-130260000D03*
X171270000Y-132800000D03*
X171270000Y-135340000D03*
X171270000Y-137880000D03*
X171270000Y-140420000D03*
D29*
X171270000Y-142960000D03*
%TD*%
D30*
%TO.C,C8*%
X113272500Y-96520000D03*
X110147500Y-96520000D03*
%TD*%
D31*
%TO.C,U4*%
X158026100Y-63306100D03*
D32*
X163106100Y-63306100D03*
X160566100Y-63306100D03*
%TD*%
D33*
%TO.C,R15*%
X182360000Y-115770000D03*
X179260000Y-115770000D03*
%TD*%
D34*
%TO.C,C9*%
X149250000Y-64187500D03*
X149250000Y-67312500D03*
%TD*%
D15*
%TO.C,R17*%
X181600000Y-108910000D03*
X181600000Y-112010000D03*
%TD*%
D17*
%TO.C,C3*%
X129237500Y-74460000D03*
X132362500Y-74460000D03*
%TD*%
D35*
%TO.C,J8*%
X177617000Y-104102037D03*
D11*
X180157000Y-104101963D03*
%TD*%
D24*
%TO.C,@HOLE0*%
X103001100Y-89003600D03*
%TD*%
D13*
%TO.C,R6*%
X119480000Y-132540000D03*
X122580000Y-132540000D03*
%TD*%
D35*
%TO.C,J7*%
X167987500Y-77019537D03*
D11*
X170527500Y-77019463D03*
%TD*%
D15*
%TO.C,R9*%
X156780000Y-123830000D03*
X156780000Y-126930000D03*
%TD*%
D12*
%TO.C,J10*%
X177617000Y-91400000D03*
D11*
X180157000Y-91400000D03*
%TD*%
D36*
%TO.C,R1*%
X111988560Y-62813600D03*
D37*
X111988640Y-65913600D03*
%TD*%
D12*
%TO.C,J9*%
X177617000Y-85049500D03*
D11*
X180157000Y-85049500D03*
%TD*%
%TO.C,VO1*%
X136060000Y-102340000D03*
X136060000Y-104880000D03*
X136060000Y-107420000D03*
X136060000Y-109960000D03*
X128440000Y-109960000D03*
X128440000Y-107420000D03*
X128440000Y-104880000D03*
D23*
X128440000Y-102340000D03*
%TD*%
D33*
%TO.C,R16*%
X182330000Y-119460000D03*
X179230000Y-119460000D03*
%TD*%
D13*
%TO.C,R12*%
X122670000Y-78010000D03*
X125770000Y-78010000D03*
%TD*%
D38*
%TO.C,D1*%
X117068600Y-58013600D03*
D39*
X117068600Y-60553600D03*
%TD*%
D40*
%TO.C,S3*%
X128060000Y-85800000D03*
D26*
X130600000Y-85800000D03*
X133140000Y-85800000D03*
%TD*%
D17*
%TO.C,C2*%
X129227500Y-69680000D03*
X132352500Y-69680000D03*
%TD*%
D12*
%TO.C,VO3*%
X131991100Y-120878600D03*
D11*
X129451100Y-120878600D03*
X126911100Y-120878600D03*
X124371100Y-120878600D03*
X124371100Y-128498600D03*
X126911100Y-128498600D03*
X129451100Y-128498600D03*
X131991100Y-128498600D03*
%TD*%
D15*
%TO.C,R18*%
X165930000Y-93550000D03*
X165930000Y-90450000D03*
%TD*%
D19*
%TO.C,R2*%
X138860000Y-126090000D03*
X138860000Y-122990000D03*
%TD*%
D15*
%TO.C,R21*%
X152030000Y-89840000D03*
X152030000Y-92940000D03*
%TD*%
D12*
%TO.C,J2*%
X110150000Y-73450000D03*
D11*
X112690000Y-73450000D03*
X115230000Y-73450000D03*
%TD*%
D41*
%TO.C,C6*%
X161176100Y-71031066D03*
X158051100Y-71031134D03*
%TD*%
D24*
%TO.C,@HOLE2*%
X189820000Y-88720000D03*
%TD*%
M02*
